<svg width="68" height="36" viewBox="0 0 68 36" fill="none" xmlns="http://www.w3.org/2000/svg">
<path d="M7.9239 1.74374L8.25242 2.12067L7.89465 1.77139C1.16674 8.66275 0.288943 19.1691 8.18069 25.6476C10.6824 27.7828 13.6949 29.2332 16.9242 29.8573L16.9242 29.8573L16.9309 29.8585C21.8213 30.7351 26.8644 29.9578 31.264 27.6494L31.2742 27.644L31.2842 27.6382C34.6205 25.6865 37.0506 22.4955 38.0451 18.7603L38.0452 18.7603L38.0469 18.7535C39.151 14.3576 38.5101 9.70498 36.2587 5.77137C35.3673 4.19129 34.1014 2.85437 32.5723 1.87815L32.5349 1.85424L32.4938 1.83731C32.4754 1.82975 32.4589 1.81832 32.4453 1.80382C32.4317 1.78931 32.4214 1.77206 32.4151 1.75325C32.4087 1.73442 32.4065 1.71446 32.4085 1.69469C32.4105 1.67493 32.4167 1.65583 32.4268 1.63868C32.4368 1.62153 32.4504 1.60673 32.4666 1.59527C32.4829 1.58382 32.5014 1.57598 32.5209 1.57229C32.5404 1.56859 32.5605 1.56912 32.5798 1.57385C32.5991 1.57857 32.6171 1.58738 32.6328 1.59968L32.6497 1.61302L32.6677 1.62485C35.7908 3.67633 37.7064 7.07796 38.7223 10.6567C40.4634 17.077 39.2283 23.0202 35.9261 27.3591C32.6236 31.6984 27.2226 34.4738 20.5509 34.4957L20.5509 34.4956L20.542 34.4958C14.0654 34.6327 8.08048 31.4237 4.36561 26.6081C0.65535 21.7985 -0.769435 15.4177 1.81304 9.19479C3.08592 6.15354 5.14141 3.50377 7.7703 1.51475C7.79732 1.5012 7.82815 1.49677 7.8581 1.50236C7.89251 1.50879 7.92322 1.52795 7.94411 1.55604C7.96499 1.58412 7.97451 1.61905 7.97077 1.65384C7.96702 1.68864 7.95029 1.72074 7.9239 1.74374Z" fill="#514C9A" stroke="#514C9A"/>
<path d="M38.9771 34.4884C40.1016 31.1785 44.4147 19.741 54.6829 16.4631C55.8619 16.0871 57.0757 15.8303 58.3059 15.6963" stroke="#514C9A" stroke-width="2" stroke-linecap="round" stroke-linejoin="round"/>
<path d="M32.5968 1.7373C29.7406 7.03436 41.4082 25.8329 60.2322 31.6155C62.2698 32.2396 64.3623 32.6675 66.4813 32.8935" stroke="#514C9A" stroke-width="2" stroke-linecap="round" stroke-linejoin="round"/>
</svg>
