<svg width="150" height="25" viewBox="0 0 150 25" fill="none" xmlns="http://www.w3.org/2000/svg">
<path d="M5.81543 0.779011C1.17202 5.55766 0.631036 12.7256 5.99575 17.1436C7.70885 18.5863 9.78261 19.6231 11.9916 20.0289C15.3277 20.6149 18.9342 20.119 21.9096 18.4961C24.1637 17.2338 25.8317 14.9346 26.5079 12.4101C27.2292 9.43469 26.8686 6.14373 25.2907 3.52899C24.6596 2.49211 23.8481 1.50032 22.8112 0.914255C22.5858 0.77901 22.5407 0.50852 22.6309 0.283112C22.7661 0.0577035 23.0366 0.0126222 23.262 0.147867C25.5612 1.63556 26.9587 4.16013 27.68 6.72979C30.2046 15.9715 24.1186 23.951 14.5162 23.9961C5.1392 24.2215 -2.79517 14.7543 0.946607 5.69291C1.89332 3.48391 3.33594 1.5454 5.27445 0.102786C5.77034 -0.257867 6.26624 0.418358 5.81543 0.779011Z" fill="#514C9A"/>
<path fill-rule="evenodd" clip-rule="evenodd" d="M41.7885 10.2035C41.8121 10.4514 41.6303 10.6714 41.3824 10.695C40.4811 10.7809 39.6591 10.9958 38.9017 11.2184C35.4061 12.3272 32.9111 14.8311 31.1805 17.3801C29.4499 19.9289 28.5073 22.4883 28.106 23.6477C28.0245 23.883 27.7678 24.0077 27.5325 23.9263C27.2972 23.8448 27.1725 23.5881 27.2539 23.3528C27.6641 22.1679 28.6374 19.5204 30.4345 16.8736C32.2307 14.228 34.8737 11.5486 38.6339 10.3575L38.6428 10.3547C39.417 10.127 40.3066 9.89179 41.2969 9.79747C41.5448 9.77387 41.7649 9.95566 41.7885 10.2035Z" fill="#514C9A"/>
<path fill-rule="evenodd" clip-rule="evenodd" d="M23.2065 0.157614C23.4254 0.276284 23.5067 0.549921 23.388 0.7688C23.1903 1.13338 23.0985 1.65329 23.1519 2.33111C23.2051 3.0051 23.3995 3.8028 23.7372 4.69215C24.4124 6.47045 25.6414 8.5652 27.3545 10.6844C30.7812 14.9232 36.0972 19.2015 42.6449 21.2213L42.6456 21.2216C43.9242 21.6184 45.3838 21.9284 46.9798 22.1057C47.2273 22.1332 47.4056 22.3561 47.3781 22.6036C47.3506 22.851 47.1277 23.0293 46.8802 23.0018C45.2307 22.8185 43.7151 22.4975 42.3791 22.0829C35.6278 20.0003 30.1693 15.6004 26.6534 11.2512C24.8952 9.07635 23.6109 6.89961 22.8942 5.01221C22.536 4.06872 22.3148 3.18501 22.2531 2.40194C22.1917 1.62271 22.2859 0.909927 22.5954 0.33906C22.714 0.120181 22.9877 0.0389447 23.2065 0.157614Z" fill="#514C9A"/>
<path d="M149.569 9.99199C149.302 10.0811 149.034 10.0811 148.678 9.99199C147.075 9.45753 146.184 9.81384 145.293 10.9718C144.581 11.8626 144.67 13.2879 145.471 14.624C146.273 16.0493 147.698 16.94 148.589 18.2762C149.747 20.0578 149.302 21.9284 148.055 23.0864C147.164 23.9772 146.184 23.7099 145.115 23.5318C144.759 23.4427 144.402 23.3536 143.957 23.2646" stroke="black" stroke-width="0.8" stroke-miterlimit="10"/>
<path d="M59.6005 16.4951C60.4912 16.4951 61.4711 16.4951 62.3619 16.4061C63.6089 16.2279 64.5888 17.2968 64.5888 18.5439C64.5888 19.4347 64.5888 20.3255 64.5888 21.2163C64.5888 22.8197 63.6089 23.7104 61.9165 23.7104C61.382 23.7104 60.8475 23.4432 60.3131 23.3541C59.6005 23.265 59.2441 22.7306 59.2441 21.9289C59.3332 18.633 59.2441 15.4262 59.2441 12.1303C59.2441 10.616 60.224 9.72524 61.7383 9.90339C63.9653 10.0815 64.1434 10.4379 64.2325 12.5757C64.3216 14.09 63.9653 15.3371 62.9854 16.4951" stroke="black" stroke-width="0.8" stroke-miterlimit="10"/>
<path d="M92.5595 16.4054C93.183 15.8709 93.8066 15.4256 93.9847 14.5348C94.1629 13.2877 94.252 12.0406 93.9847 10.7935C93.8066 10.0809 91.1342 9.54643 90.4216 10.0809C89.6199 10.6154 89.0854 11.328 89.0854 12.3078C89.0854 16.0491 89.0854 19.7904 89.0854 23.6207C89.0854 23.7098 89.1745 23.8879 89.1745 23.977" stroke="black" stroke-width="0.8" stroke-miterlimit="10"/>
<path d="M108.326 16.4055C110.196 14.9802 109.662 13.0205 109.751 11.1499C109.751 10.8826 109.751 10.7045 109.484 10.5263C109.038 10.17 106.633 9.63556 106.188 9.90279C105.297 10.5263 104.585 11.239 104.674 12.486C104.763 15.871 104.674 19.2559 104.674 22.6409C104.674 23.0863 104.585 23.5317 104.763 23.888" stroke="black" stroke-width="0.8" stroke-miterlimit="10"/>
<path d="M120.529 9.90283C120.529 14.1786 120.529 18.4543 120.529 22.6409C120.529 23.0863 120.44 23.5317 120.618 23.888" stroke="black" stroke-width="0.8" stroke-miterlimit="10"/>
<path d="M136.296 10.4375C135.762 10.6156 135.227 10.2593 134.782 10.1702C132.555 9.54668 131.041 10.4375 131.041 12.6644C130.951 15.604 131.041 18.5435 131.041 21.394C131.041 22.1957 131.219 22.7302 132.199 22.9083C133.268 23.0865 134.247 23.4428 135.316 23.7991" stroke="black" stroke-width="0.8" stroke-miterlimit="10"/>
<path d="M79.643 10.4377C78.3068 9.99232 76.8816 9.2797 75.6345 10.7049C75.2782 11.1503 74.9219 11.5066 74.9219 12.1302C74.9219 15.4261 74.9219 18.6328 74.9219 21.9287C74.9219 22.5523 75.2782 22.9086 75.8127 23.0867C76.9707 23.443 78.0396 23.7103 79.1976 23.9775" stroke="black" stroke-width="0.8" stroke-miterlimit="10"/>
<path d="M89.3521 16.4949C90.1537 16.4949 91.0445 16.4949 91.8462 16.4949C93.1824 16.4058 94.1622 17.2966 94.2513 18.6328C94.3404 20.4143 94.0732 22.1068 94.3404 23.8883" stroke="black" stroke-width="0.8" stroke-miterlimit="10"/>
<path d="M104.941 16.4053C105.654 16.5834 106.455 16.5834 107.168 16.4943C108.682 16.3162 109.573 16.6725 109.84 18.6322C110.018 20.3247 110.018 22.1062 109.751 23.8878" stroke="black" stroke-width="0.8" stroke-miterlimit="10"/>
<path d="M75.2783 16.3164C76.5254 16.3164 77.6834 16.3164 78.9305 16.3164" stroke="black" stroke-width="0.8" stroke-miterlimit="10"/>
<path d="M131.397 16.3164C132.644 16.3164 133.802 16.3164 135.049 16.3164" stroke="black" stroke-width="0.8" stroke-miterlimit="10"/>
</svg>
