<svg width="54" height="54" viewBox="0 0 54 54" fill="none" xmlns="http://www.w3.org/2000/svg">
<path d="M4.87349 0C2.20769 0 0 2.18717 0 4.8282V48.282C0 50.923 2.20769 53.1102 4.87349 53.1102H48.7349C51.4007 53.1102 53.6083 50.923 53.6083 48.282V4.8282C53.6083 2.18717 51.4007 0 48.7349 0H4.87349ZM4.87349 4.8282H48.7349V48.282H36.093V31.9868H42.4139L43.3277 24.7445H36.0955V20.066C36.0955 17.9561 36.6169 16.5221 39.6726 16.5221H43.6323V9.95816C42.9573 9.87367 40.6156 9.73123 37.923 9.73123C32.3063 9.73123 28.4806 13.0796 28.4806 19.3128V24.7445H22.0842V31.9868H28.4782V48.282H4.87349V4.8282Z" fill="#4923B5"/>
</svg>
