<svg width="40" height="40" viewBox="0 0 40 40" fill="none" xmlns="http://www.w3.org/2000/svg">
<path d="M19.984 3.33325C10.784 3.33325 3.33398 10.7999 3.33398 19.9999C3.33398 29.1999 10.784 36.6666 19.984 36.6666C29.2007 36.6666 36.6673 29.1999 36.6673 19.9999C36.6673 10.7999 29.2007 3.33325 19.984 3.33325ZM31.534 13.3333H26.6173C26.084 11.2499 25.3173 9.24992 24.3173 7.39992C27.384 8.44992 29.934 10.5833 31.534 13.3333ZM20.0007 6.73325C21.384 8.73325 22.4673 10.9499 23.184 13.3333H16.8173C17.534 10.9499 18.6173 8.73325 20.0007 6.73325ZM7.10065 23.3333C6.83398 22.2666 6.66732 21.1499 6.66732 19.9999C6.66732 18.8499 6.83398 17.7333 7.10065 16.6666H12.734C12.6007 17.7666 12.5007 18.8666 12.5007 19.9999C12.5007 21.1333 12.6007 22.2333 12.734 23.3333H7.10065ZM8.46732 26.6666H13.384C13.9173 28.7499 14.684 30.7499 15.684 32.5999C12.6173 31.5499 10.0673 29.4333 8.46732 26.6666V26.6666ZM13.384 13.3333H8.46732C10.0673 10.5666 12.6173 8.44992 15.684 7.39992C14.684 9.24992 13.9173 11.2499 13.384 13.3333V13.3333ZM20.0007 33.2666C18.6173 31.2666 17.534 29.0499 16.8173 26.6666H23.184C22.4673 29.0499 21.384 31.2666 20.0007 33.2666ZM23.9007 23.3333H16.1007C15.9507 22.2333 15.834 21.1333 15.834 19.9999C15.834 18.8666 15.9507 17.7499 16.1007 16.6666H23.9007C24.0507 17.7499 24.1673 18.8666 24.1673 19.9999C24.1673 21.1333 24.0507 22.2333 23.9007 23.3333ZM24.3173 32.5999C25.3173 30.7499 26.084 28.7499 26.6173 26.6666H31.534C29.934 29.4166 27.384 31.5499 24.3173 32.5999V32.5999ZM27.2673 23.3333C27.4007 22.2333 27.5007 21.1333 27.5007 19.9999C27.5007 18.8666 27.4007 17.7666 27.2673 16.6666H32.9007C33.1673 17.7333 33.334 18.8499 33.334 19.9999C33.334 21.1499 33.1673 22.2666 32.9007 23.3333H27.2673Z" fill="#603EBE"/>
</svg>
