<svg width="54" height="54" viewBox="0 0 54 54" fill="none" xmlns="http://www.w3.org/2000/svg">
<path d="M37.2483 0H17.1452C7.8944 0 0.392578 7.43211 0.392578 16.5969V36.5133C0.392578 45.6781 7.8944 53.1102 17.1452 53.1102H37.2483C46.4991 53.1102 54.0009 45.6781 54.0009 36.5133V16.5969C54.0009 7.43211 46.4991 0 37.2483 0ZM48.9751 36.5133C48.9751 42.9197 43.7148 48.1311 37.2483 48.1311H17.1452C10.6787 48.1311 5.41836 42.9197 5.41836 36.5133V16.5969C5.41836 10.1905 10.6787 4.97908 17.1452 4.97908H37.2483C43.7148 4.97908 48.9751 10.1905 48.9751 16.5969V36.5133Z" fill="#4923B5"/>
<path d="M27.1931 13.2781C19.7918 13.2781 13.791 19.2232 13.791 26.5558C13.791 33.8885 19.7918 39.8336 27.1931 39.8336C34.5944 39.8336 40.5952 33.8885 40.5952 26.5558C40.5952 19.2232 34.5944 13.2781 27.1931 13.2781ZM27.1931 34.8544C22.5761 34.8544 18.8168 31.13 18.8168 26.5558C18.8168 21.9783 22.5761 18.2572 27.1931 18.2572C31.8101 18.2572 35.5694 21.9783 35.5694 26.5558C35.5694 31.13 31.8101 34.8544 27.1931 34.8544Z" fill="#4923B5"/>
<path d="M41.6042 14.0517C42.5905 14.0517 43.39 13.2596 43.39 12.2826C43.39 11.3055 42.5905 10.5134 41.6042 10.5134C40.6179 10.5134 39.8184 11.3055 39.8184 12.2826C39.8184 13.2596 40.6179 14.0517 41.6042 14.0517Z" fill="#4923B5"/>
</svg>
