<svg width="55" height="54" viewBox="0 0 55 54" fill="none" xmlns="http://www.w3.org/2000/svg">
<path d="M49.9968 0H5.00604C2.62717 0 0.697266 1.91197 0.697266 4.26873V48.8415C0.697266 51.1982 2.62717 53.1102 5.00604 53.1102H49.9968C52.3757 53.1102 54.3056 51.1982 54.3056 48.8415V4.26873C54.3056 1.91197 52.3757 0 49.9968 0ZM49.9968 48.8614C19.9896 48.8547 4.98593 48.8481 4.98593 48.8415C4.99263 19.113 4.99934 4.24881 5.00604 4.24881C35.0133 4.25545 50.0169 4.26209 50.0169 4.26873C50.0102 33.9972 50.0035 48.8614 49.9968 48.8614ZM8.6447 19.9097H16.5988V45.2565H8.6447V19.9097ZM12.6251 16.4442C15.1648 16.4442 17.2354 14.3995 17.2354 11.8768C17.2354 11.277 17.1162 10.683 16.8845 10.1289C16.6528 9.57472 16.3132 9.0712 15.8851 8.64707C15.457 8.22294 14.9488 7.8865 14.3894 7.65697C13.8301 7.42743 13.2306 7.30929 12.6251 7.30929C12.0197 7.30929 11.4202 7.42743 10.8608 7.65697C10.3015 7.8865 9.79324 8.22294 9.36514 8.64707C8.93703 9.0712 8.59743 9.57472 8.36574 10.1289C8.13405 10.683 8.0148 11.277 8.0148 11.8768C8.0081 14.3995 10.072 16.4442 12.6251 16.4442ZM29.5319 32.7159C29.5319 29.4098 30.1685 26.2099 34.303 26.2099C38.3772 26.2099 38.4375 29.9873 38.4375 32.9283V45.2565H46.385V31.3549C46.385 24.5303 44.8973 19.279 36.8494 19.279C32.9829 19.279 30.3896 21.3835 29.3241 23.3751H29.2169V19.9097H21.5844V45.2565H29.5319V32.7159Z" fill="#4923B5"/>
</svg>
