<svg width="40" height="40" viewBox="0 0 40 40" fill="none" xmlns="http://www.w3.org/2000/svg">
<path d="M20.0007 3.33325C13.5507 3.33325 8.33398 8.54992 8.33398 14.9999C8.33398 23.7499 20.0007 36.6666 20.0007 36.6666C20.0007 36.6666 31.6673 23.7499 31.6673 14.9999C31.6673 8.54992 26.4507 3.33325 20.0007 3.33325ZM11.6673 14.9999C11.6673 10.3999 15.4007 6.66659 20.0007 6.66659C24.6007 6.66659 28.334 10.3999 28.334 14.9999C28.334 19.7999 23.534 26.9833 20.0007 31.4666C16.534 27.0166 11.6673 19.7499 11.6673 14.9999Z" fill="#603EBE"/>
<path d="M20.0007 19.1666C22.3018 19.1666 24.1673 17.3011 24.1673 14.9999C24.1673 12.6987 22.3018 10.8333 20.0007 10.8333C17.6995 10.8333 15.834 12.6987 15.834 14.9999C15.834 17.3011 17.6995 19.1666 20.0007 19.1666Z" fill="#603EBE"/>
</svg>
