<svg width="77" height="88" viewBox="0 0 77 88" fill="none" xmlns="http://www.w3.org/2000/svg">
<path d="M70.5833 38.5H64.1667V22C64.1667 9.9 52.6167 0 38.5 0C24.3833 0 12.8333 9.9 12.8333 22V38.5H6.41667C3.20833 38.5 0 41.25 0 44V82.5C0 85.25 3.20833 88 6.41667 88H70.5833C73.7917 88 77 85.25 77 82.5V44C77 41.25 73.7917 38.5 70.5833 38.5ZM44.9167 77H32.0833L34.65 64.9C31.4417 63.8 28.875 60.5 28.875 57.75C28.875 53.35 33.3667 49.5 38.5 49.5C43.6333 49.5 48.125 53.35 48.125 57.75C48.125 61.05 46.2 63.8 42.35 64.9L44.9167 77ZM51.3333 38.5H25.6667V22C25.6667 15.95 31.4417 11 38.5 11C45.5583 11 51.3333 15.95 51.3333 22V38.5Z" fill="#AAAAAC"/>
</svg>
