<svg width="309" height="250" viewBox="0 0 309 250" fill="none" xmlns="http://www.w3.org/2000/svg">
<g clip-path="url(#clip0_535_769)">
<path d="M246.184 45.5381C244.583 63.1805 240.021 81.7834 232.867 99.7328C224.02 121.93 211.932 141.48 197.911 156.272L197.133 155.593C211.086 140.873 223.119 121.409 231.929 99.3036C239.891 79.3278 244.627 58.5399 245.631 39.1965L246.625 39.363C246.519 41.4059 246.372 43.4643 246.184 45.5381Z" fill="#F2F2F2"/>
<path d="M252.561 148.002C232.868 179.333 208.975 201.72 185.284 211.037L184.805 210.158C208.332 200.905 232.084 178.633 251.688 147.445L252.561 148.002Z" fill="#F2F2F2"/>
<path d="M245.707 67.5037C244.106 85.1461 239.544 103.749 232.39 121.698C223.543 143.895 211.456 163.446 197.434 178.237L196.656 177.559C210.61 162.839 222.642 143.374 231.452 121.269C239.414 101.293 244.15 80.5055 245.154 61.1621L246.148 61.3286C246.043 63.3715 245.896 65.4299 245.707 67.5037Z" fill="#F2F2F2"/>
<path d="M24.6193 112.797H11.6979C11.4218 112.797 11.1492 112.736 10.9005 112.616C10.6518 112.496 10.4334 112.321 10.2618 112.105C10.0922 111.894 9.97261 111.648 9.9119 111.384C9.85119 111.121 9.85096 110.847 9.91123 110.583C11.1419 105.153 11.0646 99.5083 9.68567 94.114C9.59845 93.7588 9.61954 93.3856 9.74622 93.0425C9.8729 92.6994 10.0994 92.4021 10.3965 92.1888C17.0407 87.4102 22.2733 87.5489 25.9489 92.6017C26.1146 92.832 26.2247 93.0976 26.2705 93.3776C27.2526 99.2817 27.3069 105.303 26.4316 111.224C26.3707 111.661 26.1536 112.061 25.8204 112.35C25.4872 112.639 25.0605 112.798 24.6193 112.797Z" fill="#E6E6E6"/>
<path d="M20.614 99.8572H16.169C15.9232 99.8572 15.6874 99.7596 15.5136 99.5858C15.3398 99.412 15.2422 99.1762 15.2422 98.9304C15.2422 98.6846 15.3398 98.4489 15.5136 98.2751C15.6874 98.1013 15.9232 98.0037 16.169 98.0037H20.614C20.8594 98.0042 21.0947 98.102 21.2681 98.2758C21.4414 98.4495 21.5388 98.685 21.5388 98.9304C21.5388 99.1759 21.4414 99.4113 21.2681 99.5851C21.0947 99.7588 20.8594 99.8567 20.614 99.8572Z" fill="white"/>
<path d="M20.614 103.107H16.169C15.9232 103.107 15.6874 103.01 15.5136 102.836C15.3398 102.662 15.2422 102.426 15.2422 102.181C15.2422 101.935 15.3398 101.699 15.5136 101.525C15.6874 101.352 15.9232 101.254 16.169 101.254H20.614C20.8594 101.254 21.0947 101.352 21.2681 101.526C21.4414 101.7 21.5388 101.935 21.5388 102.181C21.5388 102.426 21.4414 102.662 21.2681 102.835C21.0947 103.009 20.8594 103.107 20.614 103.107Z" fill="white"/>
<path d="M20.614 106.358H16.169C15.9232 106.358 15.6874 106.26 15.5136 106.086C15.3398 105.912 15.2422 105.677 15.2422 105.431C15.2422 105.185 15.3398 104.949 15.5136 104.776C15.6874 104.602 15.9232 104.504 16.169 104.504H20.614C20.8594 104.505 21.0947 104.603 21.2681 104.776C21.4414 104.95 21.5388 105.185 21.5388 105.431C21.5388 105.676 21.4414 105.912 21.2681 106.086C21.0947 106.259 20.8594 106.357 20.614 106.358Z" fill="white"/>
<path d="M259.453 170.49H246.532C246.256 170.491 245.983 170.429 245.734 170.309C245.486 170.189 245.267 170.014 245.096 169.798C244.926 169.588 244.807 169.341 244.746 169.078C244.685 168.814 244.685 168.54 244.745 168.276C245.976 162.846 245.899 157.201 244.52 151.807C244.432 151.452 244.454 151.079 244.58 150.736C244.707 150.393 244.933 150.095 245.23 149.882C251.875 145.103 257.107 145.242 260.783 150.295C260.949 150.525 261.059 150.791 261.104 151.071C262.087 156.975 262.141 162.996 261.266 168.917C261.205 169.354 260.988 169.754 260.654 170.043C260.321 170.333 259.895 170.491 259.453 170.49Z" fill="#E6E6E6"/>
<path d="M255.448 157.55H251.003C250.757 157.55 250.522 157.452 250.349 157.278C250.176 157.104 250.078 156.869 250.078 156.623C250.078 156.378 250.176 156.142 250.349 155.969C250.522 155.795 250.757 155.697 251.003 155.697H255.448C255.694 155.697 255.929 155.794 256.103 155.968C256.277 156.142 256.375 156.378 256.375 156.623C256.375 156.869 256.277 157.105 256.103 157.279C255.929 157.452 255.694 157.55 255.448 157.55Z" fill="white"/>
<path d="M255.448 160.8H251.003C250.757 160.8 250.522 160.702 250.349 160.528C250.176 160.354 250.078 160.119 250.078 159.874C250.078 159.628 250.176 159.393 250.349 159.219C250.522 159.045 250.757 158.947 251.003 158.947H255.448C255.694 158.947 255.929 159.044 256.103 159.218C256.277 159.392 256.375 159.628 256.375 159.874C256.375 160.119 256.277 160.355 256.103 160.529C255.929 160.703 255.694 160.8 255.448 160.8Z" fill="white"/>
<path d="M255.448 164.051H251.003C250.757 164.05 250.522 163.952 250.349 163.779C250.176 163.605 250.078 163.37 250.078 163.124C250.078 162.879 250.176 162.643 250.349 162.469C250.522 162.296 250.757 162.198 251.003 162.197H255.448C255.694 162.197 255.929 162.295 256.103 162.469C256.277 162.643 256.375 162.878 256.375 163.124C256.375 163.37 256.277 163.606 256.103 163.779C255.929 163.953 255.694 164.051 255.448 164.051Z" fill="white"/>
<path d="M308.348 249.517C308.348 249.58 308.336 249.643 308.312 249.702C308.288 249.761 308.252 249.814 308.207 249.859C308.162 249.904 308.109 249.939 308.05 249.964C307.991 249.988 307.928 250 307.865 250H0.592859C0.464632 250 0.34166 249.949 0.250989 249.859C0.160319 249.768 0.109375 249.645 0.109375 249.517C0.109375 249.388 0.160319 249.265 0.250989 249.175C0.34166 249.084 0.464632 249.033 0.592859 249.033H307.865C307.928 249.033 307.991 249.045 308.05 249.07C308.109 249.094 308.162 249.129 308.207 249.174C308.252 249.219 308.288 249.273 308.312 249.331C308.336 249.39 308.348 249.453 308.348 249.517Z" fill="#CCCCCC"/>
<path d="M81.1648 219.914L80.359 208.705C75.0799 206.066 69.2364 204.756 63.3359 204.888C71.6371 211.304 70.9722 224.129 76.7212 232.905C78.5352 235.629 80.9389 237.91 83.7541 239.578C86.5693 241.246 89.7238 242.26 92.984 242.543L99.8925 246.518C100.683 241.295 100.331 235.962 98.8623 230.888C97.3932 225.813 94.8416 221.118 91.3831 217.124C89.4207 214.903 87.1864 212.938 84.733 211.276C83.2229 215.611 81.1648 219.914 81.1648 219.914Z" fill="#F2F2F2"/>
<path d="M227.293 221.539L228.099 210.33C233.378 207.691 239.222 206.381 245.122 206.513C236.821 212.929 237.486 225.754 231.737 234.53C229.923 237.254 227.519 239.535 224.704 241.203C221.889 242.871 218.734 243.885 215.474 244.168L208.566 248.143C207.775 242.92 208.127 237.587 209.596 232.513C211.065 227.438 213.616 222.743 217.075 218.749C219.037 216.528 221.272 214.563 223.725 212.901C225.235 217.236 227.293 221.539 227.293 221.539Z" fill="#F2F2F2"/>
<path d="M150.573 95.0481C154.836 95.0481 158.292 91.592 158.292 87.3286C158.292 83.0653 154.836 79.6091 150.573 79.6091C146.31 79.6091 142.854 83.0653 142.854 87.3286C142.854 91.592 146.31 95.0481 150.573 95.0481Z" fill="#7EB256"/>
<path d="M154.536 84.1113C154.419 84.0005 154.265 83.9387 154.105 83.9387C153.944 83.9387 153.79 84.0005 153.674 84.1113C152.036 85.4177 150.565 86.9204 149.293 88.5857C148.981 87.9818 148.669 87.3779 148.357 86.774C147.997 86.0769 146.944 86.6927 147.304 87.3891C147.761 88.2725 148.217 89.1558 148.674 90.0391C148.729 90.1293 148.806 90.2038 148.898 90.2555C148.991 90.3072 149.095 90.3343 149.2 90.3343C149.306 90.3343 149.41 90.3072 149.502 90.2555C149.594 90.2038 149.671 90.1293 149.726 90.0391C151.081 88.131 152.7 86.4253 154.536 84.9732C154.649 84.8584 154.713 84.7036 154.713 84.5422C154.713 84.3809 154.649 84.2261 154.536 84.1113Z" fill="white"/>
<path d="M116.031 109.218L104.391 90.9371L117.87 83.718L121.408 97.6658L146.336 111.136C147.32 110.782 148.386 110.722 149.404 110.963C150.422 111.204 151.348 111.736 152.068 112.494C152.789 113.253 153.273 114.204 153.462 115.233C153.652 116.261 153.538 117.323 153.134 118.288C152.73 119.253 152.055 120.079 151.189 120.667C150.324 121.254 149.306 121.578 148.26 121.597C147.215 121.616 146.186 121.33 145.3 120.775C144.413 120.22 143.708 119.418 143.269 118.469L116.031 109.218Z" fill="#A0616A"/>
<path d="M95.8852 69.0105C92.2276 74.3806 105.226 93.9008 105.226 93.9008C105.859 92.5359 111.912 107.863 112.926 106.958C115.807 104.385 120.318 97.2166 122.825 96.897C124.259 96.7143 119.5 86.5454 119.5 86.5454C119.5 86.5454 117.325 80.5407 114.373 72.8703C113.579 70.6863 112.245 68.7387 110.496 67.2089C108.746 65.679 106.638 64.6167 104.368 64.1207C104.368 64.1207 99.5428 63.6403 95.8852 69.0105Z" fill="#3F3D56"/>
<path d="M96.0637 243.973L101.592 243.972L104.222 222.648L96.0625 222.649L96.0637 243.973Z" fill="#A0616A"/>
<path d="M94.6543 242.168L96.2104 242.167L102.286 239.697L105.542 242.167H105.542C107.382 242.167 109.147 242.898 110.448 244.199C111.749 245.501 112.481 247.265 112.481 249.105V249.331L94.6546 249.331L94.6543 242.168Z" fill="#2F2E41"/>
<path d="M121.749 243.973L127.277 243.972L129.908 222.648L121.748 222.649L121.749 243.973Z" fill="#A0616A"/>
<path d="M120.338 242.168L121.894 242.167L127.969 239.697L131.225 242.167H131.226C133.066 242.167 134.831 242.898 136.132 244.199C137.433 245.501 138.164 247.265 138.164 249.105V249.331L120.338 249.331L120.338 242.168Z" fill="#2F2E41"/>
<path d="M124.142 127.393L88.1829 128.292C81.3534 132.001 81.2497 140.03 83.4874 149.562C83.4874 149.562 82.732 155.227 84.2428 156.738C85.7537 158.249 86.5091 158.249 85.7537 160.893C84.9983 163.537 88.9895 167.855 88.5047 168.34C88.0199 168.825 86.8868 171.469 86.8868 171.469L90.6639 192.998C90.6639 192.998 93.3079 230.391 94.0633 231.147C94.8187 231.902 95.5741 231.147 94.8187 233.035C94.0633 234.924 93.3079 234.168 94.0633 234.924C94.7324 235.645 95.3628 236.402 95.9518 237.19H105.084C105.084 237.19 105.772 233.413 105.772 233.035C105.772 232.658 106.528 230.391 106.528 230.014C106.528 229.636 105.86 228.968 105.86 228.968C105.629 228.2 105.473 227.412 105.395 226.614C105.395 225.859 103.128 196.775 103.128 196.775L107.661 159.004L118.614 196.02C118.614 196.02 118.614 228.503 119.37 229.258C120.125 230.014 120.125 229.636 119.747 231.147C119.37 232.658 117.859 232.28 118.992 233.413C120.125 234.546 120.503 232.658 120.125 234.546L119.747 236.435L131.079 236.597C131.079 236.597 132.59 233.413 131.834 232.28C131.079 231.147 131.124 231.456 132.046 229.602C132.967 227.747 133.345 227.37 132.967 226.992C132.59 226.614 132.59 224.605 132.59 224.605L130.701 188.466C130.701 188.466 130.323 150.317 130.323 149.184C130.295 148.601 130.402 148.019 130.637 147.485V145.947L129.19 140.497L124.142 127.393Z" fill="#2F2E41"/>
<path d="M102.54 52.6205C108.711 52.6205 113.713 47.6183 113.713 41.4477C113.713 35.2771 108.711 30.2749 102.54 30.2749C96.3694 30.2749 91.3672 35.2771 91.3672 41.4477C91.3672 47.6183 96.3694 52.6205 102.54 52.6205Z" fill="#A0616A"/>
<path d="M108.127 60.0048C110.534 61.4358 111.974 64.065 112.8 66.7405C114.331 71.6939 115.252 76.8152 115.543 81.9913L116.416 97.4878L127.229 130.484C117.858 138.413 82.6348 132.286 82.6348 132.286C82.6348 132.286 81.5536 131.926 82.6348 130.844C83.7161 129.763 84.7687 130.721 83.6874 129.64C82.6062 128.559 83.3516 129.763 83.712 128.682C84.0724 127.601 83.712 128.322 83.3516 127.961C82.9912 127.601 86.1417 124.357 86.1417 124.357L83.2584 105.417L79.6543 67.213C83.9793 61.8068 92.6773 58.6199 92.6773 58.6199L94.9248 54.5745L106.162 55.4734L108.127 60.0048Z" fill="#3F3D56"/>
<path d="M111.75 35.5116C112.618 36.1593 113.261 37.063 113.589 38.0956C113.715 36.4082 113.723 34.7141 113.613 33.0256C113.481 31.8391 112.646 31.5722 111.679 31.2629C110.805 30.9836 109.817 30.6679 109.551 29.5161C106.039 26.0995 99.9255 26.2718 95.7414 27.4635C93.439 28.1194 92.1143 28.9619 91.9957 29.4555L91.9712 29.5572L91.8777 29.6039C90.103 30.4913 89.7575 33.2933 89.7803 35.4877C89.8236 39.622 91.2511 44.3176 92.0552 44.699C92.0978 44.7192 92.1086 44.7113 92.127 44.696C93.3379 43.7283 94.8152 44.7695 95.4644 45.3355C95.8473 42.766 97.0803 40.3988 98.9663 38.6122C100.852 36.8256 103.283 35.7225 105.869 35.4792C106.714 35.3975 107.552 35.257 108.377 35.0587C108.796 34.9504 109.226 34.8939 109.658 34.8905C110.402 34.8792 111.132 35.096 111.75 35.5116Z" fill="#2F2E41"/>
<path d="M181.109 136.295L202.601 114.47L208.264 97.0146L199.151 93.3289C194.637 97.8821 189.991 111.821 189.991 111.821L175.321 131.509C175.204 131.553 175.088 131.599 174.972 131.653C174.297 131.972 173.715 132.46 173.284 133.069C172.852 133.678 172.584 134.389 172.508 135.132C172.431 135.875 172.546 136.625 172.844 137.31C173.142 137.995 173.611 138.592 174.207 139.042C174.802 139.493 175.504 139.782 176.244 139.882C176.984 139.982 177.738 139.89 178.432 139.614C179.126 139.337 179.737 138.887 180.206 138.306C180.675 137.724 180.986 137.032 181.109 136.295Z" fill="#FFB8B8"/>
<path d="M196.666 95.3258L208.19 98.6593L208.233 98.6511C212.468 97.8286 215.819 90.7892 217.884 85.0288C218.563 83.1288 218.496 81.0418 217.695 79.1896C216.895 77.3374 215.421 75.8584 213.571 75.0513C212.203 74.4652 210.698 74.2735 209.227 74.4979C207.755 74.7223 206.376 75.3538 205.244 76.3211L199.499 81.2685L196.666 95.3258Z" fill="#7EB256"/>
<path d="M186.808 243.324L180.61 243.324L177.662 219.42L186.808 219.42L186.808 243.324Z" fill="#FFB8B8"/>
<path d="M188.388 241.301L186.643 241.301L179.833 238.531L176.183 241.3H176.182C174.119 241.3 172.141 242.12 170.683 243.578C169.224 245.037 168.404 247.015 168.404 249.078V249.331L188.387 249.331L188.388 241.301Z" fill="#2F2E41"/>
<path d="M214.306 243.324L208.108 243.324L205.16 219.42L214.307 219.42L214.306 243.324Z" fill="#FFB8B8"/>
<path d="M215.888 241.301L214.143 241.301L207.333 238.531L203.683 241.3H203.682C201.619 241.3 199.641 242.12 198.183 243.578C196.724 245.037 195.904 247.015 195.904 249.078V249.331L215.887 249.331L215.888 241.301Z" fill="#2F2E41"/>
<path d="M223.756 140.36C223.756 140.36 224.48 149.044 222.671 157.366C220.862 165.688 220.862 189.126 220.862 189.126L216.882 234.797L204.941 233.712L201.685 157.366L190.106 183.056L191.192 186.674L189.746 187.579C189.746 187.579 190.83 194.634 190.106 194.634C189.383 194.634 187.574 195.72 187.574 195.72L189.021 232.988L176.719 232.626L172.377 180.161L177.081 150.13L177.443 144.34L179.071 144.407L179.9 141.988L181.423 137.827L223.756 140.36Z" fill="#2F2E41"/>
<path d="M224.381 142.184L224.445 142.094C227.889 137.272 222.709 125.686 221.928 124.006L225.219 122.938L224.478 116.639L224.127 113.831L226.642 111.316L226.649 111.254L228.096 98.5898L230.2 90.1785C230.993 86.9988 230.926 83.6653 230.005 80.5203C229.083 77.3752 227.342 74.532 224.959 72.2824L220.095 67.6961L214.183 58.9492H204.65L201.382 65.1232C198.213 65.8557 195.401 67.6766 193.437 70.2689C191.472 72.8611 190.479 76.0604 190.631 79.3094L191.372 95.5021L188.472 115.663L188.47 119.312L185.206 122.939L185.919 126.502L183.435 127.567L182.338 132.685C181.885 133.284 178.889 137.278 178.889 138.37C178.889 138.534 179.01 138.693 179.269 138.869C181.311 140.251 192.596 143.07 197.59 141.071C202.91 138.944 224.058 142.135 224.271 142.167L224.381 142.184Z" fill="#7EB256"/>
<path d="M208.186 56.1256C215.158 56.1256 220.811 50.4731 220.811 43.5004C220.811 36.5277 215.158 30.8752 208.186 30.8752C201.213 30.8752 195.561 36.5277 195.561 43.5004C195.561 50.4731 201.213 56.1256 208.186 56.1256Z" fill="#FFB8B8"/>
<path d="M206.977 56.3299C208.932 56.3099 210.882 56.123 212.806 55.7711C214.71 55.3324 218.911 52.0837 220.056 50.1645C220.907 48.7386 221.418 46.533 221.696 44.9339C222.072 42.8177 222 40.646 221.483 38.5595C220.967 36.4731 220.018 34.5183 218.698 32.8219C218.189 32.1112 217.498 31.5513 216.697 31.2013C216.626 31.1757 216.553 31.1532 216.48 31.1343C215.319 30.8607 214.266 30.2463 213.457 29.3701C213.3 29.1927 213.13 29.0268 212.949 28.8738C212.041 28.1469 210.974 27.6452 209.835 27.4097C207.996 26.9678 205.364 27.5215 202.013 29.0568C200.33 29.8282 198.461 29.613 197.021 29.3393C196.941 29.3259 196.858 29.3338 196.781 29.3623C196.704 29.3908 196.636 29.4389 196.584 29.5019C195.989 30.0896 195.195 30.4305 194.359 30.4561C193.848 30.4918 193.329 31.2143 192.704 32.1553C192.562 32.3689 192.396 32.6182 192.276 32.7703L192.252 32.4846L191.971 32.8113C191.529 33.3247 191.224 33.9416 191.084 34.6047C190.945 35.2677 190.975 35.9553 191.173 36.6034C191.371 37.2515 191.729 37.839 192.215 38.3112C192.701 38.7834 193.298 39.1249 193.952 39.304C194.47 39.4277 195 39.4982 195.533 39.5143C195.856 39.535 196.19 39.5563 196.511 39.6035C197.541 39.787 198.507 40.2345 199.313 40.9025C200.119 41.5704 200.738 42.4359 201.109 43.4145C201.197 43.6407 201.335 43.8436 201.514 44.0078C201.693 44.1719 201.907 44.2927 202.139 44.361C202.372 44.4293 202.617 44.4432 202.856 44.4016C203.095 44.3601 203.322 44.2641 203.518 44.1212C203.844 43.8535 204.23 43.6687 204.643 43.5824C205.056 43.4962 205.483 43.5111 205.889 43.6258C206.242 43.8104 206.521 44.1106 206.679 44.4763C206.87 44.8834 207.178 45.2243 207.563 45.4556C208.878 46.091 209.044 49.0515 208.641 51.5334C208.254 53.9257 207.411 55.6709 206.591 55.7773C205.96 55.8591 205.889 55.9059 205.846 56.019L205.807 56.1202L205.881 56.2121C206.234 56.3297 206.607 56.3699 206.977 56.3299Z" fill="#2F2E41"/>
<path d="M196.502 96.676L190.433 88.9436C184.252 90.6458 173.283 100.422 173.283 100.422L150.758 110.197C150.006 110.071 149.234 110.145 148.52 110.412C147.806 110.679 147.175 111.129 146.69 111.717C146.205 112.305 145.884 113.011 145.758 113.763C145.633 114.515 145.708 115.287 145.975 116.001C146.243 116.714 146.694 117.345 147.283 117.829C147.872 118.313 148.578 118.634 149.33 118.758C150.082 118.883 150.854 118.807 151.567 118.539C152.281 118.27 152.911 117.818 153.394 117.229L182.902 108.997L196.502 96.676Z" fill="#FFB8B8"/>
<path d="M195.047 98.4437L204.623 87.7694L205.154 80.2059C205.253 78.7207 204.935 77.2374 204.235 75.9237C203.535 74.6099 202.482 73.5181 201.194 72.7716C199.442 71.7713 197.375 71.4739 195.411 71.9393C193.448 72.4048 191.735 73.5984 190.618 75.2788C187.234 80.378 183.594 87.2723 185.467 91.1594L185.486 91.1988L195.047 98.4437Z" fill="#7EB256"/>
<path d="M106.793 138.565L81.9062 125.819C80.136 124.912 79.5496 122.508 80.5991 120.458L96.8259 88.7745C97.8754 86.7253 100.169 85.7957 101.94 86.7024L126.827 99.4481C128.597 100.355 129.183 102.759 128.134 104.809L111.907 136.493C110.857 138.542 108.563 139.471 106.793 138.565Z" fill="#E6E6E6"/>
<path d="M102.541 132.705L85.6321 124.046C83.9742 123.197 83.4249 120.944 84.4078 119.025L97.8888 92.7029C98.8717 90.7837 101.02 89.9133 102.678 90.7624L123.1 101.221C124.758 102.071 125.307 104.323 124.324 106.242L117.001 120.541C112.623 129.09 109.926 136.487 102.541 132.705Z" fill="white"/>
<path d="M110.901 118.331L95.9244 110.66C95.7413 110.53 95.6112 110.338 95.5579 110.12C95.5046 109.901 95.5317 109.671 95.6342 109.471C95.7367 109.271 95.9078 109.114 96.1162 109.029C96.3246 108.945 96.5564 108.938 96.7693 109.011L111.746 116.681C111.929 116.811 112.059 117.003 112.112 117.222C112.165 117.44 112.138 117.671 112.036 117.871C111.933 118.071 111.762 118.227 111.554 118.312C111.345 118.396 111.114 118.403 110.901 118.331Z" fill="#7EB256"/>
<path d="M97.6722 115.67L94.2545 113.92C94.0713 113.79 93.9413 113.598 93.888 113.379C93.8347 113.161 93.8618 112.93 93.9643 112.73C94.0668 112.53 94.2379 112.373 94.4463 112.289C94.6547 112.205 94.8865 112.198 95.0994 112.27L98.5172 114.021C98.7003 114.151 98.8303 114.343 98.8836 114.562C98.9369 114.78 98.9098 115.01 98.8073 115.211C98.7048 115.411 98.5337 115.567 98.3253 115.652C98.1169 115.736 97.8851 115.743 97.6722 115.67Z" fill="#7EB256"/>
<path d="M102.056 122.03L92.5845 117.179C92.4014 117.049 92.2713 116.857 92.2181 116.638C92.1648 116.42 92.1919 116.19 92.2944 115.989C92.3969 115.789 92.568 115.633 92.7763 115.548C92.9847 115.464 93.2166 115.457 93.4295 115.53L102.9 120.38C103.084 120.511 103.214 120.703 103.267 120.921C103.32 121.139 103.293 121.37 103.191 121.57C103.088 121.77 102.917 121.927 102.709 122.011C102.5 122.096 102.268 122.102 102.056 122.03V122.03Z" fill="#7EB256"/>
<path d="M116.827 106.759L101.85 99.0887C101.667 98.9582 101.537 98.7662 101.484 98.5478C101.43 98.3293 101.458 98.099 101.56 97.8989C101.663 97.6987 101.834 97.5421 102.042 97.4577C102.25 97.3733 102.482 97.3666 102.695 97.439L117.671 105.109C117.855 105.24 117.985 105.432 118.038 105.65C118.091 105.868 118.064 106.099 117.962 106.299C117.859 106.499 117.688 106.656 117.48 106.74C117.271 106.824 117.039 106.831 116.827 106.759Z" fill="#7EB256"/>
<path d="M103.598 104.098L100.18 102.348C99.9971 102.218 99.867 102.026 99.8138 101.807C99.7605 101.589 99.7876 101.358 99.8901 101.158C99.9926 100.958 100.164 100.801 100.372 100.717C100.58 100.633 100.812 100.626 101.025 100.698L104.443 102.449C104.626 102.579 104.756 102.771 104.809 102.99C104.863 103.208 104.836 103.438 104.733 103.638C104.631 103.839 104.459 103.995 104.251 104.08C104.043 104.164 103.811 104.171 103.598 104.098Z" fill="#7EB256"/>
<path d="M107.983 110.458L98.5123 105.608C98.3291 105.477 98.1991 105.285 98.1458 105.067C98.0925 104.848 98.1196 104.618 98.2221 104.418C98.3246 104.218 98.4957 104.061 98.7041 103.977C98.9125 103.892 99.1443 103.885 99.3572 103.958L108.828 108.808C109.011 108.939 109.141 109.131 109.195 109.349C109.248 109.568 109.221 109.798 109.118 109.998C109.016 110.198 108.845 110.355 108.636 110.439C108.428 110.524 108.196 110.53 107.983 110.458L107.983 110.458Z" fill="#7EB256"/>
<path d="M86.1692 110.981L80.5469 90.0499L95.5712 87.2058L94.7632 101.573L114.504 121.899C115.549 121.856 116.584 122.119 117.483 122.654C118.381 123.189 119.105 123.974 119.565 124.914C120.025 125.853 120.201 126.906 120.073 127.944C119.945 128.982 119.518 129.961 118.844 130.76C118.169 131.559 117.277 132.145 116.275 132.446C115.273 132.747 114.206 132.75 113.202 132.455C112.199 132.16 111.303 131.579 110.624 130.783C109.945 129.988 109.512 129.012 109.378 127.974L86.1692 110.981Z" fill="#A0616A"/>
<path d="M79.0106 66.5819C73.9108 70.608 80.4564 93.1278 80.4564 93.1278C81.4698 92.0157 82.6474 108.453 83.8862 107.893C87.4067 106.303 93.8594 100.817 96.347 101.264C97.7697 101.52 96.2792 90.3919 96.2792 90.3919C96.2792 90.3919 96.005 84.0113 95.4898 75.8088C95.3872 73.4871 94.6988 71.2291 93.4887 69.245C92.2787 67.261 90.5863 65.6153 88.5692 64.4613C88.5692 64.4613 84.1103 62.5559 79.0106 66.5819Z" fill="#3F3D56"/>
<path d="M163.865 157.438L150.284 151.025C149.994 150.889 149.738 150.689 149.536 150.439C149.334 150.19 149.191 149.898 149.118 149.586C149.045 149.28 149.041 148.962 149.108 148.655C149.175 148.347 149.311 148.059 149.505 147.812C153.439 142.785 156.14 136.905 157.392 130.645C157.487 130.166 157.745 129.734 158.122 129.424C158.5 129.113 158.973 128.943 159.461 128.943C166.388 128.966 171.564 131.495 174.847 136.459C175.02 136.717 175.135 137.01 175.183 137.317C175.231 137.624 175.212 137.938 175.126 138.236C173.226 144.787 170.334 151.009 166.55 156.685C166.27 157.114 165.843 157.426 165.349 157.565C164.855 157.704 164.328 157.659 163.865 157.438Z" fill="#E6E6E6"/>
<path d="M167.861 148.444L157.477 143.541C157.218 143.419 157.019 143.199 156.923 142.93C156.826 142.661 156.841 142.365 156.963 142.107C157.085 141.848 157.304 141.649 157.573 141.552C157.842 141.456 158.138 141.47 158.397 141.592L168.78 146.496C168.908 146.556 169.023 146.641 169.118 146.746C169.213 146.851 169.287 146.973 169.335 147.106C169.382 147.24 169.403 147.381 169.396 147.522C169.39 147.663 169.355 147.802 169.295 147.93C169.234 148.058 169.149 148.173 169.044 148.268C168.94 148.363 168.817 148.436 168.684 148.484C168.551 148.532 168.41 148.553 168.268 148.546C168.127 148.539 167.988 148.504 167.861 148.444H167.861Z" fill="white"/>
<path d="M169.474 145.028L159.09 140.125C158.832 140.003 158.632 139.783 158.536 139.514C158.439 139.245 158.454 138.949 158.576 138.69C158.698 138.432 158.917 138.233 159.186 138.136C159.455 138.04 159.751 138.054 160.01 138.176L170.394 143.08C170.652 143.202 170.851 143.421 170.948 143.69C171.044 143.959 171.03 144.255 170.908 144.514C170.786 144.772 170.566 144.971 170.297 145.068C170.028 145.164 169.732 145.15 169.474 145.028V145.028Z" fill="white"/>
<path d="M155.599 37.791L154.633 37.8968C150.323 20.961 141.969 9.22797 130.474 3.96607C115.861 -2.72274 97.7909 1.76892 79.5929 16.6138C61.3025 31.5345 45.1106 55.1027 34.0004 82.9781L33.0625 82.5489C44.2215 54.5518 60.4965 30.8697 78.8894 15.866C97.3746 0.786559 115.813 -3.73804 130.809 3.12591C142.634 8.53859 151.206 20.5256 155.599 37.791Z" fill="#F2F2F2"/>
<path d="M48.9578 59.8478C46.43 65.1729 44.0257 70.6897 41.8115 76.2448C29.0701 108.212 22.6133 140.86 23.141 170.66L22.1451 170.553C21.617 140.643 28.0924 107.883 40.8737 75.8156C43.0942 70.2448 45.5054 64.7124 48.0404 59.3723L48.9578 59.8478Z" fill="#F2F2F2"/>
<path d="M48.4813 81.8132C45.9535 87.1382 43.5491 92.655 41.335 98.2101C28.5936 130.178 22.1368 162.825 22.6644 192.625L21.6686 192.519C21.1404 162.608 27.6158 129.848 40.3971 97.7809C42.6176 92.2101 45.0288 86.6777 47.5638 81.3376L48.4813 81.8132Z" fill="#F2F2F2"/>
<path d="M21.7164 89.8017C22.8172 88.1471 22.1656 85.7786 20.2611 84.5115C18.3565 83.2444 15.9202 83.5585 14.8194 85.2131C13.7186 86.8677 14.3701 89.2362 16.2747 90.5033C18.1792 91.7704 20.6155 91.4563 21.7164 89.8017Z" fill="#CCCCCC"/>
<path d="M256.121 149.554C257.221 147.9 256.57 145.531 254.665 144.264C252.761 142.997 250.324 143.311 249.224 144.966C248.123 146.62 248.774 148.989 250.679 150.256C252.584 151.523 255.02 151.209 256.121 149.554Z" fill="#CCCCCC"/>
</g>
<defs>
<clipPath id="clip0_535_769">
<rect width="308.239" height="250" fill="white" transform="translate(0.109375)"/>
</clipPath>
</defs>
</svg>
