<svg width="230" height="200" viewBox="0 0 230 200" fill="none" xmlns="http://www.w3.org/2000/svg">
<g clip-path="url(#clip0_598_751)">
<path d="M229.591 0.130615H0.209229V147.772H229.591V0.130615Z" fill="#E6E6E6"/>
<path d="M223.032 18.6487H6.76831V139.038H223.032V18.6487Z" fill="white"/>
<path d="M229.493 0H0.111084V9.79374H229.493V0Z" fill="#7EB256"/>
<path d="M7.35279 6.82228C8.3503 6.82228 9.15895 6.00959 9.15895 5.00709C9.15895 4.00458 8.3503 3.19189 7.35279 3.19189C6.35527 3.19189 5.54663 4.00458 5.54663 5.00709C5.54663 6.00959 6.35527 6.82228 7.35279 6.82228Z" fill="white"/>
<path d="M14.2083 6.82228C15.2058 6.82228 16.0144 6.00959 16.0144 5.00709C16.0144 4.00458 15.2058 3.19189 14.2083 3.19189C13.2107 3.19189 12.4021 4.00458 12.4021 5.00709C12.4021 6.00959 13.2107 6.82228 14.2083 6.82228Z" fill="white"/>
<path d="M21.0642 6.82228C22.0617 6.82228 22.8704 6.00959 22.8704 5.00709C22.8704 4.00458 22.0617 3.19189 21.0642 3.19189C20.0667 3.19189 19.2581 4.00458 19.2581 5.00709C19.2581 6.00959 20.0667 6.82228 21.0642 6.82228Z" fill="white"/>
<path d="M81.9883 31.1399H26.4187V126.546H81.9883V31.1399Z" fill="#E6E6E6"/>
<path d="M137.889 31.1399H91.5808V57.4016H137.889V31.1399Z" fill="#7EB256"/>
<path d="M137.889 64.7148H91.5808V92.9711H137.889V64.7148Z" fill="#E6E6E6"/>
<path d="M137.889 100.284H91.5808V126.546H137.889V100.284Z" fill="#E6E6E6"/>
<path d="M203.381 31.1399H147.812V72.7174H203.381V31.1399Z" fill="#E6E6E6"/>
<path d="M203.381 84.9688H147.812V126.546H203.381V84.9688Z" fill="#E6E6E6"/>
<path d="M181.974 75.7045V66.7534C181.974 63.5723 183.231 60.5215 185.469 58.2721C187.708 56.0227 190.743 54.759 193.909 54.759C197.074 54.759 200.109 56.0227 202.348 58.2721C204.586 60.5215 205.843 63.5723 205.843 66.7534V75.7045C205.843 76.1317 205.674 76.5412 205.373 76.8432C205.073 77.1453 204.665 77.3152 204.24 77.3157H183.577C183.152 77.3152 182.745 77.1453 182.444 76.8432C182.143 76.5412 181.974 76.1317 181.974 75.7045Z" fill="#2F2E41"/>
<path d="M211.556 192.192L207.347 193.363L200.85 177.602L207.063 175.875L211.556 192.192Z" fill="#FFB8B8"/>
<path d="M204.007 192.99L212.125 190.732L213.54 195.87L200.31 199.549C200.125 198.875 200.073 198.17 200.158 197.475C200.243 196.78 200.464 196.109 200.807 195.5C201.15 194.891 201.61 194.356 202.159 193.926C202.708 193.495 203.336 193.177 204.007 192.99Z" fill="#2F2E41"/>
<path d="M167.67 195.446H163.302L161.224 178.515H167.67L167.67 195.446Z" fill="#FFB8B8"/>
<path d="M160.182 194.192H168.606V199.522H154.879C154.879 198.822 155.016 198.129 155.282 197.482C155.549 196.836 155.94 196.248 156.432 195.753C156.925 195.258 157.509 194.866 158.153 194.598C158.796 194.33 159.486 194.192 160.182 194.192Z" fill="#2F2E41"/>
<path d="M162.403 100.824C162.715 101.247 163.115 101.596 163.575 101.846C164.036 102.097 164.546 102.243 165.068 102.275C165.591 102.306 166.115 102.222 166.601 102.028C167.088 101.834 167.527 101.535 167.887 101.152L179.497 106.4L178.441 99.837L167.577 95.8594C166.898 95.295 166.035 95.0008 165.154 95.0326C164.273 95.0644 163.434 95.4199 162.796 96.0318C162.158 96.6437 161.766 97.4695 161.694 98.3527C161.621 99.2359 161.874 100.115 162.403 100.824H162.403Z" fill="#FFB8B8"/>
<path d="M186.527 140.294C182.879 140.294 179.103 139.748 175.929 138.123C174.244 137.278 172.75 136.093 171.542 134.641C170.334 133.189 169.437 131.502 168.907 129.686C167.253 124.423 169.339 119.253 171.355 114.253C172.605 111.154 173.785 108.228 174.091 105.343L174.198 104.319C174.675 99.7191 175.087 95.7464 177.368 94.2563C178.55 93.484 180.14 93.4399 182.228 94.1214L201.838 100.524L201.117 137.935L200.998 137.976C200.895 138.01 193.982 140.294 186.527 140.294Z" fill="#2F2E41"/>
<path d="M181.885 82.4743C181.885 82.4743 191.504 79.61 198.985 80.6841C198.985 80.6841 194.71 104.315 196.135 112.192C197.56 120.069 171.375 115.235 176.719 107.716L178.501 98.7652C178.501 98.7652 174.938 95.1848 178.144 90.8883L181.885 82.4743Z" fill="#7EB256"/>
<path d="M177.154 139.584L165.299 137.351L169.438 105.339C169.716 104.445 176.127 84.1635 179.039 83.0661C181.154 82.3178 183.316 81.7141 185.511 81.2591L185.933 81.1743L183.556 84.7579L174.092 107.549L177.154 139.584Z" fill="#2F2E41"/>
<path d="M170.977 191.523L155.659 188.958L164.255 153.682L177.046 105.44L177.172 106.297C177.182 106.361 178.377 112.663 196.108 109.867L196.264 109.842L196.307 109.995L217.737 186.092L200.283 189.016L184.365 133.495L170.977 191.523Z" fill="#2F2E41"/>
<path d="M192.207 145.575L192.216 145.304C192.227 145.004 193.281 115.095 192.929 103.067C192.576 90.9978 196.464 80.5459 196.503 80.4417L196.535 80.3578L196.621 80.333C201.651 78.8887 206.015 83.1992 206.058 83.2429L206.12 83.3045L204.687 95.1829L210.82 138.378L192.207 145.575Z" fill="#2F2E41"/>
<path d="M191.456 77.1073C196.289 77.1073 200.207 73.1701 200.207 68.3134C200.207 63.4567 196.289 59.5195 191.456 59.5195C186.624 59.5195 182.706 63.4567 182.706 68.3134C182.706 73.1701 186.624 77.1073 191.456 77.1073Z" fill="#FFB8B8"/>
<path d="M179.151 67.4693C179.153 64.9538 180.149 62.5421 181.919 60.7633C183.689 58.9846 186.088 57.984 188.591 57.9812H190.373C192.876 57.984 195.276 58.9846 197.045 60.7633C198.815 62.5421 199.811 64.9538 199.814 67.4693V67.6483H196.049L194.765 64.035L194.508 67.6483H192.563L191.915 65.8253L191.786 67.6483H179.151V67.4693Z" fill="#2F2E41"/>
<path d="M190.595 78.3221C190.419 78.0816 190.313 77.7958 190.291 77.4977C190.269 77.1995 190.331 76.9011 190.47 76.6368C192.357 73.0284 195 66.361 191.492 62.2491L191.24 61.9536H201.425V77.3207L192.173 78.9613C192.079 78.9779 191.984 78.9864 191.889 78.9865C191.636 78.9864 191.388 78.9262 191.163 78.8107C190.938 78.6953 190.743 78.5278 190.595 78.3221Z" fill="#2F2E41"/>
<path d="M149.591 14.8753C142.464 8.83162 133.743 5.00004 124.489 3.84675C115.235 2.69346 105.847 4.26819 97.4678 8.37932C89.0882 12.4904 82.0782 18.9607 77.2909 27.0028C72.5035 35.0449 70.1452 44.312 70.5029 53.6765C70.8607 63.041 73.919 72.0992 79.3057 79.7487C84.6925 87.3983 92.1754 93.3094 100.844 96.7627C109.513 100.216 118.993 101.063 128.132 99.1999C137.27 97.337 145.673 92.8448 152.318 86.2698L211.321 136.305C212.219 137.068 213.381 137.441 214.553 137.343C215.724 137.244 216.809 136.682 217.568 135.78C218.327 134.877 218.698 133.709 218.6 132.532C218.502 131.354 217.942 130.264 217.044 129.502L217.038 129.496L158.035 79.4605C164.889 69.5738 167.823 57.4711 166.261 45.524C164.699 33.5769 158.754 22.6466 149.591 14.8753ZM145.787 74.6424C141.19 80.1171 135.082 84.0991 128.233 86.0847C121.385 88.0703 114.104 87.9704 107.312 85.7976C100.52 83.6247 94.5221 79.4766 90.076 73.8777C85.6299 68.2788 82.9357 61.4806 82.334 54.3427C81.7323 47.2049 83.2501 40.0481 86.6957 33.7773C90.1412 27.5064 95.3596 22.4033 101.691 19.1131C108.022 15.8229 115.182 14.4934 122.266 15.2928C129.349 16.0923 136.037 18.9846 141.485 23.6042H141.485C145.102 26.6715 148.082 30.4248 150.256 34.6497C152.43 38.8746 153.754 43.4885 154.153 48.2278C154.553 52.9671 154.02 57.7391 152.584 62.2713C151.149 66.8036 148.839 71.0072 145.787 74.6424Z" fill="#3F3D56"/>
<path opacity="0.3" d="M95.0028 78.9664C88.0892 73.103 83.6225 64.841 82.4896 55.821C81.3566 46.801 83.6404 37.6827 88.8874 30.2766C88.1983 30.974 87.5322 31.7044 86.889 32.4678C83.8369 36.1029 81.5272 40.3066 80.0917 44.8388C78.6562 49.371 78.1229 54.143 78.5224 58.8824C78.922 63.6217 80.2464 68.2355 82.4201 72.4604C84.5939 76.6853 87.5743 80.4386 91.1914 83.5059C94.8084 86.5732 98.9911 88.8945 103.501 90.3372C108.01 91.7799 112.759 92.3158 117.474 91.9143C122.19 91.5128 126.781 90.1817 130.985 87.9971C135.189 85.8125 138.923 82.8171 141.975 79.182C142.617 78.4176 143.221 77.6348 143.788 76.8336C137.407 83.2776 128.848 87.074 119.81 87.4691C110.772 87.8642 101.917 84.8291 95.0028 78.9664Z" fill="black"/>
<path d="M194.266 116.197C194.774 116.322 195.304 116.334 195.818 116.231C196.331 116.128 196.816 115.913 197.238 115.601C197.66 115.289 198.009 114.888 198.26 114.426C198.511 113.964 198.659 113.453 198.692 112.928L210.959 109.506L205.972 105.136L195.088 109.056C194.206 109.058 193.356 109.386 192.698 109.976C192.041 110.567 191.622 111.379 191.52 112.26C191.419 113.14 191.642 114.027 192.148 114.753C192.654 115.478 193.408 115.993 194.266 116.197Z" fill="#FFB8B8"/>
<path d="M199.364 114.386L198.618 107.259L208.865 101.577L202.184 93.4495L203.274 84.3196L205.989 83.1504L206.073 83.2595C207.353 84.9137 218.58 99.4719 218.58 101.272C218.58 103.12 216.432 108.548 213.494 110.025C210.659 111.449 200.016 114.217 199.564 114.334L199.364 114.386Z" fill="#2F2E41"/>
</g>
<defs>
<clipPath id="clip0_598_751">
<rect width="229" height="200" fill="white" transform="translate(0.5)"/>
</clipPath>
</defs>
</svg>
