<svg width="286" height="200" viewBox="0 0 286 200" fill="none" xmlns="http://www.w3.org/2000/svg">
<g clip-path="url(#clip0_598_838)">
<path d="M110.14 190.255C109.892 190.267 109.646 190.201 109.435 190.068C109.225 189.935 109.061 189.74 108.965 189.51C108.869 189.28 108.846 189.025 108.899 188.782C108.952 188.538 109.078 188.317 109.261 188.147L109.344 187.816C109.333 187.79 109.322 187.763 109.311 187.737C109.061 187.144 108.641 186.638 108.105 186.284C107.57 185.929 106.941 185.741 106.299 185.744C105.657 185.746 105.03 185.939 104.497 186.297C103.964 186.656 103.548 187.164 103.302 187.759C102.319 190.132 101.068 192.509 100.76 195.019C100.624 196.128 100.682 197.252 100.929 198.342C98.6208 193.293 97.4222 187.806 97.4145 182.252C97.414 180.859 97.4912 179.466 97.6458 178.081C97.7736 176.946 97.9508 175.819 98.1775 174.699C99.4147 168.626 102.071 162.934 105.928 158.091C107.795 157.069 109.305 155.499 110.254 153.591C110.598 152.905 110.841 152.173 110.976 151.417C110.765 151.445 110.182 148.229 110.341 148.031C110.047 147.585 109.522 147.363 109.201 146.927C107.607 144.76 105.411 145.139 104.264 148.083C101.815 149.323 101.791 151.378 103.294 153.355C104.25 154.613 104.382 156.315 105.221 157.661C105.134 157.772 105.044 157.88 104.958 157.99C103.38 160.025 102.005 162.209 100.852 164.512C101.133 161.932 100.798 159.322 99.8761 156.897C98.9417 154.636 97.1901 152.733 95.6477 150.779C93.795 148.432 89.9959 149.456 89.6695 152.431C89.6663 152.46 89.6632 152.489 89.6602 152.518C89.8893 152.647 90.1136 152.785 90.333 152.93C90.6087 153.115 90.8223 153.379 90.9458 153.687C91.0694 153.996 91.0971 154.334 91.0254 154.659C90.9537 154.983 90.7859 155.279 90.544 155.506C90.302 155.733 89.9973 155.882 89.6696 155.932L89.6361 155.938C89.7177 156.766 89.862 157.586 90.0676 158.392C88.0889 166.064 92.3609 168.859 98.4606 168.984C98.5953 169.054 98.7265 169.123 98.8611 169.189C97.7029 172.48 96.9764 175.907 96.6999 179.386C96.5433 181.439 96.5525 183.5 96.7275 185.551L96.7171 185.479C96.2752 183.198 95.0618 181.14 93.2819 179.653C90.6383 177.476 86.9034 176.674 84.0514 174.924C83.7483 174.728 83.3959 174.624 83.0357 174.623C82.6755 174.623 82.3226 174.725 82.0185 174.919C81.7145 175.112 81.472 175.389 81.3197 175.716C81.1674 176.044 81.1116 176.408 81.1589 176.766C81.1628 176.791 81.1667 176.817 81.1706 176.842C81.5958 177.016 82.0097 177.216 82.41 177.441C82.6391 177.571 82.8634 177.708 83.0828 177.854C83.3585 178.038 83.5721 178.302 83.6956 178.61C83.8192 178.919 83.8469 179.258 83.7752 179.582C83.7035 179.907 83.5357 180.202 83.2937 180.429C83.0518 180.656 82.7471 180.805 82.4194 180.856L82.3859 180.861C82.3617 180.864 82.341 180.868 82.3168 180.871C83.0433 182.61 84.0628 184.211 85.3308 185.603C86.5681 192.301 91.8821 192.936 97.5664 190.986H97.5699C98.1935 193.703 99.0972 196.348 100.266 198.878H109.899C109.933 198.771 109.964 198.66 109.995 198.553C109.104 198.609 108.209 198.556 107.33 198.394C108.045 197.514 108.759 196.628 109.474 195.749C109.49 195.733 109.505 195.715 109.519 195.697C109.881 195.247 110.247 194.801 110.61 194.351L110.61 194.35C110.629 192.971 110.472 191.595 110.14 190.256L110.14 190.255Z" fill="#F2F2F2"/>
<path d="M227.107 101.17H7.3608C5.40281 101.168 3.52567 100.387 2.14116 98.9985C0.756658 97.6104 -0.0221521 95.7283 -0.0244141 93.7651V7.40463C-0.0221521 5.4415 0.756658 3.55942 2.14116 2.17127C3.52567 0.783127 5.40281 0.00226794 7.3608 0H227.107C229.065 0.00226794 230.942 0.783127 232.326 2.17127C233.711 3.55942 234.49 5.4415 234.492 7.40463V93.7652C234.49 95.7283 233.711 97.6104 232.326 98.9985C230.942 100.387 229.065 101.168 227.107 101.17Z" fill="#F2F2F2"/>
<path d="M175.858 96.4472H42.2427C32.2859 96.4359 22.7401 92.4652 15.6996 85.4061C8.65904 78.3471 4.69873 68.7762 4.6875 58.7932V42.3805C4.69872 32.3975 8.65902 22.8266 15.6995 15.7675C22.7401 8.70842 32.2858 4.73764 42.2427 4.72632H192.227C202.184 4.73764 211.73 8.70841 218.77 15.7675C225.811 22.8266 229.771 32.3975 229.782 42.3805C229.766 56.7149 224.08 70.4576 213.97 80.5935C203.861 90.7294 190.154 96.4309 175.858 96.4472Z" fill="white"/>
<path d="M141.39 29.4485H53.0687C52.5636 29.4485 52.0791 29.2473 51.7219 28.8891C51.3647 28.531 51.1641 28.0453 51.1641 27.5388C51.1641 27.0323 51.3647 26.5466 51.7219 26.1885C52.0791 25.8303 52.5636 25.6292 53.0687 25.6292H141.39C141.895 25.6292 142.379 25.8303 142.737 26.1885C143.094 26.5466 143.294 27.0323 143.294 27.5388C143.294 28.0453 143.094 28.531 142.737 28.8891C142.379 29.2473 141.895 29.4485 141.39 29.4485Z" fill="#E6E6E6"/>
<path d="M186.099 49.8232H53.0687C52.5636 49.8232 52.0791 49.622 51.7219 49.2639C51.3647 48.9058 51.1641 48.42 51.1641 47.9136C51.1641 47.4071 51.3647 46.9214 51.7219 46.5632C52.0791 46.2051 52.5636 46.0039 53.0687 46.0039H186.099C186.605 46.0039 187.089 46.2051 187.446 46.5632C187.803 46.9214 188.004 47.4071 188.004 47.9136C188.004 48.42 187.803 48.9058 187.446 49.2639C187.089 49.622 186.605 49.8232 186.099 49.8232Z" fill="#E6E6E6"/>
<path d="M186.099 70.1982H53.0687C52.5636 70.1982 52.0791 69.997 51.7219 69.6389C51.3647 69.2808 51.1641 68.795 51.1641 68.2886C51.1641 67.7821 51.3647 67.2964 51.7219 66.9382C52.0791 66.5801 52.5636 66.3789 53.0687 66.3789H186.099C186.605 66.3789 187.089 66.5801 187.446 66.9382C187.803 67.2964 188.004 67.7821 188.004 68.2886C188.004 68.795 187.803 69.2808 187.446 69.6389C187.089 69.997 186.605 70.1982 186.099 70.1982Z" fill="#E6E6E6"/>
<path d="M186.099 70.1982H53.0687C52.5636 70.1982 52.0791 69.997 51.7219 69.6389C51.3647 69.2808 51.1641 68.795 51.1641 68.2886C51.1641 67.7821 51.3647 67.2964 51.7219 66.9382C52.0791 66.5801 52.5636 66.3789 53.0687 66.3789H186.099C186.605 66.3789 187.089 66.5801 187.446 66.9382C187.803 67.2964 188.004 67.7821 188.004 68.2886C188.004 68.795 187.803 69.2808 187.446 69.6389C187.089 69.997 186.605 70.1982 186.099 70.1982Z" fill="#E6E6E6"/>
<path d="M173.223 35.1518C174.441 28.4967 177.288 22.6699 182.292 17.9404C182.476 17.5923 182.79 17.3315 183.166 17.2153C183.541 17.0991 183.947 17.137 184.295 17.3207L197.259 24.1881C197.607 24.3726 197.867 24.6876 197.983 25.064C198.098 25.4405 198.061 25.8477 197.878 26.1963L188.808 43.4076C188.624 43.7558 188.31 44.0165 187.934 44.1327C187.559 44.2489 187.153 44.211 186.805 44.0274L173.841 37.1599C173.494 36.9755 173.234 36.6605 173.118 36.284C173.002 35.9075 173.04 35.5004 173.223 35.1518Z" fill="#E6E6E6"/>
<path d="M176.957 30.4802C177.117 27.0063 179.644 23.2478 182.787 19.4151C182.96 19.0891 183.254 18.8448 183.606 18.736C183.957 18.6272 184.338 18.6627 184.663 18.8347L195.805 24.7367C196.13 24.9095 196.374 25.2045 196.482 25.557C196.591 25.9096 196.555 26.291 196.384 26.6174L188.313 41.9332C188.141 42.2593 187.847 42.5035 187.495 42.6123C187.143 42.7211 186.763 42.6856 186.438 42.5136L179.535 38.8574C178.087 38.088 177.002 36.7739 176.518 35.2034C176.035 33.6329 176.193 31.9343 176.957 30.4802Z" fill="white"/>
<path d="M190.04 32.6966L181.34 28.1188C181.202 28.0456 181.099 27.9206 181.053 27.7712C181.007 27.6219 181.021 27.4603 181.094 27.3218C181.166 27.1834 181.291 27.0793 181.439 27.0325C181.588 26.9857 181.749 26.9999 181.888 27.072L190.588 31.6499C190.726 31.7231 190.829 31.848 190.875 31.9974C190.921 32.1468 190.907 32.3084 190.834 32.4468C190.762 32.5853 190.637 32.6893 190.489 32.7361C190.34 32.7829 190.179 32.7687 190.04 32.6966Z" fill="#7EB256"/>
<path d="M184.756 26.2555L182.842 25.2484C182.773 25.2125 182.712 25.1633 182.662 25.1037C182.612 25.0441 182.575 24.9751 182.551 24.9009C182.528 24.8267 182.52 24.7485 182.527 24.671C182.534 24.5935 182.556 24.5181 182.592 24.4492C182.628 24.3803 182.677 24.3192 182.737 24.2695C182.797 24.2197 182.865 24.1822 182.94 24.1592C183.014 24.1362 183.092 24.1281 183.169 24.1354C183.246 24.1427 183.321 24.1652 183.39 24.2016L185.304 25.2087C185.442 25.2819 185.545 25.4069 185.591 25.5563C185.637 25.7056 185.623 25.8672 185.55 26.0057C185.478 26.1441 185.353 26.2482 185.205 26.295C185.056 26.3418 184.895 26.3276 184.756 26.2555Z" fill="#7EB256"/>
<path d="M187.632 37.2984L178.931 32.7206C178.793 32.6475 178.69 32.5225 178.644 32.3731C178.597 32.2236 178.612 32.0619 178.685 31.9234C178.757 31.7848 178.882 31.6808 179.03 31.634C179.179 31.5872 179.341 31.6015 179.479 31.6738L188.179 36.2517C188.317 36.3249 188.42 36.4498 188.467 36.5992C188.513 36.7486 188.498 36.9102 188.425 37.0486C188.353 37.1871 188.229 37.2911 188.08 37.3379C187.931 37.3847 187.77 37.3706 187.632 37.2984Z" fill="#7EB256"/>
<path d="M188.836 34.9976L180.136 30.4198C180.067 30.3839 180.006 30.3347 179.956 30.2751C179.906 30.2154 179.869 30.1465 179.845 30.0723C179.822 29.998 179.814 29.9199 179.821 29.8424C179.828 29.7649 179.85 29.6895 179.886 29.6206C179.922 29.5517 179.971 29.4906 180.031 29.4409C180.091 29.3911 180.159 29.3536 180.234 29.3306C180.308 29.3076 180.386 29.2995 180.463 29.3068C180.54 29.3141 180.615 29.3365 180.684 29.373L189.384 33.9508C189.522 34.024 189.625 34.149 189.671 34.2984C189.718 34.4478 189.703 34.6094 189.63 34.7478C189.558 34.8863 189.434 34.9903 189.285 35.0371C189.136 35.0839 188.975 35.0697 188.836 34.9976Z" fill="#7EB256"/>
<path d="M266.971 151.95H262.471C262.258 151.95 262.048 151.992 261.851 152.074C261.654 152.155 261.476 152.275 261.325 152.426C261.175 152.577 261.055 152.756 260.974 152.953C260.892 153.15 260.851 153.361 260.851 153.575C260.851 154.006 260.68 154.419 260.376 154.724C260.072 155.028 259.66 155.199 259.23 155.199H244.227C244.014 155.199 243.803 155.157 243.607 155.076C243.41 154.994 243.231 154.874 243.081 154.724C242.93 154.573 242.811 154.394 242.73 154.196C242.648 153.999 242.606 153.788 242.606 153.575L242.31 151.928L242.329 151.95L242.31 151.928L239.59 148.451C239.501 148.336 239.386 148.242 239.255 148.178C239.124 148.115 238.98 148.082 238.834 148.083H233.734C233.479 148.084 233.235 148.185 233.055 148.366C232.875 148.546 232.774 148.791 232.774 149.046L232.668 151.928H230.74C230.335 151.928 229.934 152.008 229.56 152.163C229.186 152.318 228.846 152.546 228.559 152.833C228.273 153.12 228.046 153.461 227.891 153.836C227.736 154.211 227.656 154.614 227.656 155.02V175.157C227.656 175.518 227.727 175.875 227.865 176.207C228.002 176.54 228.204 176.843 228.458 177.098C228.712 177.352 229.014 177.555 229.346 177.692C229.678 177.83 230.034 177.901 230.393 177.901H266.971C267.697 177.9 268.392 177.611 268.905 177.097C269.418 176.582 269.707 175.885 269.707 175.157V154.693C269.707 154.333 269.636 153.976 269.499 153.643C269.361 153.311 269.16 153.008 268.906 152.753C268.652 152.499 268.35 152.297 268.018 152.159C267.686 152.021 267.331 151.95 266.971 151.95Z" fill="#F2F2F2"/>
<path d="M242.311 151.853H232.773V148.972C232.774 148.717 232.875 148.472 233.055 148.291C233.235 148.111 233.479 148.009 233.734 148.009H238.834C238.98 148.008 239.124 148.04 239.255 148.104C239.386 148.168 239.501 148.261 239.59 148.377L242.311 151.853Z" fill="#E6E6E6"/>
<path d="M247.194 175.685H231.269C230.764 175.685 230.281 175.484 229.925 175.126C229.568 174.769 229.368 174.284 229.367 173.779V169.412C229.368 168.907 229.568 168.422 229.925 168.065C230.281 167.707 230.764 167.506 231.269 167.506H250.382C250.887 167.506 251.37 167.707 251.726 168.065C252.083 168.422 252.283 168.907 252.284 169.412V170.582C252.282 171.935 251.746 173.232 250.791 174.189C249.837 175.146 248.543 175.684 247.194 175.685Z" fill="white"/>
<path d="M235.853 170.8H231.922C231.666 170.8 231.421 170.698 231.24 170.517C231.06 170.335 230.958 170.089 230.958 169.833C230.958 169.577 231.06 169.331 231.24 169.15C231.421 168.968 231.666 168.866 231.922 168.866H235.853C236.109 168.866 236.354 168.968 236.535 169.15C236.715 169.331 236.817 169.577 236.817 169.833C236.817 170.089 236.715 170.335 236.535 170.517C236.354 170.698 236.109 170.8 235.853 170.8Z" fill="#F2F2F2"/>
<path d="M249.202 173.849H231.922C231.795 173.849 231.67 173.824 231.553 173.776C231.435 173.727 231.329 173.656 231.239 173.566C231.149 173.476 231.078 173.37 231.03 173.252C230.981 173.135 230.956 173.009 230.956 172.882C230.956 172.755 230.981 172.629 231.03 172.512C231.078 172.394 231.149 172.287 231.239 172.198C231.329 172.108 231.435 172.037 231.553 171.988C231.67 171.94 231.795 171.915 231.922 171.915H249.202C249.458 171.915 249.703 172.017 249.884 172.198C250.065 172.38 250.167 172.626 250.167 172.882C250.167 173.138 250.065 173.384 249.884 173.566C249.703 173.747 249.458 173.849 249.202 173.849H249.202Z" fill="#F2F2F2"/>
<path d="M282.958 174.044H278.457C278.245 174.044 278.034 174.086 277.837 174.168C277.641 174.25 277.462 174.369 277.311 174.52C277.161 174.671 277.042 174.85 276.96 175.047C276.879 175.245 276.837 175.456 276.837 175.669C276.837 176.1 276.666 176.513 276.362 176.818C276.058 177.123 275.646 177.294 275.216 177.294H260.213C260 177.294 259.79 177.252 259.593 177.17C259.396 177.089 259.218 176.969 259.067 176.818C258.917 176.667 258.797 176.488 258.716 176.291C258.634 176.094 258.593 175.883 258.593 175.669L258.296 174.022L258.315 174.044L258.296 174.022L255.576 170.546C255.487 170.43 255.373 170.337 255.242 170.273C255.11 170.209 254.966 170.176 254.821 170.178H249.72C249.466 170.178 249.222 170.28 249.042 170.46C248.861 170.641 248.76 170.885 248.76 171.141L248.655 174.022H246.726C246.321 174.022 245.92 174.102 245.546 174.258C245.172 174.413 244.832 174.641 244.546 174.928C244.259 175.215 244.032 175.556 243.877 175.931C243.722 176.306 243.643 176.708 243.643 177.114V197.252C243.643 197.612 243.713 197.969 243.851 198.302C243.988 198.635 244.19 198.937 244.444 199.192C244.698 199.447 245 199.649 245.332 199.787C245.664 199.925 246.02 199.996 246.379 199.996H282.958C283.683 199.995 284.379 199.705 284.891 199.191C285.404 198.677 285.693 197.979 285.694 197.252V176.788C285.694 176.427 285.623 176.071 285.485 175.738C285.348 175.405 285.146 175.103 284.892 174.848C284.638 174.593 284.337 174.391 284.005 174.253C283.673 174.115 283.317 174.044 282.958 174.044Z" fill="#F2F2F2"/>
<path d="M258.297 173.948H248.76V171.066C248.76 170.811 248.861 170.566 249.041 170.386C249.221 170.205 249.466 170.104 249.72 170.103H254.82C254.966 170.102 255.11 170.135 255.241 170.198C255.373 170.262 255.487 170.356 255.576 170.471L258.297 173.948Z" fill="#E6E6E6"/>
<path d="M263.181 197.78H247.256C246.752 197.779 246.268 197.578 245.912 197.221C245.556 196.863 245.355 196.379 245.354 195.873V191.507C245.355 191.001 245.556 190.517 245.912 190.159C246.268 189.802 246.752 189.601 247.256 189.6H266.37C266.874 189.601 267.357 189.802 267.714 190.159C268.07 190.517 268.271 191.001 268.271 191.507V192.676C268.27 194.029 267.733 195.327 266.779 196.283C265.824 197.24 264.531 197.778 263.181 197.78Z" fill="white"/>
<path d="M251.84 192.894H247.909C247.654 192.894 247.408 192.792 247.228 192.611C247.047 192.43 246.945 192.184 246.945 191.928C246.945 191.671 247.047 191.425 247.228 191.244C247.408 191.063 247.654 190.961 247.909 190.961H251.84C252.096 190.961 252.341 191.063 252.522 191.244C252.703 191.425 252.804 191.671 252.804 191.928C252.804 192.184 252.703 192.43 252.522 192.611C252.341 192.792 252.096 192.894 251.84 192.894Z" fill="#F2F2F2"/>
<path d="M265.19 195.943H247.91C247.783 195.943 247.657 195.918 247.54 195.87C247.423 195.821 247.316 195.75 247.226 195.66C247.137 195.571 247.066 195.464 247.017 195.347C246.968 195.229 246.943 195.103 246.943 194.976C246.943 194.849 246.968 194.723 247.017 194.606C247.066 194.488 247.137 194.382 247.226 194.292C247.316 194.202 247.423 194.131 247.54 194.083C247.657 194.034 247.783 194.009 247.91 194.01H265.19C265.445 194.01 265.691 194.111 265.871 194.293C266.052 194.474 266.154 194.72 266.154 194.976C266.154 195.233 266.052 195.478 265.871 195.66C265.691 195.841 265.445 195.943 265.19 195.943H265.19Z" fill="#F2F2F2"/>
<path d="M211.468 192.413L207.752 192.413L205.984 178.042H211.469L211.468 192.413Z" fill="#FFB6B6"/>
<path d="M200.252 197.91C200.254 198.328 200.42 198.727 200.714 199.023C201.008 199.318 201.406 199.485 201.823 199.488H208.818L209.035 199.038L210.024 196.991L210.407 199.038L210.492 199.488H213.13L213.093 199.035L212.389 190.575L211.469 190.519L207.492 190.282L206.515 190.223V192.748C205.774 193.539 199.957 196.528 200.252 197.91Z" fill="#2F2E41"/>
<path d="M272.992 163.638L271.195 166.899L257.793 161.506L260.444 156.692L272.992 163.638Z" fill="#FFB6B6"/>
<path d="M272.371 176.139C272.737 176.339 273.166 176.387 273.566 176.272C273.966 176.156 274.305 175.887 274.508 175.523L277.889 169.383L277.6 168.975L276.291 167.117L278.263 167.77L278.698 167.913L279.973 165.597L279.559 165.411L271.832 161.941L271.338 162.721L269.21 166.098L268.686 166.926L270.891 168.147C271.223 169.18 271.021 175.73 272.371 176.139Z" fill="#2F2E41"/>
<path d="M217.686 97.6982L231.726 103.676C231.726 103.676 236.218 113.291 233.112 114.669V140.089L265.182 158.698L255.515 174.887C255.515 174.887 243.108 171.674 243.237 168.74C243.367 165.807 244.797 164.646 240.537 164.27C236.277 163.893 233.864 164.207 233.98 161.589C234.095 158.971 218.934 145.359 218.934 145.359L217.686 97.6982Z" fill="#2F2E41"/>
<path d="M221.05 102.579L217.49 98.5684C217.49 98.5684 209.494 111.732 209.524 114.436C209.554 117.14 202.737 131.084 202.737 131.084L194.283 180.844C194.283 180.844 210.588 184.73 211.843 184.837C213.099 184.945 215.216 185.608 213.885 183.089C212.553 180.57 213.885 180.57 213.885 180.57L214.703 142.259L221.05 115.909V102.579Z" fill="#2F2E41"/>
<path d="M219.182 64.0316L226 62.3911L229.942 67.2392C231.741 68.9364 233.082 71.0626 233.841 73.4197C234.6 75.7768 234.751 78.2882 234.281 80.7197L230.635 99.5744C230.635 99.5744 237.18 105.589 236.362 108.87C235.035 114.191 220.402 109.492 217.883 109.865C215.365 110.237 212.092 106.151 211.547 103.82C211.002 101.488 213.226 95.8924 214.001 96.0201C214.776 96.1479 211.863 84.4445 211.863 84.4445C211.863 84.4445 212.092 76.6083 214.819 74.421C216.492 73.0555 217.853 71.3466 218.811 69.4093L219.182 64.0316Z" fill="#7EB256"/>
<path d="M189.584 34.47C189.589 34.9297 189.694 35.3827 189.891 35.7977C190.088 36.2128 190.373 36.58 190.725 36.8739C191.078 37.1678 191.49 37.3814 191.933 37.5C192.376 37.6186 192.839 37.6393 193.291 37.5606L201.872 50.8355L206.118 49.3585L195.811 33.6664C195.622 32.9139 195.165 32.2569 194.526 31.8199C193.886 31.3828 193.109 31.1962 192.341 31.2952C191.574 31.3943 190.869 31.7722 190.361 32.3573C189.853 32.9425 189.576 33.6942 189.584 34.47H189.584Z" fill="#FFB6B6"/>
<path d="M223.996 80.7478C223.996 80.7478 227.228 73.8103 224.77 70.7269C222.312 67.6434 220.515 64.5089 219.14 63.6598C217.764 62.8108 212.282 52.9792 210.9 52.6856C209.518 52.392 210.592 50.7981 208.663 49.9427C206.733 49.0873 206.179 49.0809 206.186 48.5255C206.192 47.9701 201.481 41.3008 201.481 41.3008L196.639 44.3145L208.468 68.5774L223.996 80.7478Z" fill="#7EB256"/>
<path d="M193.466 145.669C187.271 137.408 183.691 128.169 183.573 117.636C183.374 117.069 183.407 116.445 183.665 115.902C183.924 115.358 184.387 114.94 184.953 114.739L206.068 107.248C206.634 107.048 207.257 107.081 207.798 107.34C208.34 107.6 208.757 108.064 208.958 108.631L218.851 136.664C219.05 137.232 219.017 137.855 218.759 138.399C218.5 138.942 218.037 139.36 217.472 139.561L196.356 147.052C195.79 147.252 195.168 147.219 194.626 146.96C194.084 146.701 193.667 146.237 193.466 145.669Z" fill="#E6E6E6"/>
<path d="M192.098 136.628C188.372 132.851 186.777 126.114 185.738 118.605C185.551 118.074 185.582 117.49 185.824 116.981C186.066 116.472 186.5 116.081 187.03 115.892L205.177 109.454C205.707 109.267 206.29 109.298 206.797 109.541C207.305 109.783 207.695 110.218 207.883 110.749L216.687 135.695C216.874 136.227 216.842 136.811 216.6 137.319C216.358 137.828 215.925 138.22 215.395 138.408L204.153 142.397C201.791 143.231 199.196 143.093 196.936 142.011C194.676 140.93 192.936 138.994 192.098 136.628Z" fill="white"/>
<path d="M208.127 124.187L193.99 129.247C193.765 129.327 193.518 129.315 193.302 129.212C193.086 129.11 192.92 128.925 192.84 128.7C192.759 128.474 192.772 128.226 192.874 128.01C192.976 127.793 193.16 127.626 193.385 127.546L207.521 122.487C207.633 122.447 207.751 122.429 207.869 122.435C207.987 122.441 208.103 122.47 208.21 122.521C208.316 122.572 208.412 122.643 208.492 122.731C208.571 122.819 208.632 122.922 208.672 123.033C208.712 123.145 208.729 123.264 208.723 123.382C208.717 123.5 208.688 123.617 208.638 123.724C208.587 123.831 208.516 123.927 208.428 124.007C208.34 124.086 208.238 124.148 208.127 124.187Z" fill="#7EB256"/>
<path d="M195.439 123.47L192.329 124.583C192.105 124.663 191.857 124.65 191.642 124.548C191.427 124.445 191.261 124.261 191.18 124.036C191.1 123.81 191.112 123.562 191.214 123.346C191.316 123.13 191.499 122.963 191.724 122.882L194.834 121.769C195.059 121.689 195.306 121.702 195.521 121.805C195.737 121.907 195.903 122.091 195.983 122.317C196.063 122.542 196.051 122.79 195.949 123.006C195.847 123.222 195.664 123.389 195.439 123.47Z" fill="#7EB256"/>
<path d="M210.789 131.665L196.653 136.724C196.541 136.764 196.423 136.781 196.305 136.775C196.187 136.769 196.071 136.74 195.964 136.689C195.857 136.639 195.761 136.567 195.682 136.479C195.603 136.391 195.541 136.289 195.502 136.177C195.462 136.065 195.444 135.947 195.45 135.829C195.456 135.71 195.485 135.594 195.536 135.487C195.587 135.38 195.658 135.284 195.745 135.204C195.833 135.124 195.936 135.063 196.047 135.023L210.183 129.964C210.295 129.924 210.413 129.907 210.531 129.912C210.649 129.918 210.765 129.948 210.872 129.998C210.978 130.049 211.074 130.121 211.154 130.208C211.233 130.296 211.294 130.399 211.334 130.511C211.374 130.622 211.391 130.741 211.385 130.859C211.38 130.978 211.35 131.094 211.3 131.201C211.249 131.308 211.178 131.404 211.09 131.484C211.003 131.563 210.9 131.625 210.789 131.665Z" fill="#7EB256"/>
<path d="M209.457 127.926L195.321 132.985C195.209 133.025 195.091 133.042 194.973 133.037C194.855 133.031 194.739 133.001 194.632 132.951C194.525 132.9 194.429 132.829 194.35 132.741C194.271 132.653 194.209 132.55 194.17 132.438C194.13 132.327 194.112 132.208 194.118 132.09C194.124 131.971 194.153 131.855 194.204 131.748C194.255 131.641 194.326 131.545 194.413 131.465C194.501 131.386 194.604 131.324 194.715 131.284L208.851 126.225C209.076 126.145 209.324 126.157 209.54 126.26C209.755 126.362 209.922 126.546 210.002 126.772C210.082 126.998 210.07 127.246 209.968 127.462C209.865 127.679 209.682 127.845 209.457 127.926Z" fill="#7EB256"/>
<path d="M220.009 61.5593C224.051 61.5593 227.328 58.2737 227.328 54.2208C227.328 50.1679 224.051 46.8823 220.009 46.8823C215.966 46.8823 212.689 50.1679 212.689 54.2208C212.689 58.2737 215.966 61.5593 220.009 61.5593Z" fill="#FFB6B6"/>
<path d="M212.313 53.2631C212.702 53.5228 213.165 53.6468 213.631 53.616C213.739 53.0543 213.756 52.479 213.682 51.9118C213.96 52.4208 214.168 52.9645 214.303 53.5286C215.605 53.2437 215.547 52.8556 216.888 53.0587C217.256 53.1365 217.605 53.2896 217.912 53.5083C218.219 53.727 218.477 54.0067 218.672 54.3299C218.866 54.6532 218.992 55.0131 219.042 55.3873C219.092 55.7615 219.064 56.142 218.961 56.505C219.245 55.8813 220.425 56.1648 220.624 56.8785C220.832 57.6297 220.375 58.3888 219.937 59.0335C218.376 61.3378 222.415 65.5854 220.853 67.8897L220.636 68.1502C222.001 67.4377 223.293 66.5915 224.493 65.6241C224.288 64.7138 224.252 63.7734 224.388 62.8501C224.558 63.6107 224.973 64.2938 225.569 64.7934C229.989 61.319 235.305 56.3171 234.327 55.1032L231.353 49.8457C228.226 44.3228 220.686 42.1042 216.014 46.3927C215.892 46.507 215.616 46.4312 215.493 46.5516C214.15 46.9003 212.432 47.532 211.556 48.6077C210.682 49.6851 211.166 52.4865 212.313 53.2631Z" fill="#2F2E41"/>
<path d="M218.038 110.093C212.084 106.909 207.41 102.421 204.435 96.2047C204.16 95.9233 204.007 95.544 204.011 95.15C204.014 94.756 204.174 94.3796 204.454 94.1032L214.915 83.8023C215.195 83.5266 215.574 83.3737 215.967 83.3773C216.36 83.3808 216.735 83.5405 217.011 83.8213L230.615 97.7095C230.89 97.9909 231.042 98.3702 231.038 98.7641C231.035 99.1581 230.876 99.5346 230.596 99.811L220.134 110.112C219.854 110.388 219.476 110.54 219.083 110.537C218.69 110.533 218.314 110.374 218.038 110.093Z" fill="#E6E6E6"/>
<path d="M214.733 105.108C211.48 103.9 208.675 100.346 205.987 96.1795C205.729 95.9159 205.587 95.5607 205.59 95.1917C205.593 94.8228 205.742 94.4702 206.005 94.2113L214.995 85.3586C215.258 85.1004 215.612 84.9572 215.98 84.9605C216.348 84.9638 216.7 85.1134 216.958 85.3763L229.064 97.7349C229.321 97.9985 229.464 98.3537 229.461 98.7227C229.457 99.0917 229.308 99.4443 229.046 99.7031L223.476 105.187C222.306 106.338 220.727 106.975 219.088 106.96C217.449 106.946 215.883 106.279 214.733 105.108Z" fill="white"/>
<path d="M220.81 93.2819L213.818 100.204C213.763 100.259 213.698 100.302 213.626 100.331C213.555 100.36 213.478 100.375 213.4 100.375C213.323 100.374 213.246 100.359 213.175 100.328C213.104 100.298 213.039 100.254 212.985 100.199C212.93 100.144 212.887 100.078 212.858 100.006C212.829 99.9346 212.814 99.8576 212.814 99.7799C212.815 99.7023 212.831 99.6255 212.861 99.554C212.891 99.4825 212.935 99.4176 212.99 99.363L219.981 92.4407C220.036 92.3861 220.101 92.343 220.173 92.3137C220.245 92.2844 220.322 92.2696 220.399 92.27C220.476 92.2705 220.553 92.2863 220.624 92.3164C220.696 92.3466 220.761 92.3905 220.815 92.4458C220.869 92.501 220.912 92.5665 220.942 92.6384C220.971 92.7103 220.986 92.7873 220.985 92.8649C220.985 92.9426 220.969 93.0194 220.939 93.0909C220.909 93.1624 220.865 93.2273 220.81 93.2819Z" fill="#7EB256"/>
<path d="M213.085 96.3747L211.547 97.8976C211.436 98.0077 211.285 98.0691 211.129 98.0681C210.972 98.0671 210.823 98.0039 210.713 97.8923C210.603 97.7808 210.542 97.6301 210.543 97.4733C210.544 97.3165 210.607 97.1666 210.718 97.0564L212.256 95.5335C212.311 95.4788 212.377 95.4355 212.448 95.406C212.52 95.3766 212.597 95.3617 212.675 95.3621C212.752 95.3625 212.829 95.3782 212.9 95.4083C212.972 95.4385 213.037 95.4825 213.091 95.5378C213.145 95.5931 213.189 95.6587 213.218 95.7307C213.247 95.8027 213.262 95.8798 213.261 95.9575C213.26 96.0353 213.245 96.1121 213.214 96.1837C213.184 96.2553 213.14 96.3202 213.085 96.3747Z" fill="#7EB256"/>
<path d="M224.452 96.9796L217.461 103.902C217.406 103.957 217.341 104 217.269 104.029C217.197 104.058 217.12 104.073 217.043 104.073C216.966 104.072 216.889 104.056 216.818 104.026C216.746 103.996 216.682 103.952 216.627 103.897C216.573 103.842 216.53 103.776 216.5 103.704C216.471 103.632 216.457 103.555 216.457 103.478C216.458 103.4 216.473 103.323 216.503 103.252C216.534 103.18 216.577 103.115 216.633 103.061L223.624 96.1385C223.679 96.0839 223.744 96.0407 223.816 96.0114C223.887 95.9822 223.964 95.9673 224.042 95.9678C224.119 95.9683 224.196 95.984 224.267 96.0142C224.338 96.0443 224.403 96.0883 224.458 96.1435C224.512 96.1988 224.555 96.2642 224.584 96.3362C224.613 96.4081 224.628 96.4851 224.628 96.5627C224.627 96.6403 224.611 96.7171 224.581 96.7887C224.551 96.8602 224.507 96.9251 224.452 96.9796Z" fill="#7EB256"/>
<path d="M222.631 95.1307L215.64 102.053C215.584 102.108 215.519 102.151 215.447 102.18C215.376 102.21 215.299 102.225 215.221 102.224C215.144 102.224 215.067 102.208 214.996 102.178C214.924 102.148 214.859 102.104 214.805 102.049C214.75 101.993 214.707 101.928 214.678 101.856C214.649 101.784 214.634 101.707 214.635 101.629C214.635 101.551 214.651 101.474 214.681 101.403C214.712 101.331 214.756 101.266 214.811 101.212L221.802 94.2895C221.913 94.1794 222.064 94.1181 222.22 94.1192C222.376 94.1202 222.526 94.1834 222.636 94.2949C222.746 94.4064 222.807 94.5571 222.806 94.7138C222.805 94.8705 222.742 95.0205 222.631 95.1306V95.1307Z" fill="#7EB256"/>
<path d="M207.643 124.477C207.556 124.025 207.568 123.561 207.678 123.114C207.789 122.668 207.994 122.251 208.28 121.892C208.567 121.534 208.928 121.241 209.338 121.036C209.748 120.831 210.198 120.718 210.656 120.704L216.408 105.973L220.863 106.567L213.904 124.012C213.87 124.787 213.553 125.523 213.014 126.08C212.475 126.636 211.751 126.975 210.979 127.033C210.208 127.09 209.442 126.861 208.827 126.39C208.212 125.919 207.791 125.238 207.643 124.477Z" fill="#FFB6B6"/>
<path d="M232.101 72.2202C232.101 72.2202 236.654 78.367 234.863 81.882C233.072 85.397 231.938 88.8291 230.761 89.9374C229.583 91.0458 226.178 101.78 224.884 102.345C223.589 102.911 224.959 104.256 223.24 105.482C221.521 106.708 220.98 106.826 221.097 107.369C221.214 107.912 217.933 115.393 217.933 115.393L212.586 113.414L223.972 73.7054L232.101 72.2202Z" fill="#7EB256"/>
<path d="M107.557 86.3765C104.166 80.5266 102.55 74.2439 103.285 67.3879C103.199 67.0035 103.268 66.6006 103.478 66.2675C103.688 65.9344 104.021 65.6984 104.404 65.6113L118.707 62.376C119.091 62.2897 119.493 62.3594 119.825 62.5699C120.157 62.7803 120.392 63.1143 120.479 63.4985L124.752 82.4871C124.838 82.8715 124.769 83.2745 124.559 83.6075C124.349 83.9406 124.016 84.1766 123.632 84.2637L109.329 87.4991C108.946 87.5853 108.544 87.5156 108.212 87.3052C107.88 87.0947 107.644 86.7607 107.557 86.3765Z" fill="#E6E6E6"/>
<path d="M107.365 80.3928C105.233 77.6492 104.715 73.1465 104.618 68.1852C104.537 67.8252 104.602 67.4478 104.799 67.1359C104.995 66.824 105.307 66.603 105.666 66.5214L117.958 63.7409C118.318 63.66 118.694 63.7254 119.005 63.9224C119.316 64.1195 119.537 64.4323 119.618 64.7922L123.42 81.6894C123.501 82.0495 123.436 82.4268 123.239 82.7388C123.042 83.0507 122.73 83.2717 122.372 83.3533L114.757 85.0758C113.157 85.4357 111.481 85.1448 110.095 84.2669C108.709 83.389 107.727 81.9957 107.365 80.3928Z" fill="white"/>
<path d="M112.146 71.0659C112.396 70.7762 112.734 70.5756 113.107 70.4939C113.481 70.4122 113.87 70.4539 114.218 70.6128C114.566 70.7981 114.845 71.0916 115.012 71.4491C115.179 71.8067 115.226 72.209 115.146 72.5957C115.011 73.4894 114.546 74.303 114.503 75.2181C114.465 75.619 114.535 76.0227 114.705 76.3873C114.876 76.752 115.14 77.0642 115.472 77.2916C115.979 77.6007 116.502 76.8354 115.992 76.5247C115.153 76.0135 115.435 74.8902 115.678 74.1239C115.982 73.1672 116.299 72.1918 115.923 71.2059C115.756 70.7931 115.489 70.4288 115.146 70.1463C114.803 69.8637 114.394 69.6719 113.958 69.5885C113.522 69.505 113.072 69.5325 112.649 69.6685C112.226 69.8046 111.844 70.0447 111.538 70.367C111.137 70.7999 111.74 71.5043 112.146 71.0659Z" fill="#7EB256"/>
<path d="M116.22 79.964C116.731 79.964 117.145 79.5488 117.145 79.0367C117.145 78.5245 116.731 78.1094 116.22 78.1094C115.709 78.1094 115.295 78.5245 115.295 79.0367C115.295 79.5488 115.709 79.964 116.22 79.964Z" fill="#7EB256"/>
<path d="M25.8045 45.9905C22.4135 40.1406 20.7972 33.8579 21.5318 27.0019C21.4458 26.6175 21.5154 26.2146 21.7253 25.8815C21.9352 25.5484 22.2683 25.3124 22.6515 25.2253L36.9544 21.99C37.3379 21.9037 37.7397 21.9734 38.0719 22.1839C38.4041 22.3943 38.6395 22.7283 38.7264 23.1125L42.9991 42.1011C43.0852 42.4855 43.0156 42.8885 42.8057 43.2216C42.5958 43.5546 42.2627 43.7906 41.8795 43.8778L27.5765 47.1131C27.1931 47.1994 26.7912 47.1297 26.459 46.9192C26.1268 46.7087 25.8915 46.3748 25.8045 45.9905Z" fill="#E6E6E6"/>
<path d="M25.6107 40.0071C23.4795 37.2634 22.9613 32.7608 22.8638 27.7995C22.7832 27.4395 22.8484 27.0621 23.0449 26.7502C23.2415 26.4382 23.5535 26.2172 23.9124 26.1356L36.2046 23.3551C36.5637 23.2743 36.9401 23.3396 37.2512 23.5367C37.5623 23.7338 37.7828 24.0466 37.8642 24.4064L41.6663 41.3037C41.7469 41.6637 41.6817 42.0411 41.4851 42.353C41.2885 42.665 40.9766 42.886 40.6177 42.9676L33.0029 44.69C31.4034 45.05 29.7269 44.759 28.341 43.8811C26.9552 43.0032 25.9733 41.61 25.6107 40.0071Z" fill="white"/>
<path d="M32.0345 41.2949C32.7504 41.2949 33.3308 40.713 33.3308 39.9952C33.3308 39.2774 32.7504 38.6956 32.0345 38.6956C31.3186 38.6956 30.7383 39.2774 30.7383 39.9952C30.7383 40.713 31.3186 41.2949 32.0345 41.2949Z" fill="#7EB256"/>
<path d="M33.5842 27.6515C33.0853 27.065 32.1724 27.1582 31.4172 27.3025C30.6324 27.4168 29.8664 27.6355 29.1393 27.9527C28.7762 28.1134 28.4484 28.3445 28.1748 28.6328C27.9013 28.9212 27.6873 29.2609 27.5454 29.6325C27.2437 30.5602 27.5722 31.5682 27.9663 32.4602C28.725 34.176 29.7321 35.7703 30.955 37.1913L31.5729 37.4783C32.5342 36.2504 33.2408 34.8421 33.651 33.3362C34.0612 31.8304 34.1667 30.2575 33.9615 28.7102C33.938 28.3286 33.8072 27.9616 33.5842 27.6515Z" fill="#7EB256"/>
</g>
<defs>
<clipPath id="clip0_598_838">
<rect width="286" height="200" fill="white"/>
</clipPath>
</defs>
</svg>
