<svg width="268" height="200" viewBox="0 0 268 200" fill="none" xmlns="http://www.w3.org/2000/svg">
<g clip-path="url(#clip0_598_784)">
<path d="M54.304 110.999C53.8466 110.828 53.4323 110.559 53.0903 110.211C52.7483 109.863 52.4869 109.445 52.3246 108.985C52.1622 108.525 52.1029 108.036 52.1506 107.551C52.1984 107.066 52.3522 106.597 52.6011 106.178L44.9348 97.1311L51.0606 96.4001L57.4015 105.103C58.0797 105.567 58.5637 106.263 58.762 107.059C58.9602 107.856 58.8588 108.697 58.477 109.424C58.0952 110.151 57.4595 110.713 56.6904 111.003C55.9213 111.293 55.0722 111.292 54.304 110.999Z" fill="#FFB6B6"/>
<path d="M22.7412 195.786L26.814 195.786L28.7519 180.108L22.7402 180.108L22.7412 195.786Z" fill="#FFB6B6"/>
<path d="M21.7019 194.459L22.8484 194.459L27.3243 192.643L29.7232 194.459H29.7236C31.0793 194.459 32.3794 194.996 33.3381 195.953C34.2967 196.91 34.8353 198.207 34.8354 199.56V199.726L21.7021 199.726L21.7019 194.459Z" fill="#2F2E41"/>
<path d="M38.5249 193.225L42.498 194.12L47.8486 179.253L41.9847 177.932L38.5249 193.225Z" fill="#FFB6B6"/>
<path d="M37.8047 191.702L38.923 191.954L43.69 191.166L45.6291 193.465L45.6294 193.465C46.9518 193.763 48.1014 194.573 48.8253 195.717C49.5492 196.861 49.7882 198.245 49.4897 199.565L49.4531 199.726L36.6423 196.84L37.8047 191.702Z" fill="#2F2E41"/>
<path d="M15.2844 115.141L18.9676 156.322C18.9676 156.322 17.5876 181.045 22.0407 189.745H28.499L31.6966 154.064L32.0982 130.115L45.944 150.32L37.1252 189.162L45.0738 189.871L59.3845 147.718L43.6624 108.147L15.2844 115.141Z" fill="#2F2E41"/>
<path d="M19.1422 49.56C24.3882 49.56 28.6409 45.316 28.6409 40.0808C28.6409 34.8455 24.3882 30.6016 19.1422 30.6016C13.8963 30.6016 9.64355 34.8455 9.64355 40.0808C9.64355 45.316 13.8963 49.56 19.1422 49.56Z" fill="#FFB8B8"/>
<path d="M39.0826 58.5932L28.0473 55.2565L26.6112 50.8494L14.7771 52.7663L12.2627 57.0687L4.12329 64.6216L13.6596 107.652L13.3709 117.05C13.3709 117.05 19.4744 119.792 45.9441 113.479C46.2616 113.403 45.5971 113.071 45.5971 113.071L39.0826 58.5932Z" fill="#3F3D56"/>
<path d="M49.5628 106.026L36.627 88.7392L32.9597 58.1023L33.0667 58.0508C34.0683 57.5696 35.174 57.3444 36.2844 57.3955C37.3948 57.4467 38.4751 57.7726 39.428 58.3438C40.3808 58.9151 41.1765 59.7138 41.7432 60.6681C42.31 61.6224 42.6301 62.7023 42.6747 63.8108L43.4372 82.7425L56.2847 99.6617L49.5628 106.026Z" fill="#3F3D56"/>
<path d="M9.26456 45.4594C9.19838 45.3693 9.13285 45.2784 9.06796 45.1868C9.04184 45.2418 9.02107 45.2987 8.99121 45.3524L9.26456 45.4594Z" fill="#2F2E41"/>
<path d="M28.5907 33.1472C27.9558 31.7668 26.8237 30.6754 25.4195 30.0898C24.0276 29.5295 22.4721 29.5309 21.0812 30.0936C19.8254 29.3018 18.4302 28.6741 16.9608 28.5964C15.4914 28.5186 13.9378 29.0627 13.0323 30.2602C12.8301 30.5763 12.6004 30.8741 12.3459 31.15C11.618 31.8227 10.5118 31.7257 9.54436 31.5881C9.9783 31.9593 10.4124 32.3304 10.8465 32.7016C10.3212 32.8385 9.79591 32.9755 9.27053 33.1124C9.88356 33.4835 10.4965 33.8545 11.1095 34.2255C9.3299 35.2914 8.52107 37.618 8.73471 39.731C8.93684 41.7315 9.90466 43.5609 11.0616 45.1868C11.5231 44.2149 11.4237 43.0519 11.4161 41.9572C11.4081 40.8006 11.6132 39.4872 12.5419 38.8408C13.1684 38.4047 13.974 38.3853 14.7294 38.3894C18.5402 38.4103 22.3466 38.6474 26.1303 39.0997C26.6438 39.1218 27.1444 39.2667 27.59 39.5221C28.4267 40.0918 28.5898 41.2674 28.6738 42.2988C29.1159 40.5958 29.3322 38.8424 29.3173 37.0833C29.3545 35.7349 29.107 34.3938 28.5907 33.1472Z" fill="#2F2E41"/>
<path d="M27.6566 148.215C35.9134 148.215 42.6069 141.536 42.6069 133.296C42.6069 125.056 35.9134 118.376 27.6566 118.376C19.3998 118.376 12.7063 125.056 12.7063 133.296C12.7063 141.536 19.3998 148.215 27.6566 148.215Z" fill="#F0F0F0"/>
<path d="M27.6568 118.044C26.8883 118.045 26.1209 118.102 25.361 118.217C24.9724 118.273 24.5937 118.346 24.2182 118.436C21.4601 119.07 18.9329 120.457 16.9186 122.441C14.9042 124.425 13.482 126.929 12.8104 129.673C12.1389 132.417 12.2445 135.293 13.1155 137.981C13.9865 140.668 15.5887 143.061 17.7431 144.893C17.999 145.109 18.258 145.317 18.5272 145.516C20.4667 146.96 22.722 147.922 25.1073 148.326C27.4926 148.729 29.9399 148.562 32.2476 147.837C34.5553 147.112 36.6575 145.85 38.3813 144.156C40.105 142.462 41.401 140.384 42.1626 138.092C42.9241 135.8 43.1295 133.361 42.7618 130.975C42.3941 128.588 41.4638 126.323 40.0475 124.366C38.6312 122.409 36.7693 120.815 34.6152 119.716C32.461 118.617 30.0761 118.044 27.6568 118.044H27.6568ZM27.6568 147.884C24.5485 147.887 21.521 146.896 19.0188 145.056C18.7465 144.857 18.484 144.651 18.2282 144.432C16.1291 142.665 14.5716 140.343 13.7343 137.733C12.897 135.123 12.8139 132.331 13.4944 129.676C14.1748 127.021 15.5914 124.611 17.5816 122.722C19.5718 120.834 22.0551 119.544 24.7465 118.999C25.1185 118.923 25.4907 118.863 25.8695 118.817C26.4624 118.744 27.0593 118.707 27.6568 118.708C31.5337 118.708 35.2519 120.244 37.9933 122.98C40.7347 125.716 42.2749 129.427 42.2749 133.296C42.2749 137.165 40.7347 140.875 37.9933 143.611C35.2519 146.347 31.5337 147.884 27.6568 147.884Z" fill="#3F3D56"/>
<path d="M20.3481 130.312H34.9662C35.5167 130.312 35.9629 129.867 35.9629 129.317C35.9629 128.768 35.5167 128.323 34.9662 128.323H20.3481C19.7977 128.323 19.3514 128.768 19.3514 129.317C19.3514 129.867 19.7977 130.312 20.3481 130.312Z" fill="#7EB256"/>
<path d="M20.3481 134.29H34.9662C35.5167 134.29 35.9629 133.845 35.9629 133.296C35.9629 132.746 35.5167 132.301 34.9662 132.301H20.3481C19.7977 132.301 19.3514 132.746 19.3514 133.296C19.3514 133.845 19.7977 134.29 20.3481 134.29Z" fill="#7EB256"/>
<path d="M20.3481 138.269H34.9662C35.5167 138.269 35.9629 137.824 35.9629 137.274C35.9629 136.725 35.5167 136.28 34.9662 136.28H20.3481C19.7977 136.28 19.3514 136.725 19.3514 137.274C19.3514 137.824 19.7977 138.269 20.3481 138.269Z" fill="#7EB256"/>
<path d="M28.6134 122.611C28.1308 122.537 27.6703 122.358 27.2644 122.087C26.8586 121.815 26.5173 121.459 26.2645 121.042C26.0117 120.625 25.8537 120.157 25.8015 119.673C25.7492 119.188 25.8041 118.698 25.9623 118.237L16.6104 110.938L22.4585 108.978L30.4427 116.209C31.2013 116.526 31.8174 117.109 32.174 117.848C32.5306 118.588 32.603 119.432 32.3775 120.221C32.1521 121.01 31.6443 121.689 30.9506 122.13C30.2568 122.57 29.4252 122.742 28.6134 122.611H28.6134Z" fill="#FFB6B6"/>
<path d="M9.8827 64.5L4.1235 64.6219C2.99372 65.6604 2.09467 66.9238 1.48437 68.3304C0.874076 69.7371 0.566097 71.2559 0.580304 72.7887V99.9455L22.1912 117.976L29.1792 111.223L13.094 93.7347L9.8827 64.5Z" fill="#3F3D56"/>
<path d="M268.072 -0.12793H54.1624V136.588H268.072V-0.12793Z" fill="#E6E6E6"/>
<path d="M261.955 17.0198H60.2793V128.5H261.955V17.0198Z" fill="white"/>
<path d="M267.98 -0.248779H54.0713V8.82024H267.98V-0.248779Z" fill="#7EB256"/>
<path d="M60.8242 6.06853C61.7544 6.06853 62.5085 5.31598 62.5085 4.38766C62.5085 3.45934 61.7544 2.70679 60.8242 2.70679C59.894 2.70679 59.1399 3.45934 59.1399 4.38766C59.1399 5.31598 59.894 6.06853 60.8242 6.06853Z" fill="white"/>
<path d="M67.2175 6.06853C68.1478 6.06853 68.9019 5.31598 68.9019 4.38766C68.9019 3.45934 68.1478 2.70679 67.2175 2.70679C66.2873 2.70679 65.5332 3.45934 65.5332 4.38766C65.5332 5.31598 66.2873 6.06853 67.2175 6.06853Z" fill="white"/>
<path d="M73.6106 6.06853C74.5408 6.06853 75.2949 5.31598 75.2949 4.38766C75.2949 3.45934 74.5408 2.70679 73.6106 2.70679C72.6804 2.70679 71.9263 3.45934 71.9263 4.38766C71.9263 5.31598 72.6804 6.06853 73.6106 6.06853Z" fill="white"/>
<path d="M182.555 28.5867H139.371V52.905H182.555V28.5867Z" fill="#7EB256"/>
<path d="M182.555 59.6772H139.371V85.8425H182.555V59.6772Z" fill="#E6E6E6"/>
<path d="M243.63 28.5867H191.809V67.0875H243.63V28.5867Z" fill="#E6E6E6"/>
<path d="M243.63 78.4321H191.809V116.933H243.63V78.4321Z" fill="#7EB256"/>
<path d="M130.672 28.5867H78.8511V67.0875H130.672V28.5867Z" fill="#E6E6E6"/>
<path d="M218.104 97.3535L203.48 152.254L204.018 152.953L218.78 97.5329L218.104 97.3535Z" fill="#3F3D56"/>
<path d="M129.651 90.4092H79.8169C79.5085 90.4092 79.2127 90.287 78.9946 90.0694C78.7766 89.8517 78.6541 89.5566 78.6541 89.2488C78.6541 88.941 78.7766 88.6459 78.9946 88.4283C79.2127 88.2106 79.5085 88.0884 79.8169 88.0884H129.651C129.96 88.0884 130.255 88.2106 130.473 88.4283C130.691 88.6459 130.814 88.941 130.814 89.2488C130.814 89.5566 130.691 89.8517 130.473 90.0694C130.255 90.287 129.96 90.4092 129.651 90.4092Z" fill="#E6E6E6"/>
<path d="M129.651 83.7783H79.8169C79.5085 83.7783 79.2127 83.6561 78.9946 83.4385C78.7766 83.2208 78.6541 82.9257 78.6541 82.6179C78.6541 82.3102 78.7766 82.015 78.9946 81.7974C79.2127 81.5798 79.5085 81.4575 79.8169 81.4575H129.651C129.96 81.4575 130.255 81.5798 130.473 81.7974C130.691 82.015 130.814 82.3102 130.814 82.6179C130.814 82.9257 130.691 83.2208 130.473 83.4385C130.255 83.6561 129.96 83.7783 129.651 83.7783Z" fill="#E6E6E6"/>
<path d="M129.651 97.0403H79.8169C79.5085 97.0403 79.2127 96.918 78.9946 96.7004C78.7766 96.4828 78.6541 96.1876 78.6541 95.8799C78.6541 95.5721 78.7766 95.277 78.9946 95.0594C79.2127 94.8417 79.5085 94.7195 79.8169 94.7195H129.651C129.96 94.7195 130.255 94.8417 130.473 95.0594C130.691 95.277 130.814 95.5721 130.814 95.8799C130.814 96.1876 130.691 96.4828 130.473 96.7004C130.255 96.918 129.96 97.0403 129.651 97.0403Z" fill="#E6E6E6"/>
<path d="M129.651 103.671H79.8169C79.5085 103.671 79.2127 103.549 78.9946 103.331C78.7766 103.114 78.6541 102.818 78.6541 102.511C78.6541 102.203 78.7766 101.908 78.9946 101.69C79.2127 101.473 79.5085 101.35 79.8169 101.35H129.651C129.96 101.35 130.255 101.473 130.473 101.69C130.691 101.908 130.814 102.203 130.814 102.511C130.814 102.818 130.691 103.114 130.473 103.331C130.255 103.549 129.96 103.671 129.651 103.671Z" fill="#E6E6E6"/>
<path d="M129.651 110.302H79.8169C79.5085 110.302 79.2127 110.18 78.9946 109.962C78.7766 109.745 78.6541 109.449 78.6541 109.142C78.6541 108.834 78.7766 108.539 78.9946 108.321C79.2127 108.103 79.5085 107.981 79.8169 107.981H129.651C129.96 107.981 130.255 108.103 130.473 108.321C130.691 108.539 130.814 108.834 130.814 109.142C130.814 109.449 130.691 109.745 130.473 109.962C130.255 110.18 129.96 110.302 129.651 110.302Z" fill="#E6E6E6"/>
<path d="M129.651 116.933H79.8169C79.5085 116.933 79.2127 116.811 78.9946 116.593C78.7766 116.376 78.6541 116.08 78.6541 115.773C78.6541 115.465 78.7766 115.17 78.9946 114.952C79.2127 114.735 79.5085 114.612 79.8169 114.612H129.651C129.96 114.612 130.255 114.735 130.473 114.952C130.691 115.17 130.814 115.465 130.814 115.773C130.814 116.08 130.691 116.376 130.473 116.593C130.255 116.811 129.96 116.933 129.651 116.933Z" fill="#E6E6E6"/>
<path d="M181.561 97.0403H140.365C140.056 97.0403 139.761 96.918 139.542 96.7004C139.324 96.4828 139.202 96.1876 139.202 95.8799C139.202 95.5721 139.324 95.277 139.542 95.0594C139.761 94.8417 140.056 94.7195 140.365 94.7195H181.561C181.869 94.7195 182.165 94.8417 182.383 95.0594C182.601 95.277 182.724 95.5721 182.724 95.8799C182.724 96.1876 182.601 96.4828 182.383 96.7004C182.165 96.918 181.869 97.0403 181.561 97.0403Z" fill="#E6E6E6"/>
<path d="M181.561 103.671H140.365C140.056 103.671 139.761 103.549 139.542 103.331C139.324 103.114 139.202 102.818 139.202 102.511C139.202 102.203 139.324 101.908 139.542 101.69C139.761 101.473 140.056 101.35 140.365 101.35H181.561C181.869 101.35 182.165 101.473 182.383 101.69C182.601 101.908 182.724 102.203 182.724 102.511C182.724 102.818 182.601 103.114 182.383 103.331C182.165 103.549 181.869 103.671 181.561 103.671Z" fill="#E6E6E6"/>
<path d="M181.561 110.302H140.365C140.056 110.302 139.761 110.18 139.542 109.962C139.324 109.745 139.202 109.449 139.202 109.142C139.202 108.834 139.324 108.539 139.542 108.321C139.761 108.103 140.056 107.981 140.365 107.981H181.561C181.869 107.981 182.165 108.103 182.383 108.321C182.601 108.539 182.724 108.834 182.724 109.142C182.724 109.449 182.601 109.745 182.383 109.962C182.165 110.18 181.869 110.302 181.561 110.302Z" fill="#E6E6E6"/>
<path d="M181.561 116.933H140.365C140.056 116.933 139.761 116.811 139.542 116.593C139.324 116.376 139.202 116.08 139.202 115.773C139.202 115.465 139.324 115.17 139.542 114.952C139.761 114.735 140.056 114.612 140.365 114.612H181.561C181.869 114.612 182.165 114.735 182.383 114.952C182.601 115.17 182.724 115.465 182.724 115.773C182.724 116.08 182.601 116.376 182.383 116.593C182.165 116.811 181.869 116.933 181.561 116.933Z" fill="#E6E6E6"/>
<path d="M201.745 180.707C210.002 180.707 216.695 174.027 216.695 165.787C216.695 157.547 210.002 150.868 201.745 150.868C193.488 150.868 186.794 157.547 186.794 165.787C186.794 174.027 193.488 180.707 201.745 180.707Z" fill="#F0F0F0"/>
<path d="M201.745 150.536C200.976 150.536 200.209 150.594 199.449 150.709C199.061 150.765 198.682 150.838 198.306 150.927C195.548 151.562 193.021 152.949 191.007 154.933C188.992 156.917 187.57 159.421 186.899 162.165C186.227 164.909 186.333 167.785 187.204 170.472C188.075 173.16 189.677 175.553 191.831 177.385C192.087 177.6 192.346 177.809 192.615 178.008C194.555 179.451 196.81 180.414 199.195 180.818C201.581 181.221 204.028 181.053 206.336 180.328C208.643 179.604 210.746 178.342 212.469 176.648C214.193 174.954 215.489 172.875 216.251 170.584C217.012 168.292 217.218 165.853 216.85 163.466C216.482 161.08 215.552 158.815 214.136 156.858C212.719 154.9 210.858 153.306 208.703 152.207C206.549 151.108 204.164 150.536 201.745 150.536ZM201.745 180.375C198.637 180.379 195.609 179.388 193.107 177.547C192.835 177.348 192.572 177.143 192.316 176.924C190.217 175.157 188.66 172.835 187.822 170.225C186.985 167.615 186.902 164.822 187.583 162.167C188.263 159.512 189.68 157.102 191.67 155.214C193.66 153.326 196.143 152.035 198.835 151.491C199.207 151.415 199.579 151.355 199.958 151.309C200.551 151.235 201.147 151.199 201.745 151.199C205.622 151.199 209.34 152.736 212.082 155.472C214.823 158.208 216.363 161.918 216.363 165.787C216.363 169.656 214.823 173.367 212.082 176.103C209.34 178.838 205.622 180.375 201.745 180.375Z" fill="#3F3D56"/>
<path d="M194.435 162.804H209.053C209.603 162.804 210.05 162.358 210.05 161.809C210.05 161.26 209.603 160.814 209.053 160.814H194.435C193.884 160.814 193.438 161.26 193.438 161.809C193.438 162.358 193.884 162.804 194.435 162.804Z" fill="#7EB256"/>
<path d="M194.435 166.782H209.053C209.603 166.782 210.05 166.337 210.05 165.787C210.05 165.238 209.603 164.793 209.053 164.793H194.435C193.884 164.793 193.438 165.238 193.438 165.787C193.438 166.337 193.884 166.782 194.435 166.782Z" fill="#7EB256"/>
<path d="M194.435 170.76H209.053C209.603 170.76 210.05 170.315 210.05 169.766C210.05 169.217 209.603 168.771 209.053 168.771H194.435C193.884 168.771 193.438 169.217 193.438 169.766C193.438 170.315 193.884 170.76 194.435 170.76Z" fill="#7EB256"/>
</g>
<defs>
<clipPath id="clip0_598_784">
<rect width="267" height="200" fill="white" transform="translate(0.5)"/>
</clipPath>
</defs>
</svg>
