<svg width="426" height="475" viewBox="0 0 426 475" fill="none" xmlns="http://www.w3.org/2000/svg">
<g clip-path="url(#clip0_598_947)">
<g clip-path="url(#clip1_598_947)">
<path d="M213 453C95.9185 453 0.903581 358.686 0 242H426C425.096 358.686 330.082 453 213 453Z" fill="url(#paint0_linear_598_947)"/>
<path d="M136.036 360.905C136.5 360.905 136.876 361.281 136.876 361.744C136.876 362.207 136.5 362.583 136.036 362.583C135.572 362.583 135.196 362.207 135.196 361.744C135.196 361.281 135.572 360.905 136.036 360.905Z" fill="#F2F2F2"/>
<path d="M259.977 321.474C260.441 321.474 260.817 321.849 260.817 322.313C260.817 322.776 260.441 323.152 259.977 323.152C259.513 323.152 259.137 322.776 259.137 322.313C259.137 321.849 259.513 321.474 259.977 321.474Z" fill="#F2F2F2"/>
<path d="M41.0844 331.961C41.5485 331.961 41.9247 332.336 41.9247 332.8C41.9247 333.263 41.5485 333.639 41.0844 333.639C40.6203 333.639 40.2441 333.263 40.2441 332.8C40.2441 332.336 40.6203 331.961 41.0844 331.961Z" fill="#F2F2F2"/>
<path d="M368.793 361.744C369.257 361.744 369.633 362.12 369.633 362.583C369.633 363.046 369.257 363.422 368.793 363.422C368.329 363.422 367.953 363.046 367.953 362.583C367.953 362.12 368.329 361.744 368.793 361.744Z" fill="#F2F2F2"/>
<path d="M99.0634 352.935C99.5275 352.935 99.9037 353.31 99.9037 353.774C99.9037 354.237 99.5275 354.613 99.0634 354.613C98.5994 354.613 98.2231 354.237 98.2231 353.774C98.2231 353.31 98.5994 352.935 99.0634 352.935Z" fill="#F2F2F2"/>
<path d="M236.869 369.714C237.333 369.714 237.709 370.09 237.709 370.553C237.709 371.016 237.333 371.392 236.869 371.392C236.405 371.392 236.029 371.016 236.029 370.553C236.029 370.09 236.405 369.714 236.869 369.714Z" fill="#F2F2F2"/>
<path d="M264.599 430.12C265.063 430.12 265.439 430.495 265.439 430.959C265.439 431.422 265.063 431.798 264.599 431.798C264.135 431.798 263.758 431.422 263.758 430.959C263.758 430.495 264.135 430.12 264.599 430.12Z" fill="#F2F2F2"/>
<path d="M89.8207 331.961H88.9805V331.541H89.8207V331.961Z" fill="#F2F2F2"/>
<path d="M114.609 396.142H113.769V395.722H114.609V396.142Z" fill="#F2F2F2"/>
<path d="M175.109 348.321H174.269V347.901H175.109V348.321Z" fill="#F2F2F2"/>
<path d="M335.602 329.863H334.762V329.444H335.602V329.863Z" fill="#F2F2F2"/>
<path d="M285.605 394.044H284.765V393.625H285.605V394.044Z" fill="#F2F2F2"/>
<path d="M96.0473 300.442H94.5688V242.133H96.0473V300.442Z" fill="#3F3D56"/>
<path d="M109.692 310.63C109.786 290.24 95.4188 273.645 95.4188 273.645C95.4188 273.645 80.8988 290.107 80.8047 310.497C80.7105 330.886 95.078 347.481 95.078 347.481C95.078 347.481 109.598 331.019 109.692 310.63Z" fill="#3F3D56"/>
<path d="M77.7981 317.729H75.8813V242.133H77.7981V317.729Z" fill="#3F3D56"/>
<path d="M95.488 325.713C95.6101 299.279 76.9833 277.764 76.9833 277.764C76.9833 277.764 58.1588 299.107 58.0367 325.541C57.9147 351.974 76.5415 373.49 76.5415 373.49C76.5415 373.49 95.366 352.147 95.488 325.713Z" fill="#3F3D56"/>
<path d="M300.655 300.442H299.177V242.133H300.655V300.442Z" fill="#4923B5"/>
<path d="M314.3 293.011C314.394 272.622 300.027 256.027 300.027 256.027C300.027 256.027 285.507 272.489 285.413 292.879C285.318 313.268 299.686 329.863 299.686 329.863C299.686 329.863 314.206 313.401 314.3 293.011Z" fill="#3F3D56"/>
<path d="M60.7558 300.442H59.2773V242.133H60.7558V300.442Z" fill="#3F3D56"/>
<path d="M74.4007 310.63C74.4948 290.24 60.1273 273.645 60.1273 273.645C60.1273 273.645 45.6073 290.107 45.5132 310.497C45.419 330.886 59.7865 347.481 59.7865 347.481C59.7865 347.481 74.3065 331.019 74.4007 310.63Z" fill="#3F3D56"/>
<path d="M190.999 300.442H189.521V242.133H190.999V300.442Z" fill="#3F3D56"/>
<path d="M204.644 310.63C204.738 290.24 190.371 273.645 190.371 273.645C190.371 273.645 175.85 290.107 175.756 310.497C175.662 330.886 190.03 347.481 190.03 347.481C190.03 347.481 204.55 331.019 204.644 310.63Z" fill="#3F3D56"/>
<path d="M172.749 317.729H170.833V242.133H172.749V317.729Z" fill="#3F3D56"/>
<path d="M190.44 325.713C190.562 299.279 171.935 277.764 171.935 277.764C171.935 277.764 153.11 299.107 152.988 325.541C152.866 351.974 171.493 373.49 171.493 373.49C171.493 373.49 190.318 352.147 190.44 325.713Z" fill="#3F3D56"/>
<path d="M155.707 300.442H154.229V242.133H155.707V300.442Z" fill="#3F3D56"/>
<path d="M169.352 310.63C169.446 290.24 155.078 273.645 155.078 273.645C155.078 273.645 140.558 290.107 140.464 310.497C140.37 330.886 154.738 347.481 154.738 347.481C154.738 347.481 169.258 331.019 169.352 310.63Z" fill="#3F3D56"/>
<path d="M310.215 273.288L285.509 295.969C285.442 294.95 285.408 293.919 285.413 292.879C285.507 272.489 300.027 256.027 300.027 256.027C304.254 261.249 307.687 267.065 310.215 273.288Z" fill="#4923B5"/>
<path d="M126.312 247.334C127.159 244.21 130.058 242.275 130.058 242.275C130.058 242.275 131.585 245.406 130.739 248.53C129.892 251.654 126.993 253.589 126.993 253.589C126.993 253.589 125.466 250.458 126.312 247.334Z" fill="#3F3D56"/>
<path d="M127.556 248.006C129.879 245.748 130.162 242.278 130.162 242.278C130.162 242.278 126.68 242.468 124.357 244.725C122.035 246.983 121.751 250.453 121.751 250.453C121.751 250.453 125.233 250.263 127.556 248.006Z" fill="#3F3D56"/>
<path d="M245.632 247.334C246.479 244.21 249.378 242.275 249.378 242.275C249.378 242.275 250.905 245.406 250.058 248.53C249.212 251.654 246.313 253.589 246.313 253.589C246.313 253.589 244.786 250.458 245.632 247.334Z" fill="#4923B5"/>
<path d="M246.876 248.006C249.198 245.748 249.482 242.278 249.482 242.278C249.482 242.278 246 242.468 243.677 244.725C241.354 246.983 241.071 250.453 241.071 250.453C241.071 250.453 244.553 250.263 246.876 248.006Z" fill="#4923B5"/>
<path d="M32.2009 247.334C33.0474 244.21 35.9468 242.275 35.9468 242.275C35.9468 242.275 37.4737 245.406 36.6273 248.53C35.7808 251.654 32.8814 253.589 32.8814 253.589C32.8814 253.589 31.3545 250.458 32.2009 247.334Z" fill="#3F3D56"/>
<path d="M33.4451 248.006C35.7678 245.748 36.0515 242.278 36.0515 242.278C36.0515 242.278 32.5693 242.468 30.2466 244.725C27.9238 246.983 27.6401 250.453 27.6401 250.453C27.6401 250.453 31.1223 250.263 33.4451 248.006Z" fill="#3F3D56"/>
<path d="M162.734 360.417L203.282 299.314C204.187 303.018 204.645 306.817 204.644 310.63C204.598 320.572 201.122 329.58 197.572 336.201L195.696 335.736L197.46 336.408C195.37 340.344 192.88 344.054 190.03 347.482C190.03 347.482 188.995 346.286 187.484 344.145C182.157 361.397 171.493 373.49 171.493 373.49C168.165 369.419 165.232 365.042 162.734 360.417Z" fill="#4923B5"/>
<path opacity="0.1" d="M396.031 244.605C396.351 244.605 396.659 244.733 396.886 244.959C397.112 245.185 397.24 245.492 397.24 245.812C397.24 246.133 397.112 246.44 396.886 246.666C396.659 246.892 396.351 247.02 396.031 247.02H386.09C386.411 246.379 386.464 245.638 386.237 244.959C386.01 244.28 385.523 243.718 384.881 243.398C384.881 243.078 385.009 242.771 385.235 242.545C385.462 242.318 385.77 242.191 386.09 242.191H396.031C396.351 242.191 396.659 242.318 396.886 242.545C397.112 242.771 397.24 243.078 397.24 243.398C397.24 243.718 397.112 244.025 396.886 244.252C396.659 244.478 396.351 244.605 396.031 244.605Z" fill="#F2F2F2"/>
<path d="M372.405 247.096C372.575 240.514 368.586 242.191 363.752 242.191C358.917 242.191 354.929 241.353 354.896 247.096C354.88 249.925 358.844 250.54 363.679 250.54C368.514 250.54 372.332 249.924 372.405 247.096Z" fill="#3F3D56"/>
<path d="M383.716 244.494C383.638 244.536 383.553 244.563 383.465 244.575C383.026 244.645 382.592 244.737 382.163 244.853C381.732 244.97 381.337 245.189 381.01 245.493C380.889 245.636 380.753 245.766 380.604 245.881C380.529 245.938 380.439 245.972 380.345 245.978C380.252 245.985 380.158 245.965 380.075 245.919C380.058 245.906 380.043 245.891 380.028 245.875C379.968 245.914 379.908 245.954 379.848 245.994C379.528 246.204 379.207 246.412 378.884 246.617L378.871 246.626C378.88 246.676 378.88 246.728 378.872 246.779C378.815 246.946 378.701 247.087 378.55 247.177C378.967 247.181 379.386 247.219 379.8 247.263C380.195 247.256 380.576 247.405 380.861 247.677C380.904 247.725 380.93 247.785 380.935 247.849C380.936 247.979 380.801 248.064 380.68 248.114C380.52 248.179 380.353 248.228 380.182 248.26C380.062 248.277 379.944 248.302 379.828 248.334C379.725 248.372 379.625 248.419 379.531 248.474C379.325 248.587 379.12 248.7 378.915 248.813C378.827 248.855 378.747 248.911 378.676 248.978C378.572 249.089 378.525 249.245 378.419 249.353C378.321 249.454 377.923 249.585 377.867 249.38C377.844 249.299 377.93 249.21 377.94 249.119C377.803 249.205 377.66 249.283 377.514 249.353C377.522 249.371 377.532 249.388 377.539 249.406C376.858 249.952 376.316 250.652 375.96 251.448C376.021 251.447 376.082 251.443 376.143 251.443C376.247 251.434 376.351 251.459 376.439 251.515C376.475 251.548 376.503 251.589 376.521 251.634C376.54 251.68 376.547 251.729 376.544 251.777C376.536 251.875 376.512 251.97 376.473 252.06C376.386 252.328 376.247 252.577 376.064 252.792C375.887 252.963 375.685 253.106 375.465 253.217L375.429 253.237C375.414 253.283 375.401 253.328 375.382 253.373C375.25 253.648 375.1 253.914 374.933 254.171C374.699 254.6 374.526 255.06 374.419 255.537C374.38 255.827 374.269 256.104 374.095 256.34C373.774 256.693 373.225 256.684 372.751 256.631C372.48 256.601 372.211 256.56 371.942 256.518C371.939 256.525 371.939 256.532 371.936 256.539C371.903 256.602 371.882 256.671 371.874 256.743C371.881 256.801 371.894 256.858 371.913 256.914C371.927 256.983 371.924 257.055 371.903 257.122C371.883 257.19 371.845 257.251 371.795 257.3C371.784 257.311 371.773 257.323 371.762 257.335C371.791 257.405 371.818 257.475 371.843 257.546C371.865 257.572 371.882 257.603 371.892 257.636C371.902 257.668 371.906 257.703 371.902 257.737C371.951 257.909 371.977 258.087 371.979 258.265C371.924 258.66 371.91 259.059 371.937 259.457C371.923 259.556 371.887 259.65 371.831 259.733C371.822 259.746 371.805 259.752 371.794 259.764C371.876 259.872 371.971 259.97 372.076 260.056C372.283 260.215 372.504 260.356 372.737 260.474C372.793 260.505 372.871 260.527 372.924 260.562C373.006 260.548 373.089 260.54 373.172 260.537C373.48 260.535 373.783 260.609 374.056 260.751C374.329 260.893 374.563 261.1 374.737 261.354C374.912 261.607 375.021 261.899 375.057 262.205C375.092 262.51 375.052 262.819 374.94 263.106C375.025 263.126 375.105 263.164 375.176 263.216C375.247 263.268 375.306 263.334 375.351 263.409C375.444 263.569 375.499 263.748 375.513 263.932C375.528 264.002 375.528 264.075 375.515 264.146C375.501 264.217 375.474 264.284 375.434 264.345C375.363 264.413 375.282 264.47 375.193 264.513C375.071 264.589 374.968 264.693 374.893 264.816C374.84 264.903 374.802 264.999 374.755 265.09C374.675 265.257 374.551 265.4 374.397 265.503C374.242 265.605 374.062 265.663 373.876 265.671C373.699 265.648 373.525 265.614 373.353 265.567C372.765 265.464 372.126 265.775 371.58 265.532C371.446 265.467 371.321 265.384 371.209 265.285C371.055 265.159 370.908 265.026 370.766 264.885C370.643 264.781 370.55 264.645 370.496 264.493C370.422 264.215 370.598 263.905 370.486 263.64C370.448 263.564 370.402 263.492 370.349 263.425C370.226 263.244 370.36 262.536 370.346 262.317C370.331 262.21 370.358 262.101 370.422 262.014C370.439 261.997 370.457 261.983 370.477 261.972C369.562 261.646 368.667 261.266 367.797 260.834C366.753 260.33 365.885 259.521 365.31 258.515C365.162 258.227 365.05 257.923 364.917 257.629C364.738 257.236 364.523 256.862 364.308 256.488C364.045 256.033 363.782 255.576 363.478 255.147C363.305 254.919 363.145 254.682 362.998 254.436C362.994 254.4 362.993 254.364 362.995 254.328C363.001 254.294 362.998 254.26 362.985 254.227C362.972 254.209 362.955 254.193 362.935 254.182C362.916 254.171 362.893 254.164 362.871 254.162L362.863 254.143C362.795 253.923 362.738 253.698 362.693 253.472C362.603 253.111 362.461 252.763 362.406 252.396C362.374 252.35 362.356 252.296 362.355 252.24C362.353 252.184 362.368 252.129 362.398 252.081C362.428 252.034 362.471 251.996 362.522 251.973C362.573 251.95 362.63 251.942 362.685 251.951C363 251.811 363.303 251.647 363.605 251.482C363.601 251.46 363.594 251.439 363.591 251.416C363.581 251.182 363.638 250.951 363.754 250.748C363.87 250.545 364.042 250.379 364.248 250.269C364.666 250.057 365.122 249.933 365.59 249.905C365.771 249.884 365.954 249.874 366.135 249.855C366.4 249.708 366.682 249.594 366.975 249.515C367.039 249.497 367.105 249.486 367.171 249.485C367.26 249.491 367.347 249.516 367.425 249.56C367.502 249.604 367.569 249.664 367.621 249.737C369.183 249.651 370.749 249.683 372.307 249.833C372.738 249.933 373.191 249.863 373.572 249.637C373.909 249.363 373.977 248.877 374.228 248.522C374.411 248.303 374.616 248.103 374.839 247.927C375.284 247.457 375.678 246.94 376.013 246.387C376.351 245.828 376.841 245.376 377.426 245.084C377.532 245.252 377.684 245.384 377.865 245.465C377.912 245.493 377.957 245.525 378.002 245.555C378.064 245.455 378.136 245.362 378.217 245.276C378.277 245.211 378.337 245.142 378.393 245.072C378.392 245.071 378.39 245.072 378.388 245.072C378.306 245.059 378.279 244.957 378.27 244.875C378.234 244.561 378.198 244.246 378.162 243.932C378.149 243.869 378.153 243.805 378.174 243.745C378.213 243.68 378.273 243.63 378.344 243.604C378.637 243.464 378.953 243.381 379.276 243.359C379.439 243.348 379.603 243.352 379.765 243.338C380.032 243.304 380.296 243.251 380.555 243.181C381.261 243.02 381.987 242.963 382.709 243.012C382.858 243.016 383.006 243.044 383.146 243.095C383.312 243.174 383.459 243.288 383.577 243.428C383.728 243.571 383.84 243.749 383.902 243.947C383.931 244.046 383.928 244.152 383.895 244.25C383.862 244.348 383.799 244.433 383.716 244.494Z" fill="#3F3D56"/>
<path d="M372.092 265.567C372.162 265.579 372.231 265.598 372.3 265.616C372.078 265.643 371.854 265.622 371.642 265.552C371.792 265.539 371.943 265.544 372.092 265.567Z" fill="#FF6584"/>
<path d="M373.494 265.09C373.542 264.999 373.58 264.903 373.633 264.816C373.708 264.693 373.81 264.589 373.933 264.513C374.021 264.47 374.102 264.413 374.173 264.345C374.213 264.284 374.24 264.217 374.254 264.146C374.268 264.075 374.267 264.002 374.252 263.932C374.238 263.748 374.183 263.569 374.091 263.409C374.046 263.334 373.986 263.268 373.915 263.216C373.845 263.164 373.764 263.126 373.679 263.106C373.808 262.8 373.853 262.466 373.808 262.137C373.764 261.809 373.632 261.498 373.426 261.238C373.22 260.978 372.947 260.778 372.637 260.659C372.327 260.54 371.991 260.507 371.664 260.562C371.61 260.527 371.533 260.505 371.477 260.474C371.244 260.356 371.022 260.215 370.815 260.056C370.71 259.97 370.615 259.872 370.533 259.764C370.545 259.752 370.561 259.746 370.571 259.733C370.626 259.65 370.662 259.556 370.676 259.457C370.649 259.059 370.663 258.66 370.718 258.265C370.716 258.087 370.69 257.909 370.642 257.737C370.645 257.703 370.642 257.668 370.632 257.636C370.622 257.603 370.605 257.572 370.582 257.546C370.558 257.475 370.53 257.405 370.501 257.335C370.512 257.323 370.523 257.311 370.534 257.3C370.585 257.251 370.622 257.19 370.643 257.122C370.663 257.055 370.666 256.983 370.652 256.914C370.633 256.858 370.621 256.801 370.614 256.743C370.621 256.671 370.642 256.602 370.676 256.539C370.679 256.532 370.679 256.525 370.681 256.518C370.95 256.56 371.219 256.601 371.49 256.631C371.623 256.646 371.757 256.655 371.891 256.657C371.881 256.685 371.875 256.713 371.874 256.743C371.881 256.801 371.894 256.858 371.912 256.914C371.927 256.983 371.924 257.055 371.903 257.122C371.883 257.19 371.845 257.251 371.795 257.3C371.784 257.311 371.773 257.323 371.761 257.335C371.791 257.405 371.818 257.475 371.843 257.546C371.865 257.572 371.882 257.603 371.892 257.636C371.902 257.668 371.906 257.703 371.902 257.737C371.951 257.909 371.977 258.087 371.979 258.265C371.924 258.66 371.909 259.059 371.936 259.457C371.922 259.556 371.886 259.65 371.831 259.733C371.821 259.746 371.805 259.752 371.794 259.764C371.876 259.872 371.97 259.97 372.076 260.056C372.283 260.215 372.504 260.356 372.737 260.474C372.793 260.505 372.871 260.527 372.924 260.562C373.006 260.548 373.089 260.54 373.172 260.537C373.479 260.535 373.783 260.609 374.056 260.751C374.329 260.893 374.563 261.1 374.737 261.354C374.912 261.607 375.021 261.899 375.056 262.205C375.092 262.51 375.051 262.819 374.939 263.106C375.025 263.126 375.105 263.164 375.176 263.216C375.246 263.268 375.306 263.334 375.351 263.409C375.443 263.569 375.499 263.748 375.513 263.932C375.527 264.002 375.528 264.075 375.514 264.146C375.501 264.217 375.473 264.284 375.434 264.345C375.363 264.413 375.282 264.47 375.193 264.513C375.071 264.589 374.968 264.693 374.893 264.816C374.84 264.903 374.802 264.999 374.754 265.09C374.675 265.257 374.551 265.4 374.396 265.503C374.241 265.605 374.061 265.663 373.876 265.671C373.699 265.648 373.525 265.614 373.353 265.567C373.257 265.552 373.159 265.545 373.062 265.548C373.245 265.437 373.394 265.279 373.494 265.09Z" fill="#FF6584"/>
<path d="M383.716 244.495C383.638 244.536 383.553 244.564 383.465 244.575C383.026 244.645 382.592 244.738 382.163 244.853C381.732 244.97 381.337 245.19 381.01 245.493C380.888 245.636 380.752 245.766 380.604 245.882C380.529 245.938 380.439 245.972 380.345 245.979C380.251 245.985 380.158 245.965 380.075 245.92C380.058 245.906 380.042 245.891 380.028 245.875C379.968 245.915 379.908 245.954 379.848 245.994C379.528 246.204 379.207 246.412 378.884 246.618L378.871 246.626C378.88 246.677 378.88 246.728 378.871 246.779C378.815 246.946 378.701 247.087 378.55 247.178C378.967 247.182 379.386 247.22 379.8 247.263C380.195 247.257 380.576 247.406 380.861 247.678C380.904 247.725 380.93 247.785 380.935 247.849C380.936 247.979 380.801 248.064 380.68 248.114C380.519 248.179 380.352 248.229 380.182 248.261C380.062 248.277 379.944 248.302 379.828 248.334C379.725 248.372 379.625 248.419 379.53 248.475C379.325 248.588 379.12 248.7 378.914 248.813C378.827 248.856 378.747 248.911 378.676 248.978C378.572 249.089 378.525 249.245 378.419 249.354C378.32 249.454 377.923 249.586 377.866 249.381C377.844 249.3 377.93 249.21 377.94 249.119C377.803 249.206 377.66 249.284 377.514 249.353C377.522 249.371 377.532 249.388 377.539 249.406C376.857 249.952 376.316 250.652 375.959 251.448C376.021 251.447 376.082 251.443 376.143 251.444C376.247 251.434 376.351 251.459 376.439 251.516C376.475 251.549 376.503 251.589 376.521 251.635C376.539 251.68 376.547 251.729 376.543 251.778C376.536 251.875 376.512 251.97 376.473 252.06C376.386 252.329 376.247 252.577 376.064 252.793C375.886 252.963 375.684 253.107 375.465 253.218L375.429 253.237C375.414 253.283 375.4 253.328 375.382 253.373C375.25 253.648 375.1 253.915 374.933 254.171C374.699 254.6 374.526 255.06 374.419 255.537C374.38 255.828 374.268 256.104 374.095 256.341C373.774 256.693 373.224 256.685 372.75 256.631C372.644 256.619 372.539 256.602 372.434 256.587C372.587 256.542 372.725 256.457 372.835 256.341C373.008 256.104 373.12 255.828 373.159 255.537C373.265 255.06 373.438 254.6 373.673 254.171C373.839 253.915 373.989 253.648 374.122 253.373C374.14 253.328 374.154 253.283 374.169 253.237L374.204 253.218C374.424 253.107 374.626 252.963 374.803 252.793C374.986 252.577 375.125 252.329 375.212 252.06C375.251 251.97 375.275 251.875 375.283 251.778C375.287 251.729 375.279 251.68 375.261 251.635C375.243 251.589 375.214 251.549 375.178 251.516C375.09 251.459 374.986 251.434 374.882 251.444C374.821 251.443 374.76 251.447 374.699 251.448C375.055 250.652 375.597 249.952 376.279 249.406C376.272 249.388 376.261 249.371 376.253 249.353C376.4 249.284 376.542 249.206 376.68 249.119C376.669 249.21 376.584 249.3 376.606 249.381C376.663 249.586 377.06 249.454 377.158 249.354C377.265 249.245 377.311 249.089 377.416 248.978C377.486 248.911 377.567 248.856 377.654 248.813C377.859 248.7 378.065 248.588 378.27 248.475C378.365 248.419 378.464 248.372 378.568 248.334C378.684 248.302 378.802 248.277 378.921 248.261C379.092 248.229 379.259 248.179 379.42 248.114C379.541 248.064 379.675 247.979 379.675 247.849C379.67 247.785 379.644 247.725 379.601 247.678C379.315 247.406 378.934 247.257 378.54 247.263C378.125 247.22 377.706 247.182 377.289 247.178C377.441 247.087 377.555 246.946 377.611 246.779C377.62 246.728 377.619 246.677 377.61 246.626L377.623 246.618C377.946 246.412 378.268 246.204 378.588 245.994C378.648 245.954 378.708 245.915 378.768 245.875C378.782 245.891 378.798 245.906 378.815 245.92C378.897 245.965 378.991 245.985 379.085 245.979C379.179 245.972 379.269 245.938 379.344 245.882C379.492 245.766 379.628 245.636 379.75 245.493C380.076 245.19 380.472 244.97 380.902 244.853C381.331 244.738 381.766 244.645 382.205 244.575C382.292 244.564 382.377 244.536 382.455 244.495C382.539 244.434 382.601 244.348 382.635 244.25C382.668 244.152 382.67 244.047 382.641 243.947C382.579 243.75 382.467 243.571 382.317 243.428C382.198 243.288 382.051 243.174 381.886 243.095C381.783 243.056 381.675 243.033 381.566 243.025C381.946 242.991 382.328 242.987 382.709 243.012C382.858 243.016 383.006 243.044 383.146 243.095C383.312 243.174 383.459 243.288 383.577 243.428C383.728 243.571 383.839 243.75 383.902 243.947C383.931 244.047 383.928 244.152 383.895 244.25C383.862 244.348 383.799 244.434 383.716 244.495Z" fill="#FF6584"/>
<path d="M376.726 245.545C376.747 245.526 376.767 245.506 376.788 245.488C376.773 245.511 376.756 245.532 376.742 245.555L376.726 245.545Z" fill="#FF6584"/>
<path d="M395.493 249.032C395.493 244.587 393.509 245.813 391.06 245.813C388.612 245.813 386.627 244.587 386.627 249.032C386.627 253.476 391.06 261.907 391.06 261.907C391.06 261.907 395.493 253.476 395.493 249.032Z" fill="#FF6584"/>
<path opacity="0.1" d="M393.075 247.331C393.075 245.311 392.173 245.868 391.06 245.868C389.948 245.868 389.045 245.311 389.045 247.331C389.045 249.351 391.06 253.184 391.06 253.184C391.06 253.184 393.075 249.351 393.075 247.331Z" fill="black"/>
<path d="M396.617 260.907C396.617 260.907 397.538 261.863 397.519 262.801L396.617 260.907Z" fill="#FF6584"/>
<path d="M387.179 268.874C387.179 268.874 386.794 270.143 385.966 270.586L387.179 268.874Z" fill="#FF6584"/>
<path d="M377.936 286.072C377.936 286.072 377.552 287.342 376.724 287.785L377.936 286.072Z" fill="#FF6584"/>
<path d="M388.86 263.001C388.86 263.001 388.475 264.271 387.647 264.714L388.86 263.001Z" fill="#FF6584"/>
<path d="M387.599 283.556C387.599 283.556 387.215 284.826 386.387 285.269L387.599 283.556Z" fill="#FF6584"/>
<path d="M385.078 276.005C385.078 276.005 384.694 277.275 383.866 277.718L385.078 276.005Z" fill="#FF6584"/>
<path d="M395.777 247.903C395.777 247.903 396.698 248.859 396.679 249.797L395.777 247.903Z" fill="#FF6584"/>
<path d="M397.457 255.034C397.457 255.034 398.378 255.99 398.36 256.928L397.457 255.034Z" fill="#FF6584"/>
<path d="M385.952 256.233L375.869 252.877L376.002 252.479L386.085 255.835L385.952 256.233Z" fill="#FF6584"/>
<path d="M385.22 255.833C385.599 254.356 384.963 254.709 384.384 254.589C383.804 254.469 383.918 253.937 383.121 255.399C382.57 256.411 383.378 256.523 383.958 256.643C384.538 256.763 384.962 256.841 385.22 255.833Z" fill="#FF6584"/>
<path opacity="0.1" d="M241.466 336.402L241.466 336.402L232.299 344.818L232.216 344.797L228.545 348.129L228.368 348.181L228.559 348.253L189.52 384.091L151.819 418.702L132.608 408.528L131.037 408.181L154.059 373.489L241.189 242.191H344.089L241.466 336.402Z" fill="#F2F2F2"/>
</g>
<g clip-path="url(#clip2_598_947)">
<path d="M213 37C95.9185 37 0.903581 131.761 0 249H426C425.096 131.761 330.082 37 213 37Z" fill="black"/>
<path d="M201.998 61.2533C203.158 61.2533 204.098 60.3098 204.098 59.1459C204.098 57.9821 203.158 57.0386 201.998 57.0386C200.837 57.0386 199.897 57.9821 199.897 59.1459C199.897 60.3098 200.837 61.2533 201.998 61.2533Z" fill="#F2F2F2"/>
<path d="M136.036 129.532C136.5 129.532 136.876 129.154 136.876 128.689C136.876 128.223 136.5 127.846 136.036 127.846C135.572 127.846 135.196 128.223 135.196 128.689C135.196 129.154 135.572 129.532 136.036 129.532Z" fill="#F2F2F2"/>
<path d="M259.977 169.15C260.441 169.15 260.817 168.772 260.817 168.307C260.817 167.841 260.441 167.464 259.977 167.464C259.513 167.464 259.137 167.841 259.137 168.307C259.137 168.772 259.513 169.15 259.977 169.15Z" fill="#F2F2F2"/>
<path d="M41.0844 158.613C41.5485 158.613 41.9247 158.236 41.9247 157.77C41.9247 157.305 41.5485 156.927 41.0844 156.927C40.6203 156.927 40.2441 157.305 40.2441 157.77C40.2441 158.236 40.6203 158.613 41.0844 158.613Z" fill="#F2F2F2"/>
<path d="M368.793 128.688C369.257 128.688 369.633 128.311 369.633 127.845C369.633 127.38 369.257 127.002 368.793 127.002C368.329 127.002 367.953 127.38 367.953 127.845C367.953 128.311 368.329 128.688 368.793 128.688Z" fill="#F2F2F2"/>
<path d="M99.0634 137.539C99.5275 137.539 99.9037 137.162 99.9037 136.696C99.9037 136.231 99.5275 135.854 99.0634 135.854C98.5994 135.854 98.2231 136.231 98.2231 136.696C98.2231 137.162 98.5994 137.539 99.0634 137.539Z" fill="#F2F2F2"/>
<path d="M236.869 120.681C237.333 120.681 237.709 120.303 237.709 119.838C237.709 119.372 237.333 118.995 236.869 118.995C236.405 118.995 236.029 119.372 236.029 119.838C236.029 120.303 236.405 120.681 236.869 120.681Z" fill="#F2F2F2"/>
<path d="M264.599 59.9886C265.063 59.9886 265.439 59.6112 265.439 59.1457C265.439 58.6801 265.063 58.3027 264.599 58.3027C264.135 58.3027 263.758 58.6801 263.758 59.1457C263.758 59.6112 264.135 59.9886 264.599 59.9886Z" fill="#F2F2F2"/>
<path d="M89.8207 158.613H88.9805V159.034H89.8207V158.613Z" fill="#F2F2F2"/>
<path d="M114.609 94.1279H113.769V94.5494H114.609V94.1279Z" fill="#F2F2F2"/>
<path d="M175.109 142.176H174.269V142.597H175.109V142.176Z" fill="#F2F2F2"/>
<path d="M335.602 160.72H334.762V161.142H335.602V160.72Z" fill="#F2F2F2"/>
<path d="M285.605 96.2354H284.765V96.6568H285.605V96.2354Z" fill="#F2F2F2"/>
<path d="M96.0473 190.281H94.5688V248.867H96.0473V190.281Z" fill="#3F3D56"/>
<path d="M109.692 180.045C109.786 200.531 95.4188 217.205 95.4188 217.205C95.4188 217.205 80.8988 200.665 80.8047 180.179C80.7105 159.693 95.078 143.019 95.078 143.019C95.078 143.019 109.598 159.559 109.692 180.045Z" fill="#3F3D56"/>
<path d="M77.7981 172.913H75.8813V248.866H77.7981V172.913Z" fill="#3F3D56"/>
<path d="M95.488 164.89C95.6101 191.449 76.9833 213.066 76.9833 213.066C76.9833 213.066 58.1588 191.623 58.0367 165.063C57.9147 138.504 76.5415 116.887 76.5415 116.887C76.5415 116.887 95.366 138.331 95.488 164.89Z" fill="#3F3D56"/>
<path d="M300.655 190.281H299.177V248.867H300.655V190.281Z" fill="#4923B5"/>
<path d="M314.3 197.747C314.394 218.233 300.027 234.907 300.027 234.907C300.027 234.907 285.507 218.366 285.413 197.88C285.318 177.394 299.686 160.72 299.686 160.72C299.686 160.72 314.206 177.261 314.3 197.747Z" fill="#3F3D56"/>
<path d="M60.7558 190.281H59.2773V248.867H60.7558V190.281Z" fill="#3F3D56"/>
<path d="M74.4007 180.045C74.4948 200.531 60.1273 217.205 60.1273 217.205C60.1273 217.205 45.6073 200.665 45.5132 180.179C45.419 159.693 59.7865 143.019 59.7865 143.019C59.7865 143.019 74.3065 159.559 74.4007 180.045Z" fill="#3F3D56"/>
<path d="M190.999 190.281H189.521V248.867H190.999V190.281Z" fill="#3F3D56"/>
<path d="M204.644 180.045C204.738 200.531 190.371 217.205 190.371 217.205C190.371 217.205 175.85 200.665 175.756 180.179C175.662 159.693 190.03 143.019 190.03 143.019C190.03 143.019 204.55 159.559 204.644 180.045Z" fill="#3F3D56"/>
<path d="M172.749 172.913H170.833V248.866H172.749V172.913Z" fill="#3F3D56"/>
<path d="M190.44 164.89C190.562 191.449 171.935 213.066 171.935 213.066C171.935 213.066 153.11 191.623 152.988 165.063C152.866 138.504 171.493 116.887 171.493 116.887C171.493 116.887 190.318 138.331 190.44 164.89Z" fill="#3F3D56"/>
<path d="M155.707 190.281H154.229V248.867H155.707V190.281Z" fill="#3F3D56"/>
<path d="M169.352 180.045C169.446 200.531 155.078 217.205 155.078 217.205C155.078 217.205 140.558 200.665 140.464 180.179C140.37 159.693 154.738 143.019 154.738 143.019C154.738 143.019 169.258 159.559 169.352 180.045Z" fill="#3F3D56"/>
<path d="M310.215 217.564L285.509 194.775C285.442 195.799 285.408 196.835 285.413 197.88C285.507 218.366 300.027 234.907 300.027 234.907C304.254 229.659 307.687 223.816 310.215 217.564Z" fill="#4923B5"/>
<path d="M126.312 243.641C127.159 246.78 130.058 248.724 130.058 248.724C130.058 248.724 131.585 245.579 130.739 242.44C129.892 239.301 126.993 237.356 126.993 237.356C126.993 237.356 125.466 240.502 126.312 243.641Z" fill="#3F3D56"/>
<path d="M127.556 242.966C129.879 245.234 130.162 248.721 130.162 248.721C130.162 248.721 126.68 248.53 124.357 246.262C122.035 243.994 121.751 240.507 121.751 240.507C121.751 240.507 125.233 240.698 127.556 242.966Z" fill="#3F3D56"/>
<path d="M245.632 243.641C246.479 246.78 249.378 248.724 249.378 248.724C249.378 248.724 250.905 245.579 250.058 242.44C249.212 239.301 246.313 237.356 246.313 237.356C246.313 237.356 244.786 240.502 245.632 243.641Z" fill="#4923B5"/>
<path d="M246.876 242.966C249.198 245.234 249.482 248.721 249.482 248.721C249.482 248.721 246 248.53 243.677 246.262C241.354 243.994 241.071 240.507 241.071 240.507C241.071 240.507 244.553 240.698 246.876 242.966Z" fill="#4923B5"/>
<path d="M32.2009 243.641C33.0474 246.78 35.9468 248.724 35.9468 248.724C35.9468 248.724 37.4737 245.579 36.6273 242.44C35.7808 239.301 32.8814 237.356 32.8814 237.356C32.8814 237.356 31.3545 240.502 32.2009 243.641Z" fill="#3F3D56"/>
<path d="M33.4451 242.966C35.7678 245.234 36.0515 248.721 36.0515 248.721C36.0515 248.721 32.5693 248.53 30.2466 246.262C27.9238 243.994 27.6401 240.507 27.6401 240.507C27.6401 240.507 31.1223 240.698 33.4451 242.966Z" fill="#3F3D56"/>
<path d="M162.734 130.022L203.282 191.414C204.187 187.693 204.645 183.876 204.644 180.045C204.598 170.055 201.122 161.005 197.572 154.352L195.696 154.82L197.46 154.144C195.37 150.19 192.88 146.462 190.03 143.018C190.03 143.018 188.995 144.22 187.484 146.371C182.157 129.037 171.493 116.887 171.493 116.887C168.165 120.977 165.232 125.375 162.734 130.022Z" fill="#4923B5"/>
<path opacity="0.1" d="M396.031 246.382C396.351 246.382 396.659 246.254 396.886 246.027C397.112 245.799 397.24 245.491 397.24 245.169C397.24 244.848 397.112 244.539 396.886 244.312C396.659 244.084 396.351 243.957 396.031 243.957H386.09C386.411 244.6 386.464 245.345 386.237 246.027C386.01 246.709 385.523 247.273 384.881 247.595C384.881 247.917 385.009 248.225 385.235 248.453C385.462 248.68 385.77 248.808 386.09 248.808H396.031C396.351 248.808 396.659 248.68 396.886 248.453C397.112 248.225 397.24 247.917 397.24 247.595C397.24 247.273 397.112 246.965 396.886 246.737C396.659 246.51 396.351 246.382 396.031 246.382Z" fill="#F2F2F2"/>
<path d="M372.405 243.879C372.575 250.493 368.586 248.808 363.752 248.808C358.917 248.808 354.929 249.651 354.896 243.879C354.88 241.038 358.844 240.419 363.679 240.419C368.514 240.419 372.332 241.038 372.405 243.879Z" fill="#3F3D56"/>
<path d="M383.716 246.494C383.638 246.452 383.553 246.424 383.465 246.413C383.026 246.343 382.592 246.25 382.163 246.133C381.732 246.016 381.337 245.795 381.01 245.49C380.889 245.347 380.753 245.216 380.604 245.1C380.529 245.043 380.439 245.009 380.345 245.003C380.252 244.996 380.158 245.016 380.075 245.062C380.058 245.075 380.043 245.09 380.028 245.107C379.968 245.067 379.908 245.027 379.848 244.987C379.528 244.776 379.207 244.567 378.884 244.361L378.871 244.352C378.88 244.301 378.88 244.249 378.872 244.198C378.815 244.031 378.701 243.889 378.55 243.798C378.967 243.794 379.386 243.756 379.8 243.712C380.195 243.719 380.576 243.569 380.861 243.296C380.904 243.248 380.93 243.188 380.935 243.124C380.936 242.993 380.801 242.907 380.68 242.857C380.52 242.791 380.353 242.742 380.182 242.71C380.062 242.693 379.944 242.668 379.828 242.636C379.725 242.598 379.625 242.551 379.531 242.495C379.325 242.381 379.12 242.268 378.915 242.155C378.827 242.112 378.747 242.056 378.676 241.989C378.572 241.878 378.525 241.721 378.419 241.612C378.321 241.511 377.923 241.379 377.867 241.585C377.844 241.666 377.93 241.756 377.94 241.847C377.803 241.76 377.66 241.682 377.514 241.612C377.522 241.594 377.532 241.577 377.539 241.559C376.858 241.01 376.316 240.307 375.96 239.507C376.021 239.508 376.082 239.512 376.143 239.512C376.247 239.521 376.351 239.496 376.439 239.439C376.475 239.406 376.503 239.365 376.521 239.32C376.54 239.274 376.547 239.225 376.544 239.176C376.536 239.078 376.512 238.982 376.473 238.892C376.386 238.623 376.247 238.373 376.064 238.156C375.887 237.985 375.685 237.841 375.465 237.729L375.429 237.709C375.414 237.664 375.401 237.618 375.382 237.573C375.25 237.297 375.1 237.029 374.933 236.771C374.699 236.34 374.526 235.878 374.419 235.399C374.38 235.107 374.269 234.829 374.095 234.591C373.774 234.237 373.225 234.246 372.751 234.3C372.48 234.33 372.211 234.371 371.942 234.413C371.939 234.406 371.939 234.399 371.936 234.392C371.903 234.328 371.882 234.259 371.874 234.187C371.881 234.129 371.894 234.071 371.913 234.015C371.927 233.946 371.924 233.874 371.903 233.806C371.883 233.738 371.845 233.677 371.795 233.627C371.784 233.616 371.773 233.604 371.762 233.592C371.791 233.522 371.818 233.451 371.843 233.38C371.865 233.354 371.882 233.323 371.892 233.29C371.902 233.257 371.906 233.222 371.902 233.188C371.951 233.015 371.977 232.837 371.979 232.657C371.924 232.261 371.91 231.86 371.937 231.46C371.923 231.361 371.887 231.267 371.831 231.183C371.822 231.17 371.805 231.164 371.794 231.152C371.876 231.043 371.971 230.945 372.076 230.858C372.283 230.698 372.504 230.557 372.737 230.438C372.793 230.407 372.871 230.385 372.924 230.35C373.006 230.364 373.089 230.372 373.172 230.375C373.48 230.377 373.783 230.303 374.056 230.16C374.329 230.017 374.563 229.809 374.737 229.554C374.912 229.3 375.021 229.006 375.057 228.699C375.092 228.393 375.052 228.082 374.94 227.794C375.025 227.773 375.105 227.736 375.176 227.683C375.247 227.631 375.306 227.565 375.351 227.489C375.444 227.329 375.499 227.149 375.513 226.964C375.528 226.893 375.528 226.82 375.515 226.749C375.501 226.678 375.474 226.61 375.434 226.549C375.363 226.481 375.282 226.424 375.193 226.38C375.071 226.304 374.968 226.2 374.893 226.076C374.84 225.988 374.802 225.892 374.755 225.801C374.675 225.632 374.551 225.489 374.397 225.386C374.242 225.283 374.062 225.224 373.876 225.217C373.699 225.239 373.525 225.274 373.353 225.321C372.765 225.425 372.126 225.113 371.58 225.356C371.446 225.422 371.321 225.505 371.209 225.604C371.055 225.731 370.908 225.865 370.766 226.006C370.643 226.111 370.55 226.247 370.496 226.4C370.422 226.679 370.598 226.991 370.486 227.258C370.448 227.334 370.402 227.406 370.349 227.473C370.226 227.655 370.36 228.366 370.346 228.586C370.331 228.694 370.358 228.804 370.422 228.891C370.439 228.908 370.457 228.922 370.477 228.934C369.562 229.261 368.667 229.643 367.797 230.076C366.753 230.583 365.885 231.396 365.31 232.407C365.162 232.696 365.05 233.001 364.917 233.297C364.738 233.691 364.523 234.068 364.308 234.443C364.045 234.901 363.782 235.359 363.478 235.791C363.305 236.02 363.145 236.258 362.998 236.505C362.994 236.541 362.993 236.577 362.995 236.613C363.001 236.647 362.998 236.682 362.985 236.714C362.972 236.733 362.955 236.749 362.935 236.76C362.916 236.772 362.893 236.779 362.871 236.78L362.863 236.799C362.795 237.021 362.738 237.246 362.693 237.474C362.603 237.836 362.461 238.185 362.406 238.554C362.374 238.601 362.356 238.655 362.355 238.711C362.353 238.768 362.368 238.823 362.398 238.871C362.428 238.918 362.471 238.956 362.522 238.98C362.573 239.003 362.63 239.011 362.685 239.002C363 239.143 363.303 239.307 363.605 239.473C363.601 239.495 363.594 239.516 363.591 239.539C363.581 239.774 363.638 240.007 363.754 240.211C363.87 240.414 364.042 240.581 364.248 240.691C364.666 240.905 365.122 241.03 365.59 241.057C365.771 241.079 365.954 241.089 366.135 241.108C366.4 241.255 366.682 241.37 366.975 241.449C367.039 241.468 367.105 241.478 367.171 241.48C367.26 241.474 367.347 241.448 367.425 241.404C367.502 241.36 367.569 241.299 367.621 241.226C369.183 241.312 370.749 241.28 372.307 241.13C372.738 241.029 373.191 241.1 373.572 241.327C373.909 241.602 373.977 242.09 374.228 242.447C374.411 242.667 374.616 242.867 374.839 243.045C375.284 243.517 375.678 244.036 376.013 244.592C376.351 245.154 376.841 245.608 377.426 245.901C377.532 245.733 377.684 245.6 377.865 245.518C377.912 245.49 377.957 245.458 378.002 245.428C378.064 245.528 378.136 245.622 378.217 245.708C378.277 245.774 378.337 245.843 378.393 245.914C378.392 245.914 378.39 245.913 378.388 245.913C378.306 245.926 378.279 246.029 378.27 246.111C378.234 246.427 378.198 246.743 378.162 247.059C378.149 247.122 378.153 247.186 378.174 247.246C378.213 247.312 378.273 247.362 378.344 247.388C378.637 247.529 378.953 247.612 379.276 247.635C379.439 247.646 379.603 247.641 379.765 247.656C380.032 247.69 380.296 247.743 380.555 247.814C381.261 247.975 381.987 248.032 382.709 247.983C382.858 247.979 383.006 247.951 383.146 247.9C383.312 247.82 383.459 247.706 383.577 247.565C383.728 247.422 383.84 247.242 383.902 247.044C383.931 246.944 383.928 246.838 383.895 246.739C383.862 246.641 383.799 246.555 383.716 246.494Z" fill="#3F3D56"/>
<path d="M372.092 225.321C372.162 225.309 372.231 225.29 372.3 225.272C372.078 225.245 371.854 225.267 371.642 225.336C371.792 225.35 371.943 225.345 372.092 225.321Z" fill="#FF6584"/>
<path d="M373.494 225.801C373.542 225.892 373.58 225.988 373.633 226.076C373.708 226.2 373.81 226.304 373.933 226.38C374.021 226.424 374.102 226.481 374.173 226.549C374.213 226.61 374.24 226.678 374.254 226.749C374.268 226.82 374.267 226.893 374.252 226.964C374.238 227.149 374.183 227.329 374.091 227.489C374.046 227.565 373.986 227.631 373.915 227.683C373.845 227.736 373.764 227.773 373.679 227.794C373.808 228.101 373.853 228.437 373.808 228.767C373.764 229.097 373.632 229.409 373.426 229.67C373.22 229.932 372.947 230.133 372.637 230.252C372.327 230.372 371.991 230.405 371.664 230.35C371.61 230.385 371.533 230.407 371.477 230.438C371.244 230.557 371.022 230.698 370.815 230.858C370.71 230.945 370.615 231.043 370.533 231.152C370.545 231.164 370.561 231.17 370.571 231.183C370.626 231.266 370.662 231.361 370.676 231.46C370.649 231.86 370.663 232.261 370.718 232.657C370.716 232.837 370.69 233.015 370.642 233.188C370.645 233.222 370.642 233.257 370.632 233.29C370.622 233.323 370.605 233.354 370.582 233.38C370.558 233.451 370.53 233.522 370.501 233.592C370.512 233.604 370.523 233.616 370.534 233.627C370.585 233.677 370.622 233.738 370.643 233.806C370.663 233.874 370.666 233.946 370.652 234.015C370.633 234.071 370.621 234.129 370.614 234.187C370.621 234.259 370.642 234.328 370.676 234.392C370.679 234.399 370.679 234.406 370.681 234.413C370.95 234.371 371.219 234.33 371.49 234.3C371.623 234.284 371.757 234.275 371.891 234.273C371.881 234.246 371.875 234.217 371.874 234.187C371.881 234.129 371.894 234.071 371.912 234.015C371.927 233.946 371.924 233.874 371.903 233.806C371.883 233.738 371.845 233.677 371.795 233.627C371.784 233.616 371.773 233.604 371.761 233.592C371.791 233.522 371.818 233.451 371.843 233.38C371.865 233.354 371.882 233.323 371.892 233.29C371.902 233.257 371.906 233.222 371.902 233.188C371.951 233.015 371.977 232.837 371.979 232.657C371.924 232.261 371.909 231.86 371.936 231.46C371.922 231.361 371.886 231.266 371.831 231.183C371.821 231.17 371.805 231.164 371.794 231.152C371.876 231.043 371.97 230.945 372.076 230.858C372.283 230.698 372.504 230.557 372.737 230.438C372.793 230.407 372.871 230.385 372.924 230.35C373.006 230.364 373.089 230.372 373.172 230.375C373.479 230.377 373.783 230.303 374.056 230.16C374.329 230.017 374.563 229.809 374.737 229.554C374.912 229.3 375.021 229.006 375.056 228.699C375.092 228.393 375.051 228.082 374.939 227.794C375.025 227.773 375.105 227.736 375.176 227.683C375.246 227.631 375.306 227.565 375.351 227.489C375.443 227.329 375.499 227.149 375.513 226.964C375.527 226.893 375.528 226.82 375.514 226.749C375.501 226.678 375.473 226.61 375.434 226.549C375.363 226.481 375.282 226.424 375.193 226.38C375.071 226.304 374.968 226.2 374.893 226.076C374.84 225.988 374.802 225.892 374.754 225.801C374.675 225.632 374.551 225.489 374.396 225.386C374.241 225.283 374.061 225.224 373.876 225.217C373.699 225.239 373.525 225.274 373.353 225.321C373.257 225.337 373.159 225.343 373.062 225.341C373.245 225.452 373.394 225.611 373.494 225.801Z" fill="#FF6584"/>
<path d="M383.716 246.494C383.638 246.452 383.553 246.424 383.465 246.413C383.026 246.343 382.592 246.25 382.163 246.133C381.732 246.016 381.337 245.795 381.01 245.49C380.888 245.347 380.752 245.216 380.604 245.1C380.529 245.043 380.439 245.009 380.345 245.003C380.251 244.996 380.158 245.016 380.075 245.062C380.058 245.075 380.042 245.09 380.028 245.107C379.968 245.067 379.908 245.027 379.848 244.987C379.528 244.776 379.207 244.567 378.884 244.361L378.871 244.352C378.88 244.301 378.88 244.249 378.871 244.198C378.815 244.031 378.701 243.889 378.55 243.798C378.967 243.794 379.386 243.756 379.8 243.712C380.195 243.719 380.576 243.569 380.861 243.296C380.904 243.248 380.93 243.188 380.935 243.124C380.936 242.993 380.801 242.907 380.68 242.857C380.519 242.791 380.352 242.742 380.182 242.71C380.062 242.693 379.944 242.668 379.828 242.636C379.725 242.598 379.625 242.551 379.53 242.495C379.325 242.381 379.12 242.268 378.914 242.155C378.827 242.112 378.747 242.056 378.676 241.989C378.572 241.878 378.525 241.721 378.419 241.612C378.32 241.511 377.923 241.379 377.866 241.585C377.844 241.666 377.93 241.756 377.94 241.847C377.803 241.76 377.66 241.682 377.514 241.612C377.522 241.594 377.532 241.577 377.539 241.559C376.857 241.01 376.316 240.307 375.959 239.507C376.021 239.508 376.082 239.512 376.143 239.512C376.247 239.521 376.351 239.496 376.439 239.439C376.475 239.406 376.503 239.365 376.521 239.32C376.539 239.274 376.547 239.225 376.543 239.176C376.536 239.078 376.512 238.982 376.473 238.892C376.386 238.623 376.247 238.373 376.064 238.156C375.886 237.985 375.684 237.841 375.465 237.729L375.429 237.709C375.414 237.664 375.4 237.618 375.382 237.573C375.25 237.297 375.1 237.029 374.933 236.771C374.699 236.34 374.526 235.878 374.419 235.399C374.38 235.107 374.268 234.829 374.095 234.591C373.774 234.237 373.224 234.246 372.75 234.3C372.644 234.312 372.539 234.329 372.434 234.344C372.587 234.389 372.725 234.475 372.835 234.591C373.008 234.829 373.12 235.107 373.159 235.399C373.265 235.878 373.438 236.34 373.673 236.771C373.839 237.029 373.989 237.297 374.122 237.573C374.14 237.618 374.154 237.664 374.169 237.709L374.204 237.729C374.424 237.841 374.626 237.985 374.803 238.156C374.986 238.373 375.125 238.623 375.212 238.892C375.251 238.982 375.275 239.078 375.283 239.176C375.287 239.225 375.279 239.274 375.261 239.32C375.243 239.365 375.214 239.406 375.178 239.439C375.09 239.496 374.986 239.521 374.882 239.512C374.821 239.512 374.76 239.508 374.699 239.507C375.055 240.307 375.597 241.01 376.279 241.559C376.272 241.577 376.261 241.594 376.253 241.612C376.4 241.682 376.542 241.76 376.68 241.847C376.669 241.756 376.584 241.666 376.606 241.585C376.663 241.379 377.06 241.511 377.158 241.612C377.265 241.721 377.311 241.878 377.416 241.989C377.486 242.056 377.567 242.112 377.654 242.155C377.859 242.268 378.065 242.381 378.27 242.495C378.365 242.551 378.464 242.598 378.568 242.636C378.684 242.668 378.802 242.693 378.921 242.71C379.092 242.742 379.259 242.791 379.42 242.857C379.541 242.907 379.675 242.993 379.675 243.124C379.67 243.188 379.644 243.248 379.601 243.296C379.315 243.569 378.934 243.719 378.54 243.712C378.125 243.756 377.706 243.794 377.289 243.798C377.441 243.889 377.555 244.031 377.611 244.198C377.62 244.249 377.619 244.301 377.61 244.352L377.623 244.361C377.946 244.567 378.268 244.776 378.588 244.987C378.648 245.027 378.708 245.067 378.768 245.107C378.782 245.09 378.798 245.075 378.815 245.062C378.897 245.016 378.991 244.996 379.085 245.003C379.179 245.009 379.269 245.043 379.344 245.1C379.492 245.216 379.628 245.347 379.75 245.49C380.076 245.795 380.472 246.016 380.902 246.133C381.331 246.25 381.766 246.343 382.205 246.413C382.292 246.424 382.377 246.452 382.455 246.494C382.539 246.555 382.601 246.641 382.635 246.739C382.668 246.838 382.67 246.944 382.641 247.044C382.579 247.242 382.467 247.422 382.317 247.565C382.198 247.706 382.051 247.82 381.886 247.9C381.783 247.939 381.675 247.963 381.566 247.97C381.946 248.004 382.328 248.008 382.709 247.983C382.858 247.979 383.006 247.951 383.146 247.9C383.312 247.82 383.459 247.706 383.577 247.565C383.728 247.422 383.839 247.242 383.902 247.044C383.931 246.944 383.928 246.838 383.895 246.739C383.862 246.641 383.799 246.555 383.716 246.494Z" fill="#FF6584"/>
<path d="M376.726 245.438C376.747 245.457 376.767 245.477 376.788 245.495C376.773 245.472 376.756 245.451 376.742 245.428L376.726 245.438Z" fill="#FF6584"/>
<path d="M395.493 241.935C395.493 246.401 393.509 245.169 391.06 245.169C388.612 245.169 386.627 246.401 386.627 241.935C386.627 237.47 391.06 228.999 391.06 228.999C391.06 228.999 395.493 237.47 395.493 241.935Z" fill="#FF6584"/>
<path opacity="0.1" d="M393.075 243.644C393.075 245.674 392.173 245.114 391.06 245.114C389.948 245.114 389.045 245.674 389.045 243.644C389.045 241.614 391.06 237.764 391.06 237.764C391.06 237.764 393.075 241.614 393.075 243.644Z" fill="black"/>
<path d="M396.617 230.004C396.617 230.004 397.538 229.043 397.519 228.101L396.617 230.004Z" fill="#FF6584"/>
<path d="M387.179 221.999C387.179 221.999 386.794 220.723 385.966 220.278L387.179 221.999Z" fill="#FF6584"/>
<path d="M377.936 204.718C377.936 204.718 377.552 203.443 376.724 202.998L377.936 204.718Z" fill="#FF6584"/>
<path d="M388.86 227.9C388.86 227.9 388.475 226.624 387.647 226.179L388.86 227.9Z" fill="#FF6584"/>
<path d="M387.599 207.247C387.599 207.247 387.215 205.971 386.387 205.526L387.599 207.247Z" fill="#FF6584"/>
<path d="M385.078 214.834C385.078 214.834 384.694 213.558 383.866 213.113L385.078 214.834Z" fill="#FF6584"/>
<path d="M395.777 243.069C395.777 243.069 396.698 242.108 396.679 241.166L395.777 243.069Z" fill="#FF6584"/>
<path d="M397.457 235.904C397.457 235.904 398.378 234.943 398.36 234.001L397.457 235.904Z" fill="#FF6584"/>
<path d="M385.952 234.699L375.869 238.071L376.002 238.471L386.085 235.099L385.952 234.699Z" fill="#FF6584"/>
<path d="M385.22 235.101C385.599 236.585 384.963 236.231 384.384 236.351C383.804 236.471 383.918 237.007 383.121 235.537C382.57 234.521 383.378 234.408 383.958 234.287C384.538 234.167 384.962 234.088 385.22 235.101Z" fill="#FF6584"/>
<path opacity="0.1" d="M232.161 135.848L218.865 125.74L218.745 125.764L213.422 121.762L213.164 121.7L213.442 121.613L156.822 78.57L102.141 37L74.279 49.2197L72 49.6369L105.39 91.3031L231.759 249H381L232.161 135.848Z" fill="#9F98FF"/>
<g filter="url(#filter0_d_598_947)">
<path d="M100.5 103C122.868 103 141 84.8675 141 62.5C141 40.1325 122.868 22 100.5 22C78.1325 22 60 40.1325 60 62.5C60 84.8675 78.1325 103 100.5 103Z" fill="#F2F2F2"/>
</g>
<g filter="url(#filter1_d_598_947)">
<path d="M82.9016 49.8376C78.1996 54.8714 77.633 62.4651 83.0798 67.136C84.8223 68.6913 86.921 69.7477 89.1709 70.2021C92.59 70.8426 96.1158 70.2747 99.1917 68.5879C101.496 67.1788 103.175 64.8752 103.862 62.1786C104.629 58.9863 104.183 55.6075 102.619 52.7509C102.01 51.6228 101.145 50.6683 100.101 49.9714C100.041 49.9453 99.9863 49.9061 99.9416 49.8563C99.897 49.8064 99.8631 49.7472 99.8422 49.6825C99.8213 49.6178 99.8139 49.5491 99.8206 49.4812C99.8272 49.4133 99.8477 49.3477 99.8807 49.2887C99.9137 49.2298 99.9584 49.1789 100.012 49.1396C100.065 49.1002 100.126 49.0733 100.19 49.0606C100.254 49.0479 100.32 49.0497 100.384 49.0659C100.447 49.0822 100.507 49.1124 100.558 49.1547C102.888 50.7546 104.296 53.3909 105.036 56.118C107.581 65.9229 101.444 74.3763 91.6978 74.4097C82.1887 74.6198 74.1602 64.5665 77.9665 54.9813C78.9039 52.6403 80.4193 50.6015 82.3578 49.0735C82.4552 49.0094 82.5721 48.986 82.6852 49.0081C82.7983 49.0302 82.8993 49.0961 82.968 49.1926C83.0367 49.2891 83.068 49.4091 83.0556 49.5287C83.0433 49.6483 82.9883 49.7586 82.9016 49.8376Z" fill="#514C9A"/>
<path d="M100.713 49.7781C100.833 49.5459 100.75 49.2562 100.528 49.131C100.306 49.0059 100.029 49.0926 99.909 49.3247C99.5973 49.929 99.5033 50.6835 99.5664 51.5085C99.6297 52.3376 99.8542 53.2735 100.217 54.2728C100.944 56.272 102.244 58.5779 104.023 60.8814C107.582 65.4878 113.105 70.1457 119.94 72.3401C121.425 72.8154 122.95 73.1415 124.495 73.3137C124.746 73.3416 124.971 73.1517 124.997 72.8894C125.024 72.6271 124.843 72.3918 124.592 72.3639C123.105 72.1982 121.637 71.8844 120.208 71.4269C113.581 69.2991 108.202 64.7706 104.734 60.2814C103 58.037 101.756 55.8177 101.072 53.9338C100.729 52.9916 100.532 52.1464 100.477 51.4324C100.422 50.7143 100.515 50.1637 100.713 49.7781Z" fill="#514C9A"/>
</g>
<path d="M105.054 73.8936C105.858 71.4197 108.943 62.8708 116.286 60.4208C117.129 60.1398 117.997 59.9478 118.877 59.8477" stroke="#514C9A" stroke-width="2" stroke-linecap="round" stroke-linejoin="round"/>
</g>
</g>
<defs>
<filter id="filter0_d_598_947" x="34" y="0" width="133" height="133" filterUnits="userSpaceOnUse" color-interpolation-filters="sRGB">
<feFlood flood-opacity="0" result="BackgroundImageFix"/>
<feColorMatrix in="SourceAlpha" type="matrix" values="0 0 0 0 0 0 0 0 0 0 0 0 0 0 0 0 0 0 127 0" result="hardAlpha"/>
<feOffset dy="4"/>
<feGaussianBlur stdDeviation="13"/>
<feComposite in2="hardAlpha" operator="out"/>
<feColorMatrix type="matrix" values="0 0 0 0 0.65098 0 0 0 0 0.639216 0 0 0 0 0.819608 0 0 0 1 0"/>
<feBlend mode="normal" in2="BackgroundImageFix" result="effect1_dropShadow_598_947"/>
<feBlend mode="normal" in="SourceGraphic" in2="effect1_dropShadow_598_947" result="shape"/>
</filter>
<filter id="filter1_d_598_947" x="72" y="46" width="58" height="35.4131" filterUnits="userSpaceOnUse" color-interpolation-filters="sRGB">
<feFlood flood-opacity="0" result="BackgroundImageFix"/>
<feColorMatrix in="SourceAlpha" type="matrix" values="0 0 0 0 0 0 0 0 0 0 0 0 0 0 0 0 0 0 127 0" result="hardAlpha"/>
<feOffset dy="2"/>
<feGaussianBlur stdDeviation="2.5"/>
<feComposite in2="hardAlpha" operator="out"/>
<feColorMatrix type="matrix" values="0 0 0 0 0.371251 0 0 0 0 0.280503 0 0 0 0 0.629167 0 0 0 0.6 0"/>
<feBlend mode="normal" in2="BackgroundImageFix" result="effect1_dropShadow_598_947"/>
<feBlend mode="normal" in="SourceGraphic" in2="effect1_dropShadow_598_947" result="shape"/>
</filter>
<linearGradient id="paint0_linear_598_947" x1="213" y1="453" x2="213" y2="242" gradientUnits="userSpaceOnUse">
<stop offset="0.151042" stop-color="#E4DEF4"/>
<stop offset="0.421875" stop-color="#B099C7"/>
<stop offset="1"/>
</linearGradient>
<clipPath id="clip0_598_947">
<rect width="426" height="475" fill="white"/>
</clipPath>
<clipPath id="clip1_598_947">
<rect width="426" height="211" fill="white" transform="matrix(1 0 0 -1 0 453)"/>
</clipPath>
<clipPath id="clip2_598_947">
<rect width="426" height="255" fill="white" transform="translate(0 -6)"/>
</clipPath>
</defs>
</svg>
