<svg width="33" height="32" viewBox="0 0 33 32" fill="none" xmlns="http://www.w3.org/2000/svg">
<path d="M2.53074 6.3249C6.12154 8.65031 8.47001 9.66458 10.5753 9.96242C10.3476 6.16435 4.1046 -3.56785 0.531013 1.36604C-0.881611 3.31638 0.779499 5.19079 2.53074 6.3249Z" fill="#7EB256"/>
<path d="M6.96385 4.34296C7.40739 5.79202 7.64627 6.87665 10.6057 9.81836C11.5212 7.00456 12.1222 -0.106004 8.66194 0.192222C5.80023 0.438864 6.63802 3.27844 6.96385 4.34296Z" fill="#6A914B"/>
<path d="M9.19265 15.6365C7.07021 22.16 10.5395 29.2017 16.9414 31.3644C23.3434 33.5272 30.2538 29.992 32.3763 23.4685C34.4987 16.9449 31.0295 9.90331 24.6275 7.74056C18.2255 5.57781 11.3151 9.11294 9.19265 15.6365Z" fill="#514C9A"/>
<path d="M29.2168 15.9861C26.5851 16.7421 22.5208 14.1547 23.4068 10.7482C24.5304 12.3999 27.413 15.2139 29.2168 15.9861Z" fill="black"/>
</svg>
