<svg id="visual" viewBox="0 0 581 401" width="581" height="401" xmlns="http://www.w3.org/2000/svg" xmlns:xlink="http://www.w3.org/1999/xlink" version="1.1"><g transform="translate(301.6911559261084 167.44301317092524)"><path d="M96.6 -107.5C124.7 -91.6 146.6 -60.7 163.9 -20.3C181.3 20 194.1 69.8 178.5 109C163 148.3 118.9 177 72.8 189.1C26.7 201.1 -21.5 196.4 -70.2 183C-118.9 169.6 -168 147.4 -191.1 109.4C-214.3 71.3 -211.5 17.2 -194.8 -26.8C-178 -70.8 -147.2 -104.7 -112.4 -119.5C-77.6 -134.2 -38.8 -129.8 -2.2 -127.1C34.3 -124.4 68.6 -123.5 96.6 -107.5" fill="#514C9A"></path></g></svg>