<svg id="visual" viewBox="0 0 581 401" width="581" height="401" xmlns="http://www.w3.org/2000/svg" xmlns:xlink="http://www.w3.org/1999/xlink" version="1.1"><g transform="translate(294.30554814676304 216.81933882119978)"><path d="M135.7 -157C174.1 -129.5 202.3 -85.1 196 -45.6C189.8 -6.2 149.2 28.2 120.1 60.7C91.1 93.1 73.6 123.6 45.5 140.7C17.3 157.9 -21.4 161.6 -67 156.8C-112.5 152 -164.8 138.7 -188.4 105.2C-212 71.7 -206.9 18 -190.7 -26.6C-174.4 -71.2 -147 -106.9 -113.4 -135.3C-79.7 -163.7 -39.9 -184.8 4.4 -190.1C48.6 -195.3 97.3 -184.6 135.7 -157" fill="#514C9A"></path></g></svg>