<svg width="22" height="85" viewBox="0 0 22 85" fill="none" xmlns="http://www.w3.org/2000/svg">
<path d="M6.29263 3.88309C9.4694 7.69544 7.51935 7.80712 12.017 12.5169C7.774 11.6485 -3.33566 5.40869 0.977181 1.13472C2.02283 0.0985001 4.6572 1.92044 6.29263 3.88309Z" fill="#7EB256"/>
<path d="M6.3759 52.5158C8.8999 55.5448 7.35055 55.6336 10.924 59.3755C7.55288 58.6856 -1.27397 53.728 2.15266 50.3322C2.98345 49.5089 5.07651 50.9565 6.3759 52.5158Z" fill="#7EB256"/>
<path d="M18.9536 36.3879C15.5533 38.1736 13.9436 38.8634 11.2768 39.9653C13.8832 37.0836 15.4824 29.5336 20.4944 32.4411C22.254 33.4619 20.0417 35.8165 18.9536 36.3879Z" fill="#7EB256"/>
<path d="M17.9271 78.5582C14.8363 81.3321 13.3536 82.456 10.8922 84.2684C13.0717 80.3018 13.6844 70.8348 18.9345 73.4846C20.7777 74.4149 18.9162 77.6706 17.9271 78.5582Z" fill="#7EB256"/>
</svg>
