<svg width="476" height="300" viewBox="0 0 476 300" fill="none" xmlns="http://www.w3.org/2000/svg">
<g clip-path="url(#clip0_540_1660)">
<path d="M282.303 9.20352C316.553 -9.12198 360.022 0.485135 383.069 32.9787L382.284 33.5353C359.522 1.44282 316.584 -8.04333 282.757 10.0519C279.883 11.5896 277.108 13.3069 274.45 15.1935C239.663 39.8665 231.435 88.2403 256.108 123.027L255.324 123.584C230.344 88.3644 238.674 39.3885 273.894 14.4089C276.585 12.4993 279.394 10.7607 282.303 9.20352Z" fill="white"/>
<path d="M463.743 87.5332L351.093 78.7696C349.344 78.6315 347.722 77.8055 346.581 76.4727C345.441 75.1399 344.876 73.4091 345.01 71.6601L349.893 16.9277C350.031 15.179 350.857 13.5565 352.19 12.4161C353.523 11.2757 355.254 10.7105 357.003 10.8446L469.652 19.6083C471.401 19.7463 473.024 20.5723 474.164 21.9051C475.304 23.238 475.87 24.9687 475.736 26.7177L470.852 81.4501C470.714 83.1988 469.888 84.8213 468.555 85.9617C467.222 87.1021 465.492 87.6673 463.743 87.5332Z" fill="#E6E6E6"/>
<path d="M437.132 75.1687C436.277 75.1687 435.419 75.1353 434.558 75.0684L361.756 69.4047C360.3 69.2915 358.881 68.8927 357.58 68.2311C356.278 67.5694 355.12 66.6579 354.17 65.5485C353.221 64.4392 352.5 63.1537 352.047 61.7655C351.595 60.3773 351.42 58.9136 351.534 57.4579L353.194 36.1182C353.426 33.1795 354.814 30.4528 357.053 28.5363C359.293 26.6198 362.202 25.6701 365.141 25.8954L459.282 33.2192C462.221 33.4512 464.947 34.8393 466.864 37.079C468.78 39.3187 469.73 42.2271 469.505 45.1662C468.87 53.3215 465.185 60.9381 459.186 66.4985C453.186 72.0588 445.312 75.1544 437.132 75.1687V75.1687Z" fill="white"/>
<path d="M457.03 50.1834L364.743 43.0039C364.551 42.9889 364.364 42.9362 364.192 42.8489C364.02 42.7615 363.867 42.6411 363.741 42.4945C363.616 42.348 363.521 42.1782 363.461 41.9948C363.401 41.8115 363.378 41.6182 363.393 41.4259C363.408 41.2336 363.461 41.0462 363.548 40.8743C363.636 40.7024 363.756 40.5494 363.902 40.424C364.049 40.2986 364.219 40.2033 364.402 40.1436C364.585 40.0838 364.779 40.0608 364.971 40.0757L457.258 47.2552C457.45 47.2702 457.638 47.3229 457.81 47.4103C457.982 47.4977 458.135 47.6181 458.26 47.7646C458.385 47.9111 458.481 48.0809 458.54 48.2643C458.6 48.4476 458.623 48.641 458.608 48.8332C458.593 49.0255 458.541 49.2129 458.453 49.3848C458.366 49.5567 458.245 49.7098 458.099 49.8351C457.952 49.9605 457.783 50.0558 457.599 50.1156C457.416 50.1753 457.223 50.1984 457.03 50.1834Z" fill="#E6E6E6"/>
<path d="M418.71 53.0225L364.293 48.7891C363.905 48.7587 363.545 48.5754 363.292 48.2795C363.039 47.9836 362.914 47.5993 362.944 47.2111C362.974 46.823 363.157 46.4627 363.453 46.2095C363.749 45.9562 364.133 45.8308 364.521 45.8608L418.938 50.0942C419.131 50.1091 419.318 50.1617 419.49 50.2491C419.662 50.3364 419.815 50.4568 419.941 50.6034C420.066 50.7499 420.162 50.9198 420.221 51.1032C420.281 51.2866 420.304 51.48 420.289 51.6724C420.274 51.8647 420.222 52.0522 420.134 52.2242C420.047 52.3962 419.926 52.5492 419.78 52.6746C419.633 52.8 419.463 52.8953 419.28 52.955C419.096 53.0147 418.903 53.0376 418.71 53.0226V53.0225Z" fill="#E6E6E6"/>
<path d="M430.698 59.7754L363.844 54.5744C363.651 54.5596 363.464 54.507 363.292 54.4196C363.12 54.3322 362.967 54.2118 362.841 54.0653C362.716 53.9187 362.62 53.7489 362.561 53.5655C362.501 53.382 362.478 53.1886 362.493 52.9963C362.508 52.8039 362.56 52.6164 362.648 52.4444C362.735 52.2725 362.856 52.1194 363.002 51.994C363.149 51.8687 363.319 51.7734 363.502 51.7137C363.686 51.654 363.879 51.631 364.072 51.6461L430.926 56.8471C431.314 56.8775 431.675 57.0608 431.928 57.3567C432.181 57.6526 432.306 58.0369 432.276 58.4251C432.245 58.8132 432.062 59.1735 431.766 59.4267C431.471 59.68 431.087 59.8054 430.698 59.7754Z" fill="#E6E6E6"/>
<path d="M456.203 161.832L343.554 153.068C341.805 152.93 340.182 152.104 339.042 150.771C337.902 149.439 337.336 147.708 337.471 145.959L342.354 91.2265C342.492 89.4779 343.318 87.8553 344.651 86.7149C345.984 85.5745 347.715 85.0093 349.463 85.1434L462.113 93.9071C463.862 94.0451 465.484 94.8711 466.625 96.204C467.765 97.5368 468.33 99.2675 468.196 101.017L463.313 155.749C463.175 157.498 462.349 159.12 461.016 160.261C459.683 161.401 457.952 161.966 456.203 161.832Z" fill="#E6E6E6"/>
<path d="M429.566 149.466C428.723 149.466 427.875 149.432 427.021 149.366L354.219 143.703C352.763 143.59 351.344 143.191 350.043 142.529C348.741 141.868 347.583 140.956 346.633 139.847C345.684 138.737 344.963 137.452 344.51 136.064C344.058 134.675 343.883 133.212 343.996 131.756L345.657 110.416C345.77 108.961 346.169 107.542 346.83 106.24C347.492 104.938 348.404 103.78 349.513 102.831C350.622 101.881 351.908 101.16 353.296 100.707C354.685 100.255 356.148 100.08 357.604 100.194L451.745 107.517C453.201 107.631 454.62 108.03 455.921 108.691C457.223 109.353 458.381 110.264 459.331 111.374C460.28 112.483 461.001 113.769 461.454 115.157C461.906 116.545 462.081 118.009 461.968 119.464C461.323 127.621 457.632 135.236 451.628 140.795C445.624 146.354 437.748 149.449 429.566 149.466Z" fill="white"/>
<path d="M449.493 124.482L357.206 117.302C357.014 117.287 356.826 117.235 356.655 117.147C356.483 117.06 356.33 116.939 356.204 116.793C356.079 116.646 355.984 116.477 355.924 116.293C355.864 116.11 355.841 115.917 355.856 115.724C355.871 115.532 355.924 115.345 356.011 115.173C356.098 115.001 356.219 114.848 356.365 114.722C356.512 114.597 356.682 114.502 356.865 114.442C357.048 114.382 357.242 114.359 357.434 114.374L449.721 121.554C449.913 121.569 450.101 121.621 450.273 121.709C450.444 121.796 450.597 121.916 450.723 122.063C450.848 122.209 450.943 122.379 451.003 122.563C451.063 122.746 451.086 122.939 451.071 123.132C451.056 123.324 451.003 123.511 450.916 123.683C450.829 123.855 450.708 124.008 450.562 124.133C450.415 124.259 450.245 124.354 450.062 124.414C449.879 124.474 449.685 124.497 449.493 124.482Z" fill="#E6E6E6"/>
<path d="M411.173 127.321L356.756 123.088C356.564 123.073 356.376 123.02 356.204 122.933C356.032 122.845 355.879 122.725 355.753 122.578C355.628 122.432 355.533 122.262 355.473 122.079C355.413 121.895 355.39 121.702 355.405 121.509C355.42 121.317 355.473 121.13 355.56 120.958C355.647 120.786 355.768 120.633 355.915 120.507C356.061 120.382 356.231 120.287 356.415 120.227C356.598 120.167 356.791 120.144 356.984 120.159L411.401 124.393C411.789 124.423 412.149 124.606 412.402 124.902C412.655 125.198 412.78 125.583 412.75 125.971C412.72 126.359 412.537 126.719 412.241 126.972C411.945 127.226 411.561 127.351 411.173 127.321Z" fill="#E6E6E6"/>
<path d="M423.16 134.074L356.306 128.873C355.918 128.843 355.557 128.66 355.304 128.364C355.051 128.068 354.925 127.683 354.956 127.295C354.986 126.907 355.169 126.546 355.465 126.293C355.761 126.04 356.145 125.915 356.534 125.945L423.388 131.146C423.776 131.176 424.137 131.359 424.39 131.655C424.643 131.951 424.769 132.336 424.738 132.724C424.708 133.112 424.525 133.473 424.229 133.726C423.933 133.979 423.549 134.104 423.16 134.074Z" fill="#E6E6E6"/>
<path d="M169.655 133.236C168.225 129.995 167.447 126.505 167.366 122.964C167.285 119.423 167.903 115.901 169.183 112.598C170.463 109.296 172.381 106.278 174.828 103.716C177.275 101.155 180.202 99.1011 183.442 97.6711C186.683 96.2412 190.173 95.4635 193.714 95.3825C197.255 95.3015 200.777 95.9188 204.08 97.199C207.382 98.4793 210.4 100.397 212.962 102.844C215.523 105.291 217.577 108.218 219.007 111.458L218.127 111.847C216.748 108.722 214.767 105.899 212.297 103.54C209.827 101.18 206.917 99.3307 203.732 98.0961C200.548 96.8615 197.151 96.2663 193.736 96.3443C190.321 96.4224 186.956 97.1724 183.831 98.5513C180.706 99.9302 177.883 101.911 175.524 104.381C173.164 106.851 171.315 109.761 170.08 112.946C168.845 116.13 168.25 119.527 168.328 122.942C168.406 126.356 169.156 129.722 170.535 132.847L169.655 133.236Z" fill="white"/>
<path d="M449.228 283.651C460.24 278.433 468.443 267.933 467.164 256.395C457.284 264.395 443.833 268.863 429.947 268.756C424.538 268.714 418.481 268.164 414.551 271.199C412.106 273.087 411.002 276.085 410.863 279.074C410.724 282.062 411.448 285.087 412.169 288.072L411.949 288.779C424.88 289.602 438.215 288.87 449.228 283.651Z" fill="#F2F2F2"/>
<path d="M466.891 256.366C462.631 264.677 455.247 271.604 446.069 275.659C444.059 276.597 441.918 277.226 439.719 277.525C437.48 277.759 435.217 277.463 433.113 276.661C431.118 275.945 429.152 275.013 427.037 274.73C426.001 274.585 424.947 274.651 423.937 274.923C422.928 275.195 421.983 275.669 421.161 276.314C419.206 277.834 418.04 279.938 416.984 282.036C415.811 284.366 414.635 286.805 412.338 288.393C412.06 288.586 412.448 288.986 412.725 288.794C416.722 286.031 417.299 281.036 420.474 277.69C421.221 276.845 422.149 276.181 423.19 275.746C424.23 275.311 425.355 275.117 426.481 275.179C428.64 275.338 430.668 276.298 432.682 277.038C434.73 277.846 436.927 278.207 439.126 278.095C441.342 277.9 443.513 277.348 445.554 276.46C449.991 274.613 454.099 272.058 457.716 268.893C461.712 265.437 465.012 261.248 467.436 256.554C467.583 256.267 467.037 256.081 466.891 256.366H466.891Z" fill="white"/>
<path d="M449.144 274.487C450.304 275.855 451.86 276.827 453.598 277.269C455.336 277.711 457.168 277.6 458.839 276.952C459.16 276.817 458.898 276.347 458.577 276.482C457.022 277.088 455.316 277.192 453.699 276.777C452.082 276.363 450.635 275.453 449.562 274.174C449.337 273.9 448.92 274.215 449.144 274.487V274.487Z" fill="white"/>
<path d="M434.083 277.139C434.296 275.516 434.851 273.956 435.711 272.562C436.57 271.169 437.715 269.973 439.07 269.054C439.348 268.86 438.96 268.46 438.683 268.653C437.275 269.613 436.086 270.859 435.195 272.311C434.304 273.763 433.731 275.388 433.514 277.077C433.474 277.4 434.044 277.459 434.083 277.139L434.083 277.139Z" fill="white"/>
<path d="M461.06 265.083C460.531 264.676 460.114 264.141 459.85 263.527C459.585 262.914 459.482 262.243 459.549 261.579C459.593 261.258 459.023 261.199 458.979 261.518C458.908 262.252 459.023 262.992 459.314 263.67C459.605 264.348 460.061 264.942 460.642 265.397C460.695 265.448 460.763 265.481 460.836 265.489C460.909 265.497 460.983 265.479 461.045 265.44C461.072 265.419 461.094 265.393 461.11 265.363C461.125 265.333 461.134 265.299 461.136 265.265C461.137 265.231 461.131 265.197 461.118 265.166C461.105 265.134 461.086 265.106 461.06 265.083V265.083Z" fill="white"/>
<path d="M430.829 231.999C430.795 232.198 430.761 232.398 430.723 232.599C430.252 235.271 429.532 237.893 428.573 240.432C428.502 240.629 428.427 240.828 428.35 241.023C425.924 247.169 422.235 252.737 417.522 257.367C415.602 259.259 413.531 260.992 411.329 262.547C408.26 264.719 404.718 266.84 402.776 269.766C402.571 270.068 402.386 270.383 402.225 270.711L410.974 288.414C411.016 288.447 411.053 288.481 411.095 288.514L411.409 289.233C411.531 289.159 411.655 289.081 411.777 289.007C411.848 288.965 411.916 288.919 411.987 288.876C412.034 288.847 412.08 288.817 412.124 288.793C412.14 288.783 412.155 288.773 412.167 288.765C412.211 288.741 412.249 288.714 412.288 288.692C412.984 288.254 413.677 287.81 414.367 287.362C414.371 287.36 414.371 287.36 414.374 287.355C419.622 283.923 424.558 280.045 428.613 275.571C428.735 275.437 428.861 275.301 428.979 275.158C430.782 273.147 432.396 270.976 433.802 268.67C434.56 267.417 435.244 266.12 435.852 264.787C437.411 261.344 438.335 257.647 438.579 253.875C439.074 246.319 436.832 238.506 431.26 232.458C431.117 232.303 430.976 232.152 430.829 231.999Z" fill="#F2F2F2"/>
<path d="M430.604 232.12C433.041 241.465 432.202 251.322 428.075 259.709C427.217 261.571 426.035 263.266 424.584 264.715C423.029 266.14 421.118 267.117 419.053 267.544C417.076 268.013 414.973 268.282 413.197 269.182C412.326 269.618 411.57 270.254 410.992 271.039C410.414 271.823 410.029 272.733 409.87 273.694C409.436 276.037 409.987 278.45 410.616 280.799C411.315 283.408 412.086 286.111 411.442 288.696C411.363 289.009 411.924 289.139 412.002 288.827C413.125 284.329 410.175 279.781 410.287 275.231C410.34 273.108 411.114 271.039 413.085 269.863C414.809 268.834 416.977 268.554 418.986 268.096C421.015 267.702 422.917 266.817 424.526 265.519C426.058 264.152 427.316 262.505 428.232 260.667C430.332 256.617 431.681 252.221 432.215 247.691C432.856 242.435 432.491 237.104 431.14 231.985C431.055 231.662 430.521 231.799 430.604 232.12H430.604Z" fill="white"/>
<path d="M429.585 257.058C433.184 258.185 437.003 256.836 438.512 253.921C438.66 253.634 438.147 253.377 437.998 253.664C436.584 256.395 433.05 257.62 429.686 256.566C429.332 256.455 429.233 256.948 429.585 257.058V257.058Z" fill="white"/>
<path d="M420.103 267.428C419.181 266.037 418.552 264.474 418.253 262.833C417.954 261.192 417.992 259.507 418.364 257.881C418.44 257.568 417.879 257.437 417.803 257.75C417.419 259.444 417.384 261.197 417.699 262.905C418.014 264.612 418.673 266.238 419.635 267.683C419.823 267.977 420.29 267.72 420.103 267.428Z" fill="white"/>
<path d="M432.139 242.658C431.432 242.578 430.751 242.343 430.146 241.97C429.54 241.597 429.024 241.096 428.635 240.5C428.45 240.204 427.984 240.461 428.167 240.755C428.6 241.411 429.17 241.965 429.839 242.378C430.507 242.792 431.258 243.055 432.038 243.149C432.193 243.168 432.337 243.113 432.369 242.969C432.377 242.898 432.358 242.825 432.315 242.768C432.273 242.71 432.209 242.67 432.139 242.658Z" fill="white"/>
<path d="M449.401 157.958L442.708 122.325L429.568 105.03L419.83 111.396C421.206 118.86 431.615 132.792 431.615 132.792L440.84 160.349C440.803 160.493 440.769 160.637 440.744 160.786C440.598 161.658 440.679 162.553 440.98 163.384C441.28 164.215 441.79 164.955 442.46 165.532C443.13 166.108 443.938 166.502 444.805 166.676C445.672 166.849 446.568 166.796 447.409 166.522C448.249 166.247 449.004 165.76 449.602 165.109C450.199 164.457 450.618 163.662 450.818 162.801C451.019 161.94 450.994 161.042 450.745 160.194C450.497 159.345 450.034 158.575 449.401 157.958V157.958Z" fill="#FFB8B8"/>
<path d="M420.092 115.161L431.117 106.213L431.138 106.166C433.2 101.493 428.622 93.4814 424.418 87.5832C423.03 85.6394 420.956 84.2951 418.615 83.822C416.274 83.3489 413.841 83.7823 411.807 85.0346C410.313 85.9685 409.11 87.3017 408.334 88.8834C407.559 90.4652 407.24 92.2325 407.416 93.9855L408.344 102.912L420.092 115.161Z" fill="#3F3D56"/>
<path d="M381.13 292.491L373.794 292.49L370.305 264.196L381.131 264.197L381.13 292.491Z" fill="#FFB8B8"/>
<path d="M383 290.096L380.936 290.096L372.875 286.817L368.554 290.095H368.554C366.112 290.095 363.771 291.065 362.044 292.792C360.318 294.518 359.348 296.86 359.348 299.301V299.6L383 299.601L383 290.096Z" fill="#2F2E41"/>
<path d="M413.677 292.491L406.341 292.49L402.852 264.196L413.678 264.197L413.677 292.491Z" fill="#FFB8B8"/>
<path d="M415.549 290.096L413.485 290.096L405.424 286.817L401.103 290.095H401.103C398.661 290.095 396.32 291.065 394.593 292.792C392.867 294.518 391.897 296.86 391.896 299.301V299.6L415.549 299.601L415.549 290.096Z" fill="#2F2E41"/>
<path d="M424.863 170.619C424.863 170.619 425.72 180.898 423.578 190.748C421.437 200.598 421.437 228.34 421.437 228.34L416.726 282.398L402.593 281.113L398.739 190.748L385.034 221.155L386.319 225.438L384.607 226.509C384.607 226.509 385.891 234.86 385.034 234.86C384.178 234.86 382.036 236.145 382.036 236.145L383.749 280.257L369.188 279.828L364.049 217.729L369.616 182.183L370.045 175.33L371.972 175.41L372.953 172.547L374.756 167.622L424.863 170.619Z" fill="#2F2E41"/>
<path d="M425.602 172.779L425.678 172.671C429.755 166.964 423.623 153.25 422.699 151.262L426.594 149.998L425.716 142.543L425.301 139.219L428.278 136.242L428.286 136.168L429.999 121.179L432.49 111.223C433.428 107.459 433.348 103.514 432.258 99.791C431.168 96.0684 429.107 92.7031 426.286 90.0404L420.529 84.6119L413.532 74.2588H402.248L398.379 81.5666C394.628 82.4335 391.3 84.5888 388.975 87.6571C386.65 90.7254 385.475 94.5122 385.655 98.3578L386.531 117.524L383.099 141.387L383.097 145.706L379.234 149.999L380.077 154.217L377.137 155.477L375.839 161.535C375.302 162.243 371.756 166.972 371.756 168.264C371.756 168.458 371.899 168.646 372.207 168.854C374.623 170.49 387.98 173.826 393.891 171.461C400.188 168.943 425.219 172.72 425.472 172.758L425.602 172.779Z" fill="#3F3D56"/>
<path d="M406.434 70.9165C414.687 70.9165 421.377 64.226 421.377 55.9729C421.377 47.7198 414.687 41.0293 406.434 41.0293C398.181 41.0293 391.49 47.7198 391.49 55.9729C391.49 64.226 398.181 70.9165 406.434 70.9165Z" fill="#FFB8B8"/>
<path d="M405.001 71.1586C407.316 71.1349 409.624 70.9137 411.9 70.4972C414.154 69.9779 419.127 66.1327 420.482 63.861C421.489 62.1733 422.093 59.5627 422.423 57.67C422.868 55.1651 422.783 52.5946 422.171 50.125C421.56 47.6554 420.437 45.3417 418.874 43.3338C418.272 42.4926 417.454 41.8298 416.506 41.4156C416.422 41.3852 416.336 41.3587 416.249 41.3363C414.875 41.0124 413.629 40.2852 412.671 39.2481C412.485 39.0381 412.284 38.8418 412.07 38.6606C410.995 37.8003 409.732 37.2065 408.384 36.9277C406.207 36.4047 403.091 37.0601 399.126 38.8773C397.133 39.7903 394.922 39.5356 393.217 39.2117C393.122 39.1958 393.024 39.2051 392.933 39.2389C392.842 39.2726 392.762 39.3296 392.7 39.404C391.996 40.0997 391.055 40.5032 390.066 40.5335C389.461 40.5757 388.847 41.431 388.107 42.5448C387.939 42.7976 387.743 43.0927 387.601 43.2727L387.572 42.9346L387.239 43.3212C386.716 43.9289 386.355 44.6591 386.19 45.4439C386.025 46.2287 386.061 47.0426 386.295 47.8096C386.529 48.5767 386.953 49.2721 387.528 49.831C388.103 50.3899 388.811 50.7942 389.584 51.0062C390.198 51.1526 390.825 51.236 391.455 51.2551C391.838 51.2795 392.233 51.3048 392.613 51.3607C393.833 51.5778 394.975 52.1076 395.929 52.8982C396.883 53.6888 397.616 54.7132 398.056 55.8715C398.16 56.1392 398.324 56.3794 398.535 56.5737C398.746 56.7679 399 56.911 399.275 56.9918C399.551 57.0727 399.841 57.0891 400.124 57.0399C400.407 56.9907 400.675 56.8771 400.907 56.708C401.292 56.3912 401.749 56.1723 402.238 56.0702C402.727 55.9681 403.233 55.9858 403.714 56.1216C404.131 56.34 404.461 56.6955 404.648 57.1283C404.874 57.6101 405.239 58.0136 405.695 58.2874C407.251 59.0394 407.447 62.5436 406.971 65.4813C406.512 68.3129 405.514 70.3786 404.544 70.5044C403.797 70.6013 403.713 70.6567 403.662 70.7905L403.617 70.9103L403.704 71.0191C404.121 71.1584 404.564 71.206 405.001 71.1586Z" fill="#2F2E41"/>
<path d="M240.773 148.185C257.183 148.185 270.487 134.881 270.487 118.47C270.487 102.06 257.183 88.7563 240.773 88.7563C224.362 88.7563 211.059 102.06 211.059 118.47C211.059 134.881 224.362 148.185 240.773 148.185Z" fill="#4923B5" fill-opacity="0.15"/>
<path d="M401.561 114.049L391.759 107.78C385.518 112.097 377.083 127.306 377.083 127.306L355.735 147.028C354.845 147.181 354.012 147.565 353.318 148.142C352.625 148.719 352.095 149.469 351.783 150.316C351.471 151.162 351.388 152.076 351.542 152.966C351.695 153.855 352.081 154.688 352.659 155.381C353.237 156.074 353.987 156.602 354.834 156.913C355.681 157.224 356.595 157.306 357.484 157.151C358.373 156.997 359.206 156.61 359.898 156.032C360.59 155.453 361.118 154.702 361.428 153.855L391.18 133.128L401.561 114.049Z" fill="#FFB8B8"/>
<path d="M400.625 116.592L407.152 100.924L404.791 92.2662C404.322 90.5681 403.386 89.0353 402.091 87.8409C400.796 86.6464 399.193 85.8381 397.462 85.5071C395.113 85.0743 392.688 85.5495 390.676 86.8367C388.664 88.1238 387.216 90.1269 386.625 92.4408C384.837 99.46 383.464 108.585 387.075 112.196L387.111 112.233L400.625 116.592Z" fill="#3F3D56"/>
<path d="M20.4653 290.935C7.68695 284.376 -1.58405 271.701 0.354244 258.156C11.6942 267.95 27.3731 273.715 43.7352 274.107C50.108 274.26 57.2641 273.838 61.7806 277.56C64.591 279.876 65.7785 283.45 65.8311 286.975C65.8837 290.501 64.9173 294.037 63.9572 297.526L64.1888 298.368C48.9258 298.855 33.2437 297.493 20.4653 290.935Z" fill="#F2F2F2"/>
<path d="M0.675358 258.132C5.38253 268.082 13.8231 276.518 24.4829 281.637C26.8167 282.817 29.3154 283.638 31.8945 284.072C34.5235 284.432 37.2003 284.168 39.7086 283.302C42.0849 282.533 44.4358 281.508 46.9384 281.253C48.1638 281.122 49.4032 281.239 50.5825 281.597C51.7617 281.955 52.8565 282.548 53.8015 283.339C56.0473 285.203 57.3422 287.724 58.5085 290.236C59.8034 293.024 61.097 295.942 63.7436 297.898C64.0643 298.135 63.5927 298.592 63.2726 298.356C58.6678 294.952 58.175 289.046 54.559 284.986C52.8717 283.091 50.4912 281.681 47.5762 281.803C45.0272 281.91 42.602 282.965 40.2019 283.761C37.7595 284.638 35.1577 284.98 32.5717 284.766C29.9677 284.453 27.4312 283.722 25.0603 282.601C19.9021 280.259 15.1586 277.095 11.0154 273.232C6.43662 269.011 2.70654 263.954 0.0258742 258.333C-0.136726 257.989 0.513826 257.791 0.675369 258.132H0.675358Z" fill="white"/>
<path d="M20.9043 280.143C18.103 283.338 13.1727 284.418 9.39108 282.684C9.01854 282.513 9.34441 281.969 9.71745 282.141C11.5271 282.912 13.5331 283.098 15.4535 282.67C17.3738 282.243 19.1119 281.224 20.4233 279.758C20.6989 279.443 21.1783 279.83 20.9043 280.143Z" fill="white"/>
<path d="M38.5505 283.829C38.3598 281.909 37.7646 280.05 36.8041 278.377C35.8436 276.703 34.5395 275.252 32.9776 274.118C32.658 273.88 33.1294 273.423 33.4487 273.661C35.0714 274.843 36.4251 276.357 37.4205 278.1C38.4159 279.844 39.0305 281.779 39.2237 283.778C39.2581 284.159 38.5847 284.208 38.5505 283.829V283.829Z" fill="white"/>
<path d="M7.22054 268.62C7.8596 268.16 8.37064 267.545 8.70518 266.832C9.03972 266.12 9.18668 265.333 9.1321 264.548C9.09224 264.168 9.76568 264.12 9.80528 264.497C9.86166 265.365 9.69846 266.232 9.33076 267.02C8.96306 267.808 8.40272 268.491 7.70151 269.005C7.63788 269.064 7.55621 269.099 7.46979 269.106C7.38337 269.112 7.29727 269.089 7.2255 269.041C7.1945 269.015 7.16945 268.983 7.15209 268.947C7.13473 268.911 7.12549 268.871 7.12502 268.831C7.12455 268.791 7.13285 268.752 7.14936 268.715C7.16586 268.678 7.19015 268.646 7.22055 268.62H7.22054Z" fill="white"/>
<path d="M44.0693 230.774C44.1019 231.01 44.1344 231.246 44.172 231.484C44.6273 234.65 45.3775 237.766 46.4128 240.792C46.4885 241.028 46.5693 241.265 46.6527 241.497C49.281 248.828 53.4189 255.525 58.7986 261.156C60.9899 263.456 63.3651 265.574 65.9005 267.489C69.4345 270.161 73.5275 272.793 75.706 276.312C75.9374 276.675 76.1428 277.054 76.3208 277.446L65.3526 297.974C65.3022 298.011 65.2568 298.05 65.2062 298.088L64.8091 298.922C64.6686 298.831 64.5252 298.734 64.3847 298.643C64.3029 298.59 64.2236 298.533 64.1418 298.481C64.088 298.444 64.0343 298.408 63.9832 298.378C63.9653 298.365 63.9475 298.353 63.9346 298.343C63.8835 298.313 63.84 298.28 63.7941 298.252C62.9911 297.71 62.1914 297.162 61.3951 296.608C61.39 296.606 61.39 296.606 61.3873 296.599C55.3331 292.361 49.6633 287.608 45.0531 282.186C44.9145 282.023 44.7706 281.858 44.637 281.686C42.5886 279.25 40.7679 276.631 39.1978 273.863C38.3523 272.358 37.5945 270.805 36.9283 269.212C35.2195 265.098 34.2689 260.708 34.1224 256.255C33.8224 247.336 36.7546 238.215 43.545 231.298C43.7189 231.121 43.8904 230.949 44.0693 230.774Z" fill="#F2F2F2"/>
<path d="M44.3288 230.925C41.1088 241.843 41.7299 253.486 46.2776 263.52C47.2191 265.746 48.5485 267.787 50.2039 269.548C51.9819 271.285 54.1965 272.507 56.6131 273.087C58.9255 273.713 61.3927 274.109 63.4509 275.235C64.4609 275.782 65.3273 276.559 65.9792 277.505C66.6311 278.45 67.05 279.536 67.2017 280.675C67.6259 283.451 66.8868 286.273 66.0575 289.017C65.1368 292.064 64.127 295.219 64.7902 298.289C64.8706 298.661 64.2048 298.793 64.1245 298.422C62.9707 293.082 66.6154 287.834 66.6526 282.47C66.67 279.967 65.8359 277.501 63.5574 276.041C61.5649 274.765 59.0212 274.355 56.6721 273.74C54.2962 273.2 52.0887 272.086 50.2422 270.497C48.488 268.829 47.0677 266.842 46.0573 264.643C43.7351 259.794 42.3097 254.565 41.8498 249.208C41.2913 242.992 41.9203 236.727 43.7033 230.746C43.8145 230.368 44.4393 230.55 44.3288 230.925L44.3288 230.925Z" fill="white"/>
<path d="M44.5986 260.341C40.3163 261.535 35.8685 259.803 34.1995 256.312C34.0351 255.968 34.6501 255.684 34.8148 256.029C36.3783 259.299 40.4952 260.874 44.4982 259.758C44.9194 259.64 45.0174 260.224 44.5986 260.341Z" fill="white"/>
<path d="M55.3808 272.911C56.5183 271.307 57.3181 269.489 57.7316 267.567C58.1451 265.645 58.1637 263.659 57.7863 261.73C57.7075 261.358 58.3733 261.225 58.452 261.597C58.8404 263.606 58.8164 265.673 58.3816 267.672C57.9467 269.672 57.1101 271.562 55.9225 273.229C55.6895 273.568 55.149 273.249 55.3808 272.911H55.3808Z" fill="white"/>
<path d="M42.1257 243.281C42.9612 243.214 43.7716 242.963 44.4989 242.546C45.2263 242.129 45.8529 241.557 46.3339 240.871C46.5622 240.529 47.1025 240.849 46.8757 241.189C46.341 241.945 45.6482 242.576 44.8453 243.038C44.0425 243.5 43.1488 243.782 42.2261 243.864C42.043 243.88 41.8747 243.811 41.8431 243.639C41.8356 243.555 41.8607 243.471 41.9133 243.404C41.9658 243.338 42.0418 243.294 42.1257 243.281Z" fill="white"/>
<path d="M82.7266 127.893L83.6893 136.821L83.1228 148.528L109.054 145.447L111.49 127.893L108.386 127.923L82.7266 127.893Z" fill="#FFB6B6"/>
<path d="M69.2773 289.983H74.9466L77.6449 268.115H69.2773V289.983Z" fill="#FFB6B6"/>
<path d="M67.4253 286.099L76.4827 285.559V289.439L85.0938 295.386C85.5191 295.68 85.8394 296.102 86.008 296.591C86.1765 297.079 86.1845 297.609 86.0306 298.102C85.8768 298.596 85.5693 299.027 85.153 299.333C84.7366 299.64 84.2332 299.805 83.7164 299.805H72.9332L71.0746 295.966L70.3489 299.805H66.2832L67.4253 286.099Z" fill="#2F2E41"/>
<path d="M101.121 289.983H106.79L109.488 268.115H101.121V289.983Z" fill="#FFB6B6"/>
<path d="M99.271 286.099L108.328 285.559V289.439L116.939 295.386C117.365 295.68 117.685 296.102 117.854 296.591C118.022 297.079 118.03 297.609 117.876 298.102C117.723 298.596 117.415 299.027 116.999 299.333C116.582 299.64 116.079 299.805 115.562 299.805H104.779L102.92 295.966L102.195 299.805H98.1289L99.271 286.099Z" fill="#2F2E41"/>
<path d="M66.831 271.125H66.8927L67.983 235.57C67.2774 234.209 66.9193 232.695 66.9406 231.162C66.9619 229.629 67.3619 228.125 68.105 226.784L68.2611 226.501L67.8563 224.625C67.3365 222.215 67.575 219.703 68.5392 217.433L69.5564 184.266C65.9225 160.716 83.2406 145.357 83.2406 145.357H109.183L114.753 164.493C118.435 200.365 117.767 235.322 111.924 269.189L112.083 269.269C112.657 269.467 112.903 270.262 112.633 271.044C112.363 271.826 111.679 272.3 111.106 272.102L97.4048 271.625C96.8312 271.427 96.5852 270.633 96.8552 269.851C97.1251 269.068 97.809 268.595 98.3825 268.793L99.3141 269.264L97.3274 234.954L97.5479 228.687L97.0937 221.578L94.9936 189.599L87.0445 228.924L78.9249 271.521C79.1489 271.724 79.3061 271.99 79.3757 272.284C79.4454 272.578 79.4243 272.886 79.3152 273.168C79.2061 273.449 79.0141 273.691 78.7646 273.862C78.5152 274.032 78.2199 274.123 77.9177 274.122H66.831C66.634 274.122 66.4389 274.084 66.2568 274.008C66.0748 273.933 65.9093 273.823 65.7699 273.684C65.6304 273.545 65.5198 273.379 65.4444 273.197C65.3689 273.016 65.3301 272.82 65.3301 272.624C65.3301 272.427 65.3689 272.231 65.4444 272.05C65.5198 271.868 65.6304 271.702 65.7699 271.563C65.9093 271.424 66.0748 271.314 66.2568 271.239C66.4389 271.163 66.634 271.125 66.831 271.125Z" fill="#2F2E41"/>
<path d="M87.2548 82.2083C94.9398 82.2083 101.17 75.9783 101.17 68.2933C101.17 60.6083 94.9398 54.3784 87.2548 54.3784C79.5698 54.3784 73.3398 60.6083 73.3398 68.2933C73.3398 75.9783 79.5698 82.2083 87.2548 82.2083Z" fill="#FFB6B6"/>
<path d="M26.2797 132.58C28.2354 128.039 30.9209 123.85 34.2298 120.177C31.4279 124.643 29.8265 129.756 29.5809 135.023C30.5954 135.656 31.6568 136.212 32.7559 136.683C36.059 138.069 39.5809 138.86 43.1592 139.02C45.0878 132.595 48.4167 126.677 52.9063 121.692C49.6707 126.851 48.0436 132.857 48.2321 138.945C52.2233 138.6 56.1557 137.757 59.9377 136.436C65.6163 134.483 71.1284 131.565 75.0555 127.027C79.3057 122.116 81.4004 115.634 82.0768 109.173C82.7533 102.717 82.1172 96.2009 81.4762 89.7398C81.1733 86.6607 83.7375 83.1173 83.4347 80.0382H83.2328C81.885 78.1907 80.5121 76.2978 79.8508 74.1072C79.1946 71.9215 79.3662 69.3421 80.8755 67.6208C81.7211 66.7215 82.7881 66.06 83.9697 65.7027C84.0808 65.5614 84.2019 65.4251 84.3281 65.2888C86.6137 62.8612 89.3037 60.8492 92.2782 59.3426C90.1329 60.9629 88.6994 62.7952 88.0331 64.6881C89.8907 64.2793 91.7482 63.8721 93.6058 63.4666C94.2265 62.8081 94.8802 62.1814 95.5643 61.5889C96.5587 60.7257 96.8867 60.6601 98.073 59.8474C97.1153 60.6899 96.3729 61.749 95.9075 62.9366C98.2951 62.3359 100.683 61.4324 101.924 59.378C103.984 55.9808 101.536 51.3976 98.1184 49.3684C95.6326 47.9641 92.7683 47.3768 89.9304 47.6893C87.0925 48.0018 84.4247 49.1983 82.304 51.1098C77.3623 47.4704 70.3258 47.531 64.8289 50.2517C61.1999 52.1283 58.0738 54.8476 55.7128 58.1817C57.0824 58.0059 58.461 57.9098 59.8418 57.8939C57.8981 58.1784 56.0473 58.9111 54.4357 60.0342C53.7227 61.1412 53.069 62.2852 52.4772 63.4615C52.0885 64.2338 51.7217 65.0162 51.3768 65.8087C49.2618 70.6242 47.8838 75.7527 46.4553 80.8205C44.7896 86.7263 43.0027 92.6725 39.8832 97.9574C35.1003 105.994 27.5552 112.013 18.6577 114.892C17.9157 121.571 21.1765 128.102 26.2797 132.58Z" fill="#2F2E41"/>
<path d="M101.267 91.5133L98.566 90.4992L95.1605 84.9927L83.0299 85.9839L80.0814 91.8882L72.9785 97.3125L76.0847 113.672L80.9106 133.543L113.216 129.505L113.182 114.546C113.182 114.546 119.019 102.728 109.589 98.2993L101.267 91.5133Z" fill="#4923B5"/>
<path d="M151.062 143.402C150.435 143.654 149.761 143.765 149.086 143.728C148.411 143.691 147.753 143.506 147.157 143.187C146.561 142.868 146.043 142.422 145.638 141.881C145.234 141.339 144.953 140.716 144.815 140.054L108.795 118.259L115.379 110.663L148.715 134.476C149.842 134.318 150.987 134.579 151.934 135.21C152.881 135.84 153.564 136.796 153.854 137.896C154.143 138.997 154.019 140.165 153.504 141.18C152.99 142.194 152.121 142.985 151.062 143.402V143.402Z" fill="#FFB6B6"/>
<path d="M96.7918 107.923C96.7918 107.923 95.0704 109.655 99.3897 112.503C102.848 114.783 118.271 126.05 123.739 127.832C123.67 128.635 123.871 129.438 124.309 130.115C124.748 130.791 125.398 131.303 126.159 131.569L131.11 120.69C130.038 118.203 128.324 118.779 127.422 119.342L121.443 114.846L106.762 100.186L98.0138 106.649L96.7918 107.923Z" fill="#4923B5"/>
<path d="M82.3931 51.4883C80.7205 53.9563 79.6401 56.777 79.2357 59.7308C78.8313 62.6846 79.114 65.6919 80.0617 68.5186" fill="#7EB256"/>
<path d="M63.152 169.358C62.8161 169.477 62.5409 169.723 62.3866 170.044C62.2324 170.365 62.2117 170.734 62.3292 171.07L81.1083 225.195C81.2267 225.531 81.4734 225.807 81.7943 225.961C82.1153 226.115 82.4844 226.136 82.8206 226.018L192.09 187.68C192.426 187.562 192.701 187.315 192.855 186.994C193.009 186.673 193.03 186.304 192.912 185.968L174.133 131.843C174.015 131.507 173.768 131.232 173.447 131.077C173.126 130.923 172.757 130.903 172.421 131.02L63.152 169.358Z" fill="#E6E6E6"/>
<path d="M90.8091 218.206C88.6587 218.206 86.5613 217.539 84.805 216.298C83.0488 215.057 81.7198 213.303 81.0008 211.277L70.6878 182.098C69.7693 179.499 69.9207 176.642 71.1088 174.155C72.2969 171.668 74.4243 169.754 77.023 168.836L132.249 149.317C142.587 145.676 153.947 146.284 163.837 151.009C173.726 155.733 181.338 164.187 185.002 174.517C185.921 177.116 185.769 179.973 184.581 182.46C183.393 184.947 181.266 186.861 178.667 187.779L178.587 187.553L178.667 187.779L94.2625 217.612C93.1535 218.005 91.9857 218.206 90.8091 218.206Z" fill="white"/>
<path d="M164.046 160.689L114.596 178.039C113.9 178.283 113.036 177.63 112.668 176.58C112.299 175.53 112.565 174.48 113.262 174.236L162.712 156.886C163.409 156.641 164.272 157.295 164.641 158.345C165.009 159.395 164.743 160.445 164.046 160.689Z" fill="#E6E6E6"/>
<path d="M167.87 171.59L118.421 188.94C117.724 189.184 116.86 188.531 116.492 187.481C116.124 186.431 116.39 185.381 117.086 185.137L166.536 167.787C167.233 167.543 168.096 168.196 168.465 169.246C168.833 170.296 168.567 171.346 167.87 171.59Z" fill="#E6E6E6"/>
<path d="M107.904 183.97C108.434 185.466 108.692 187.046 108.665 188.633C108.655 189.359 108.583 190.084 108.451 190.798C108.029 193.106 107.006 195.261 105.484 197.047C103.962 198.832 101.996 200.184 99.7836 200.966C97.5717 201.748 95.1925 201.932 92.8867 201.499C90.5809 201.067 88.4302 200.033 86.652 198.502C86.4725 198.349 86.2977 198.19 86.1276 198.027C84.6754 196.635 83.5572 194.933 82.8569 193.047C82.1566 191.162 81.8924 189.142 82.0841 187.14C82.2758 185.137 82.9184 183.205 83.9637 181.486C85.009 179.768 86.4299 178.308 88.1198 177.218C89.8097 176.127 91.7246 175.433 93.721 175.188C95.7174 174.943 97.7434 175.153 99.6469 175.802C101.55 176.452 103.282 177.524 104.712 178.939C106.142 180.353 107.233 182.073 107.904 183.97Z" fill="#E4E4E4"/>
<path d="M95.9 190.443C97.3063 190.443 98.4464 189.303 98.4464 187.897C98.4464 186.49 97.3063 185.35 95.9 185.35C94.4936 185.35 93.3535 186.49 93.3535 187.897C93.3535 189.303 94.4936 190.443 95.9 190.443Z" fill="#7EB256"/>
<path d="M86.1289 198.027C86.7827 196.509 87.5553 194.195 89.3451 195.037C90.2294 195.421 91.8129 196.585 92.4559 195.231L97.4907 184.691C97.5861 184.495 97.7199 184.319 97.8841 184.175C98.0483 184.031 98.2397 183.921 98.447 183.852C98.6543 183.783 98.8733 183.756 99.0911 183.773C99.309 183.79 99.5213 183.85 99.7156 183.95L108.666 188.633C108.656 189.359 108.584 190.083 108.452 190.798L86.6533 198.502L86.1289 198.027Z" fill="#3F3D56"/>
<path d="M88.7278 166.902C88.098 166.657 87.5295 166.277 87.0624 165.789C86.5953 165.3 86.241 164.715 86.0244 164.075C85.8078 163.435 85.7341 162.755 85.8087 162.084C85.8832 161.412 86.1041 160.765 86.4558 160.188L75.0605 119.659L85.0584 118.614L93.1158 158.781C94.046 159.437 94.7036 160.41 94.964 161.518C95.2244 162.625 95.0695 163.79 94.5286 164.791C93.9878 165.792 93.0985 166.559 92.0294 166.948C90.9603 167.338 89.7855 167.321 88.7278 166.902Z" fill="#FFB6B6"/>
<path d="M73.3737 97.4101C73.3737 97.4101 70.9333 97.4978 72.1396 102.529C73.1053 106.557 76.6518 131.824 79.4247 136.862C78.8258 137.401 78.4234 138.124 78.2809 138.918C78.1384 139.711 78.2639 140.529 78.6376 141.243L89.6869 136.686C90.6046 134.138 89.894 131.825 88.8502 131.62L87.5593 124.251L85.6569 99.5313L75.1365 97.3154L73.3737 97.4101Z" fill="#4923B5"/>
<path d="M172.909 204.049L157.628 204.681C157.301 204.696 156.976 204.636 156.676 204.506C156.376 204.377 156.109 204.181 155.896 203.934C155.685 203.693 155.531 203.407 155.447 203.099C155.362 202.79 155.348 202.466 155.407 202.151C156.579 195.757 156.237 189.177 154.409 182.938C154.268 182.461 154.296 181.95 154.49 181.491C154.683 181.033 155.03 180.656 155.47 180.425C161.73 177.173 167.594 177.008 172.901 179.934C173.179 180.085 173.421 180.295 173.609 180.549C173.798 180.803 173.929 181.095 173.993 181.405C175.375 188.213 175.706 195.192 174.975 202.1C174.925 202.619 174.687 203.103 174.308 203.462C173.928 203.82 173.431 204.028 172.909 204.049Z" fill="#4923B5"/>
<path d="M172.263 194.047L160.579 194.531C160.435 194.537 160.291 194.515 160.156 194.465C160.02 194.416 159.896 194.34 159.79 194.242C159.684 194.145 159.598 194.027 159.537 193.897C159.477 193.766 159.442 193.624 159.436 193.48C159.431 193.336 159.453 193.193 159.503 193.057C159.552 192.922 159.628 192.798 159.726 192.692C159.823 192.586 159.941 192.5 160.072 192.439C160.203 192.379 160.344 192.345 160.488 192.339L172.172 191.855C172.316 191.849 172.46 191.871 172.595 191.921C172.73 191.971 172.855 192.046 172.961 192.144C173.067 192.241 173.152 192.359 173.213 192.49C173.273 192.62 173.308 192.762 173.314 192.906C173.32 193.05 173.297 193.193 173.248 193.328C173.198 193.464 173.122 193.588 173.025 193.694C172.927 193.8 172.81 193.886 172.679 193.946C172.548 194.007 172.407 194.041 172.263 194.047Z" fill="white"/>
<path d="M172.104 190.203L160.42 190.687C160.129 190.699 159.845 190.595 159.631 190.398C159.417 190.201 159.29 189.927 159.278 189.636C159.266 189.345 159.37 189.062 159.567 188.848C159.764 188.634 160.038 188.507 160.329 188.495L172.013 188.011C172.304 187.999 172.587 188.103 172.801 188.3C173.015 188.497 173.142 188.771 173.155 189.061C173.167 189.352 173.063 189.636 172.866 189.85C172.669 190.064 172.395 190.191 172.104 190.203Z" fill="white"/>
<path d="M452.385 84.5105L437.22 82.5216C436.896 82.4798 436.586 82.3651 436.312 82.1862C436.039 82.0073 435.81 81.7689 435.641 81.4887C435.475 81.2153 435.372 80.9077 435.342 80.589C435.311 80.2704 435.353 79.9489 435.464 79.6488C437.713 73.549 438.501 67.0072 437.766 60.5479C437.708 60.0537 437.824 59.5548 438.093 59.1363C438.362 58.7179 438.768 58.4056 439.242 58.2529C445.965 56.119 451.771 56.9592 456.499 60.7495C456.748 60.9459 456.95 61.1941 457.092 61.4768C457.235 61.7594 457.314 62.0698 457.324 62.3861C457.521 69.3296 456.654 76.2623 454.754 82.9434C454.615 83.4469 454.299 83.8831 453.863 84.1712C453.428 84.4593 452.902 84.5798 452.385 84.5105Z" fill="#4923B5"/>
<path d="M453.457 74.5457L441.863 73.025C441.72 73.0062 441.582 72.9595 441.457 72.8876C441.332 72.8156 441.223 72.7198 441.135 72.6055C441.047 72.4913 440.983 72.3609 440.946 72.2217C440.908 72.0826 440.899 71.9375 440.918 71.7946C440.936 71.6518 440.983 71.5141 441.055 71.3893C441.127 71.2645 441.223 71.1551 441.337 71.0673C441.451 70.9796 441.582 70.9152 441.721 70.8779C441.86 70.8405 442.005 70.8309 442.148 70.8496L453.743 72.3704C454.031 72.4083 454.293 72.5591 454.47 72.7899C454.647 73.0206 454.726 73.3123 454.688 73.6007C454.65 73.8892 454.499 74.1508 454.268 74.328C454.038 74.5053 453.746 74.5836 453.457 74.5457Z" fill="white"/>
<path d="M453.959 70.7316L442.365 69.2108C442.222 69.1923 442.084 69.1458 441.959 69.0739C441.833 69.002 441.724 68.9062 441.636 68.7919C441.548 68.6776 441.483 68.5471 441.446 68.4078C441.408 68.2685 441.399 68.1232 441.418 67.9802C441.436 67.8372 441.483 67.6993 441.555 67.5744C441.627 67.4495 441.723 67.34 441.838 67.2522C441.952 67.1645 442.083 67.1002 442.222 67.063C442.362 67.0258 442.507 67.0164 442.65 67.0355L454.245 68.5562C454.388 68.5747 454.526 68.6212 454.651 68.6931C454.776 68.765 454.885 68.8608 454.973 68.9751C455.061 69.0894 455.126 69.2199 455.163 69.3592C455.201 69.4985 455.211 69.6438 455.192 69.7868C455.173 69.9298 455.126 70.0677 455.054 70.1927C454.982 70.3176 454.886 70.427 454.772 70.5148C454.657 70.6025 454.526 70.6669 454.387 70.704C454.248 70.7412 454.102 70.7506 453.959 70.7316Z" fill="white"/>
<path d="M250.39 113.902H245.341V108.853C245.341 107.641 244.86 106.479 244.003 105.622C243.146 104.765 241.984 104.284 240.772 104.284C239.561 104.284 238.399 104.765 237.542 105.622C236.685 106.479 236.204 107.641 236.204 108.853V113.902H231.154C229.943 113.902 228.781 114.383 227.924 115.24C227.067 116.097 226.586 117.259 226.586 118.471C226.586 119.682 227.067 120.844 227.924 121.701C228.781 122.558 229.943 123.039 231.154 123.039H236.204V128.089C236.204 129.3 236.685 130.462 237.542 131.319C238.399 132.176 239.561 132.657 240.772 132.657C241.984 132.657 243.146 132.176 244.003 131.319C244.86 130.462 245.341 129.3 245.341 128.089V123.039H250.39C251.602 123.039 252.764 122.558 253.621 121.701C254.477 120.844 254.959 119.682 254.959 118.471C254.959 117.259 254.477 116.097 253.621 115.24C252.764 114.383 251.602 113.902 250.39 113.902Z" fill="white"/>
<path d="M413.912 20.4546C416.571 20.4546 418.727 18.2991 418.727 15.6401C418.727 12.9812 416.571 10.8257 413.912 10.8257C411.253 10.8257 409.098 12.9812 409.098 15.6401C409.098 18.2991 411.253 20.4546 413.912 20.4546Z" fill="#3F3D56"/>
<path d="M118.16 156.548C120.819 156.548 122.975 154.393 122.975 151.734C122.975 149.075 120.819 146.919 118.16 146.919C115.501 146.919 113.346 149.075 113.346 151.734C113.346 154.393 115.501 156.548 118.16 156.548Z" fill="#3F3D56"/>
</g>
<defs>
<clipPath id="clip0_540_1660">
<rect width="475.755" height="300" fill="white"/>
</clipPath>
</defs>
</svg>
