<svg id="visual" viewBox="0 0 1000 100" width="1000" height="100" xmlns="http://www.w3.org/2000/svg" xmlns:xlink="http://www.w3.org/1999/xlink" version="1.1"><path d="M0 90L41.7 85.8C83.3 81.7 166.7 73.3 250 70.2C333.3 67 416.7 69 500 70.8C583.3 72.7 666.7 74.3 750 73.7C833.3 73 916.7 70 958.3 68.5L1000 67L1000 101L958.3 101C916.7 101 833.3 101 750 101C666.7 101 583.3 101 500 101C416.7 101 333.3 101 250 101C166.7 101 83.3 101 41.7 101L0 101Z" fill="#FFFFFF" stroke-linecap="round" stroke-linejoin="miter"></path></svg>