<svg id="visual" viewBox="0 0 1000 100" width="1000" height="100" xmlns="http://www.w3.org/2000/svg" xmlns:xlink="http://www.w3.org/1999/xlink" version="1.1"><rect x="0" y="0" width="1000" height="100" fill="#002233"></rect><path d="M0 94L41.7 88.7C83.3 83.3 166.7 72.7 250 66.5C333.3 60.3 416.7 58.7 500 63.2C583.3 67.7 666.7 78.3 750 84C833.3 89.7 916.7 90.3 958.3 90.7L1000 91L1000 101L958.3 101C916.7 101 833.3 101 750 101C666.7 101 583.3 101 500 101C416.7 101 333.3 101 250 101C166.7 101 83.3 101 41.7 101L0 101Z" fill="#FFFFFF" stroke-linecap="round" stroke-linejoin="miter"></path></svg>