<svg id="visual" viewBox="0 0 1000 100" width="1000" height="100" xmlns="http://www.w3.org/2000/svg" xmlns:xlink="http://www.w3.org/1999/xlink" version="1.1"><rect x="0" y="0" width="1000" height="100" fill="#002233"></rect><path d="M0 60L41.7 59.8C83.3 59.7 166.7 59.3 250 57.7C333.3 56 416.7 53 500 59C583.3 65 666.7 80 750 86.5C833.3 93 916.7 91 958.3 90L1000 89L1000 101L958.3 101C916.7 101 833.3 101 750 101C666.7 101 583.3 101 500 101C416.7 101 333.3 101 250 101C166.7 101 83.3 101 41.7 101L0 101Z" fill="#FFFFFF" stroke-linecap="round" stroke-linejoin="miter"></path></svg>