<svg width="71" height="129" viewBox="0 0 96 159" fill="none" xmlns="http://www.w3.org/2000/svg">
<path d="M46.7813 135.138H42.5872L40.5918 119.771L46.7817 119.771L46.7813 135.138Z" fill="#FFB8B8"/>
<path d="M47.8496 139L34.32617 138.999V138.837C34.32616 138.18 34.4623 137.53 34.72682 136.924C34.99135 136.317 35.3791 135.766 35.8679 135.301C36.3566 134.837 36.9369 134.469 37.5756 134.217C38.2142 133.966 38.8987 133.837 39.5899 133.837H39.5902L47.8499 133.837L47.8496 139Z" fill="#2F2E41"/>
<path d="M93.6313 131.41L89.6781 132.74L82.3965 118.888L88.2313 116.925L93.6313 131.41Z" fill="#FFB8B8"/>
<path d="M95.9994 134.712L83.2517 139L83.1946 138.847C82.9638 138.228 82.8636 137.572 82.8998 136.916C82.9359 136.261 83.1077 135.618 83.4052 135.025C83.7028 134.433 84.1203 133.902 84.634 133.462C85.1476 133.023 85.7474 132.684 86.399 132.465L86.3993 132.464L94.1851 129.845L95.9994 134.712Z" fill="#2F2E41"/>
<path d="M46.6634 129.978C46.5693 129.978 46.4754 129.97 46.3828 129.954L41.254 129.068C40.9049 129.007 40.5887 128.833 40.3583 128.577C40.128 128.32 39.9976 127.996 39.9891 127.659C39.2436 94.8645 42.9088 72.8265 50.8828 57.0304C51.0247 56.7509 51.257 56.5218 51.5457 56.3767C51.8345 56.2316 52.1645 56.1781 52.4876 56.224L70.9308 58.7533C71.2676 58.7998 71.5786 58.9509 71.8155 59.1829C72.0524 59.415 72.2018 59.715 72.2404 60.0361L73.8667 73.6536C73.8755 73.727 73.8918 73.7995 73.9152 73.87L91.5982 124.198C91.7188 124.565 91.6837 124.961 91.5005 125.303C91.3173 125.645 91.0004 125.905 90.6177 126.028L85.839 127.541C85.4874 127.651 85.106 127.638 84.764 127.503C84.4221 127.368 84.1422 127.122 83.9752 126.808L60.0561 83.9645C60.0086 83.8744 59.9329 83.8004 59.8393 83.7529C59.7458 83.7053 59.639 83.6864 59.5337 83.6989C59.4284 83.7113 59.3297 83.7545 59.2513 83.8224C59.1729 83.8903 59.1186 83.9797 59.0958 84.0781L48.1619 128.829C48.088 129.154 47.899 129.446 47.6264 129.655C47.3537 129.864 47.0139 129.978 46.6634 129.978Z" fill="#2F2E41"/>
<path d="M32.08727 30.4702C32.12926 30.6455 32.15661 30.8238 32.16911 31.0032L46.8649 39.0567L50.437 37.1033L54.245 41.8389L48.2752 45.8808C47.7929 46.2073 47.2121 46.3764 46.62 46.3627C46.028 46.349 45.4566 46.1533 44.9916 45.8048L29.83769 34.4483C29.1538 34.6888 28.40905 34.7258 27.70249 34.5544C26.99592 34.3829 26.36105 34.0113 25.88229 33.4887C25.40354 32.9662 25.10358 32.3176 25.02235 31.6292C24.94112 30.9407 25.08245 30.2451 25.42755 29.6349C25.77264 29.0246 26.30514 28.5286 26.95422 28.2129C27.6033 27.8971 28.33818 27.7766 29.06115 27.8672C29.78412 27.9579 30.46088 28.2555 31.00144 28.7205C31.542 29.1855 31.92074 29.7957 32.08727 30.4702Z" fill="#FFB8B8"/>
<path d="M47.0685 38.2519C47.1127 38.046 47.2032 37.8516 47.3337 37.6819C47.4643 37.5122 47.6318 37.3713 47.825 37.2688L54.5688 33.6867C55.4648 33.0297 56.5985 32.7371 57.7213 32.8729C58.8441 33.0087 59.8644 33.5619 60.5585 34.4113C61.2525 35.2606 61.5637 36.3368 61.4238 37.4037C61.2839 38.4707 60.7043 39.4414 59.8121 40.103L54.4351 45.407C54.2817 45.5584 54.0957 45.6765 53.8898 45.7534C53.6839 45.8304 53.463 45.8642 53.2421 45.8527C53.0212 45.8412 52.8055 45.7846 52.6097 45.6868C52.4139 45.589 52.2427 45.4522 52.1075 45.2859L47.3578 39.4383C47.2226 39.272 47.1267 39.0799 47.0768 38.8751C47.0269 38.6704 47.024 38.4578 47.0685 38.2519Z" fill="#6C63FF"/>
<path d="M62.7715 29.6675C67.412 29.6675 71.1739 26.094 71.1739 21.6858C71.1739 17.27764 67.412 13.7041 62.7715 13.7041C58.131 13.7041 54.3691 17.27764 54.3691 21.6858C54.3691 26.094 58.131 29.6675 62.7715 29.6675Z" fill="#FFB8B8"/>
<path d="M70.9516 60.4562C70.8682 60.4562 70.7849 60.4497 70.7025 60.4368L52.5187 57.605C52.3133 57.5731 52.1168 57.5018 51.9412 57.3956C51.7655 57.2894 51.6144 57.1505 51.4969 56.9873C51.3794 56.824 51.298 56.6398 51.2576 56.4458C51.2172 56.2518 51.2186 56.0521 51.2618 55.8586L52.1464 51.8967C51.6936 51.255 48.0062 45.6749 52.4973 40.4335C52.4112 38.5714 53.0935 36.751 54.3991 35.3597C55.7047 33.9684 57.5305 33.1162 59.4876 32.9845L68.8849 32.3063C70.0938 32.2191 71.307 32.4091 72.4225 32.8602C73.538 33.3113 74.5231 34.0103 75.2949 34.8983C76.0668 35.7864 76.6028 36.8376 76.8578 37.9635C77.1129 39.0894 77.0796 40.257 76.7606 41.3681L72.4525 59.3188C72.3744 59.6416 72.1836 59.9297 71.911 60.1363C71.6384 60.3428 71.3003 60.4556 70.9516 60.4562Z" fill="#6C63FF"/>
<path d="M87.9331 75.4671C88.2415 75.0492 88.4497 74.5721 88.543 74.0695C88.6364 73.5669 88.6126 73.0509 88.4733 72.558C88.334 72.0651 88.0827 71.6072 87.7369 71.2165C87.3912 70.8258 86.9595 70.5119 86.4722 70.2969L76.119 40.0591L70.1191 42.7635L81.4472 72.2057C81.1212 73.0073 81.116 73.8946 81.4326 74.6995C81.7493 75.5044 82.3657 76.171 83.1652 76.573C83.9647 76.975 84.8916 77.0845 85.7703 76.8806C86.6491 76.6768 87.4186 76.1739 87.9331 75.4671Z" fill="#FFB8B8"/>
<path d="M78.408 45.093L70.4411 47.3792C70.2144 47.4443 69.9756 47.4622 69.741 47.4316C69.5064 47.4011 69.2815 47.3229 69.0815 47.2024C68.8816 47.0818 68.7114 46.9218 68.5824 46.7331C68.4535 46.5444 68.3689 46.3316 68.3343 46.109L67.1248 38.3113C66.7819 37.2079 66.9133 36.0204 67.4904 35.0089C68.0674 33.9974 69.043 33.2444 70.2034 32.915C71.3638 32.5855 72.6143 32.7064 73.681 33.2512C74.7477 33.796 75.5436 34.7202 75.8943 35.8214L79.4221 42.9273C79.5231 43.1308 79.5767 43.3525 79.5793 43.5774C79.5818 43.8024 79.5334 44.0252 79.4371 44.2307C79.3409 44.4363 79.1992 44.6197 79.0216 44.7685C78.844 44.9173 78.6347 45.028 78.408 45.093Z" fill="#6C63FF"/>
<path d="M54.604 21.9942C56.4693 22.6695 58.4997 22.8214 60.4533 22.4316C62.4069 22.0419 64.2015 21.127 65.6233 19.79599C64.742 22.0079 64.9884 31.3891 64.9884 31.3891C64.9884 31.3891 72.8043 27.8642 73.8646 27.2477C80.1275 23.6067 71.4898 7.76789 64.3042 10.26578C63.0871 10.68886 62.0706 11.18667 61.5783 12.32543C60.5053 11.06819 58.4743 10.7955 56.912 11.44127C55.3497 12.08704 54.2391 13.48647 53.642 15.00228C53.1705 16.22547 52.9872 17.53201 53.105 18.82981C53.2228 20.1276 53.6388 21.3851 54.3238 22.5135L54.604 21.9942Z" fill="black"/>

<path d="M13.49991 25H8.50009C7.57264 25.0027 6.68395 25.37233 6.02814 26.02813C5.37233 26.68394 5.0027 27.57263 5 28.50009V33.49991C5.0027 34.42737 5.37233 35.3161 6.02814 35.9719C6.68395 36.6277 7.57264 36.9973 8.50009 37H13.49991C14.42736 36.9973 15.3161 36.6277 15.9719 35.9719C16.6277 35.316 16.9973 34.42736 17 33.49991V28.50009C16.9973 27.57264 16.6277 26.68394 15.9719 26.02813C15.3161 25.37233 14.42736 25.0027 13.49991 25Z" fill="#3F3D56"/>
<path d="M14.24875 28.49971C14.0504 28.49929 13.86032 28.42014 13.7203 28.27966C13.58027 28.13919 13.50174 27.94886 13.50195 27.75052C13.50217 27.55217 13.58111 27.36202 13.72144 27.22184C13.86177 27.08167 14.052 27.00293 14.25035 27.00293C14.4487 27.00293 14.63895 27.08167 14.77928 27.22184C14.91961 27.36202 14.99853 27.55217 14.99874 27.75052C14.99896 27.94886 14.92043 28.13919 14.7804 28.27966C14.64037 28.42014 14.45032 28.49929 14.25197 28.49971H14.24875Z" fill="white"/>
<path d="M11 29.0004C11.39558 29.00041 11.78227 29.11771 12.11119 29.33748C12.4401 29.55726 12.69646 29.86962 12.84784 30.23509C12.99922 30.60056 13.03881 31.00272 12.96164 31.3907C12.88446 31.77868 12.69397 32.13506 12.41425 32.41477C12.13454 32.69449 11.77816 32.88498 11.39018 32.96215C11.00221 33.03932 10.60007 32.99971 10.2346 32.84833C9.86914 32.69694 9.55677 32.44059 9.337 32.11168C9.11723 31.78277 8.99992 31.39606 8.99992 31.00048C8.99992 30.73783 9.05166 30.47774 9.15217 30.23508C9.25269 29.99242 9.40001 29.77193 9.58573 29.58621C9.77146 29.40048 9.99194 29.25316 10.2346 29.15264C10.47727 29.05213 10.73735 29.0004 11 29.0004ZM11 28.00049C10.40666 28.00049 9.82665 28.17643 9.3333 28.50607C8.83995 28.83572 8.45544 29.30425 8.22838 29.85243C8.00131 30.40061 7.94189 31.0038 8.05764 31.58575C8.17339 32.16769 8.45912 32.70224 8.87867 33.1218C9.29823 33.54136 9.83277 33.82708 10.41471 33.94284C10.99665 34.0586 11.59985 33.99919 12.14803 33.77213C12.69621 33.54507 13.16475 33.16055 13.49439 32.66721C13.82404 32.17386 13.99997 31.59384 13.99998 31.00049C13.99997 30.20485 13.68389 29.44179 13.12129 28.87919C12.55869 28.31658 11.79565 28.0005 11 28.0005V28.00049Z" fill="white"/>


<path fillNaNrule="evenodd" clipNaNrule="evenodd" d="M33.8867 6.94209C33.8865 5.61523 33.5061 4.31623 32.7905 3.19886C32.0749 2.08149 31.0542 1.19254 29.8491 0.63726C28.64403 0.08198 27.30507 -0.11638 25.99076 0.06566C24.67645 0.2477 23.44182 0.80251 22.43303 1.66442C21.42424 2.52633 20.68354 3.65925 20.29861 4.92904C19.91368 6.19883 19.90064 7.55234 20.26104 8.82931C20.62144 10.1063 21.34018 11.2533 22.33219 12.1344C23.32419 13.0156 24.54789 13.5941 25.85845 13.8014V8.94978H24.09502V6.94209H25.85845V5.41209C25.85845 3.67221 26.89532 2.71038 28.48113 2.71038C29.00192 2.71764 29.52147 2.76301 30.0356 2.84615V4.55502H29.15964C29.0104 4.53526 28.85865 4.54933 28.71558 4.59616C28.57252 4.64299 28.44181 4.72138 28.33314 4.82556C28.22447 4.92973 28.14061 5.05701 28.08778 5.19798C28.03495 5.33894 28.01451 5.48998 28.02794 5.63991V6.94241H29.95349L29.64598 8.95009H28.02794V13.8021C29.66131 13.5434 31.1488 12.7104 32.2227 11.4528C33.2967 10.1953 33.8868 8.59582 33.8867 6.94209Z" fill="#3F3D56"/>
</svg>
