<svg width="484" height="376" viewBox="0 0 484 376" fill="none" xmlns="http://www.w3.org/2000/svg">
<path d="M240.249 370.823H235.096L232.645 350.899L240.25 350.899L240.249 370.823Z" fill="#FFB8B8"/>
<path d="M241.563 375.829L224.947 375.829V375.618C224.947 374.767 225.115 373.924 225.44 373.137C225.765 372.351 226.241 371.636 226.841 371.034C227.442 370.432 228.155 369.955 228.94 369.629C229.724 369.303 230.565 369.136 231.415 369.136H231.415L241.563 369.136L241.563 375.829Z" fill="#2F2E41"/>
<path d="M297.816 365.99L292.958 367.714L284.012 349.755L291.181 347.21L297.816 365.99Z" fill="#FFB8B8"/>
<path d="M300.723 370.27L285.06 375.83L284.99 375.631C284.707 374.829 284.584 373.978 284.628 373.128C284.672 372.278 284.883 371.445 285.249 370.676C285.615 369.908 286.128 369.219 286.759 368.65C287.39 368.08 288.127 367.641 288.927 367.356L288.928 367.356L298.494 363.96L300.723 370.27Z" fill="#2F2E41"/>
<path d="M240.106 364.133C239.99 364.133 239.875 364.123 239.761 364.102L233.459 362.954C233.03 362.874 232.642 362.649 232.359 362.316C232.076 361.984 231.916 361.564 231.905 361.126C230.989 318.61 235.493 290.038 245.29 269.559C245.464 269.197 245.75 268.9 246.105 268.711C246.459 268.523 246.865 268.454 247.262 268.513L269.922 271.793C270.336 271.853 270.718 272.049 271.009 272.35C271.3 272.65 271.484 273.039 271.531 273.456L273.53 291.11C273.541 291.206 273.56 291.299 273.589 291.391L295.316 356.64C295.464 357.115 295.421 357.629 295.196 358.072C294.971 358.516 294.581 358.853 294.111 359.012L288.24 360.974C287.808 361.116 287.339 361.099 286.919 360.924C286.499 360.75 286.155 360.43 285.95 360.023L256.561 304.478C256.503 304.361 256.41 304.265 256.295 304.204C256.18 304.142 256.049 304.118 255.919 304.134C255.79 304.15 255.669 304.206 255.572 304.294C255.476 304.382 255.409 304.498 255.381 304.625L241.947 362.643C241.856 363.065 241.624 363.443 241.289 363.714C240.954 363.985 240.536 364.133 240.106 364.133Z" fill="#2F2E41"/>
<path d="M222.196 235.125C222.248 235.352 222.281 235.583 222.297 235.816L240.353 246.257L244.742 243.724L249.421 249.864L242.086 255.104C241.493 255.527 240.78 255.747 240.052 255.729C239.325 255.711 238.623 255.457 238.051 255.005L219.432 240.282C218.592 240.594 217.677 240.642 216.809 240.42C215.941 240.197 215.161 239.715 214.572 239.038C213.984 238.361 213.616 237.52 213.516 236.627C213.416 235.735 213.59 234.833 214.014 234.042C214.438 233.25 215.092 232.607 215.889 232.198C216.687 231.789 217.59 231.632 218.478 231.75C219.366 231.868 220.198 232.253 220.862 232.856C221.526 233.459 221.992 234.25 222.196 235.125Z" fill="#FFB8B8"/>
<path d="M240.601 245.213C240.655 244.946 240.767 244.694 240.927 244.474C241.087 244.254 241.293 244.072 241.531 243.939L249.816 239.295C250.917 238.443 252.31 238.063 253.69 238.239C255.069 238.416 256.323 239.133 257.176 240.234C258.029 241.335 258.411 242.73 258.239 244.114C258.067 245.497 257.355 246.755 256.259 247.613L249.652 254.49C249.464 254.686 249.235 254.839 248.982 254.939C248.729 255.038 248.458 255.082 248.186 255.067C247.915 255.053 247.65 254.979 247.409 254.852C247.169 254.725 246.958 254.548 246.792 254.333L240.957 246.751C240.79 246.536 240.673 246.287 240.611 246.021C240.55 245.756 240.546 245.48 240.601 245.213Z" fill="#6C63FF"/>
<path d="M259.896 234.084C265.598 234.084 270.22 229.451 270.22 223.736C270.22 218.021 265.598 213.388 259.896 213.388C254.194 213.388 249.572 218.021 249.572 223.736C249.572 229.451 254.194 234.084 259.896 234.084Z" fill="#FFB8B8"/>
<path d="M269.949 274C269.847 274 269.744 273.992 269.643 273.975L247.301 270.304C247.049 270.262 246.807 270.17 246.592 270.032C246.376 269.895 246.19 269.715 246.046 269.503C245.901 269.291 245.801 269.052 245.752 268.801C245.702 268.549 245.704 268.29 245.757 268.04L246.844 262.903C246.287 262.071 241.757 254.837 247.275 248.041C247.169 245.627 248.007 243.267 249.612 241.463C251.216 239.66 253.459 238.555 255.864 238.384L267.41 237.505C268.895 237.392 270.386 237.638 271.756 238.223C273.127 238.808 274.337 239.714 275.286 240.865C276.234 242.017 276.893 243.38 277.206 244.839C277.519 246.299 277.478 247.813 277.086 249.253L271.793 272.526C271.697 272.944 271.463 273.318 271.128 273.585C270.793 273.853 270.377 273.999 269.949 274Z" fill="#6C63FF"/>
<path d="M290.813 293.461C291.192 292.919 291.448 292.301 291.563 291.649C291.677 290.997 291.648 290.329 291.477 289.689C291.306 289.05 290.997 288.457 290.572 287.95C290.147 287.444 289.617 287.037 289.018 286.758L276.298 247.556L268.926 251.062L282.844 289.233C282.444 290.272 282.437 291.422 282.826 292.466C283.215 293.509 283.973 294.374 284.955 294.895C285.937 295.416 287.076 295.558 288.156 295.294C289.236 295.029 290.181 294.377 290.813 293.461Z" fill="#FFB8B8"/>
<path d="M279.111 254.082L269.322 257.046C269.044 257.13 268.75 257.154 268.462 257.114C268.174 257.074 267.898 256.973 267.652 256.817C267.406 256.661 267.197 256.453 267.039 256.208C266.88 255.964 266.776 255.688 266.734 255.399L265.248 245.29C264.826 243.859 264.988 242.32 265.697 241.008C266.406 239.697 267.605 238.721 269.03 238.294C270.456 237.867 271.992 238.023 273.303 238.73C274.614 239.436 275.592 240.634 276.023 242.062L280.357 251.274C280.481 251.538 280.547 251.826 280.55 252.117C280.553 252.409 280.494 252.698 280.376 252.964C280.257 253.231 280.083 253.468 279.865 253.661C279.647 253.854 279.39 253.998 279.111 254.082Z" fill="#6C63FF"/>
<path d="M249.861 224.136C252.153 225.011 254.647 225.208 257.048 224.703C259.448 224.197 261.653 223.011 263.4 221.286C262.317 224.153 262.62 236.316 262.62 236.316C262.62 236.316 272.223 231.746 273.526 230.947C281.221 226.226 270.608 205.692 261.779 208.93C260.284 209.479 259.035 210.124 258.43 211.6C257.112 209.97 254.616 209.617 252.697 210.454C250.777 211.291 249.413 213.106 248.679 215.071C248.1 216.657 247.874 218.35 248.019 220.033C248.164 221.716 248.675 223.346 249.517 224.809L249.861 224.136Z" fill="black"/>
<path d="M390 232C433.078 232 468 187.9 468 133.5C468 79.1 433.078 35 390 35C346.922 35 312 79.1 312 133.5C312 187.9 346.922 232 390 232Z" fill="#F2F2F2"/>
<path d="M448.183 68C465.146 118.005 446.731 175.871 407.053 197.249C376.183 213.88 340.333 203.8 318 172.208C334.961 222.214 380.876 245.425 420.556 224.05C460.235 202.675 478.652 144.809 461.692 94.803C458.499 85.2633 453.949 76.2358 448.183 68Z" fill="#E6E6E6"/>
<path d="M386.535 97.9639H386.803L391.636 375.707H381.434L386.535 97.9639Z" fill="#CCCCCC"/>
<path d="M402.078 280.299L385.922 288.825L388.173 293.111L404.329 284.586L402.078 280.299Z" fill="#CCCCCC"/>
<path d="M77 264C111.794 264 140 228.631 140 185C140 141.37 111.794 106 77 106C42.2061 106 14 141.37 14 185C14 228.631 42.2061 264 77 264Z" fill="#F2F2F2"/>
<path d="M124.014 132C137.698 172.248 122.843 218.823 90.8358 236.029C65.9339 249.416 37.015 241.302 19 215.875C32.6816 256.124 69.7203 274.805 101.728 257.601C133.736 240.397 148.593 193.822 134.911 153.573C132.334 145.892 128.664 138.625 124.014 132Z" fill="#E6E6E6"/>
<path d="M75.6793 161.229H75.8864L79.6188 375.707H71.7402L75.6793 161.229Z" fill="#CCCCCC"/>
<path d="M87.6828 305.111L75.207 311.695L76.9457 315.005L89.4214 308.421L87.6828 305.111Z" fill="#CCCCCC"/>
<path d="M441.905 376H12.254C12.1079 376 11.9678 375.942 11.8645 375.838C11.7612 375.735 11.7031 375.594 11.7031 375.448C11.7031 375.301 11.7612 375.161 11.8645 375.057C11.9678 374.954 12.1079 374.896 12.254 374.896H441.905C442.051 374.896 442.191 374.954 442.295 375.057C442.398 375.161 442.456 375.301 442.456 375.448C442.456 375.594 442.398 375.735 442.295 375.838C442.191 375.942 442.051 376 441.905 376Z" fill="#CCCCCC"/>
<path fill-rule="evenodd" clip-rule="evenodd" d="M236.423 95.8514C236.422 93.9173 235.869 92.0238 234.828 90.3951C233.788 88.7664 232.304 87.4707 230.551 86.6613C228.799 85.8519 226.852 85.5628 224.94 85.8281C223.029 86.0935 221.234 86.9022 219.767 88.1585C218.3 89.4149 217.223 91.0662 216.663 92.9171C216.103 94.768 216.084 96.7409 216.608 98.6022C217.132 100.464 218.177 102.135 219.62 103.42C221.063 104.704 222.842 105.547 224.748 105.85V98.7778H222.184V95.8514H224.748V93.6212C224.748 91.0851 226.256 89.6831 228.562 89.6831C229.319 89.6937 230.075 89.7598 230.822 89.881V92.3719H229.548C229.331 92.3431 229.111 92.3636 228.903 92.4319C228.695 92.5001 228.505 92.6144 228.347 92.7663C228.189 92.9181 228.067 93.1036 227.99 93.3091C227.913 93.5146 227.883 93.7347 227.903 93.9533V95.8518H230.703L230.256 98.7783H227.903V105.851C230.278 105.474 232.441 104.259 234.003 102.426C235.565 100.593 236.423 98.2619 236.423 95.8514H236.423Z" fill="#3F3D56"/>
<path d="M189.73 125.918L191.569 125.549C191.003 126.209 190.389 126.825 189.73 127.392C189.703 127.76 189.703 128.13 189.73 128.498C186.2 143.685 173.182 136.976 173.182 136.976C177.926 137.087 178.33 135.133 178.33 135.133C175.572 134.728 175.02 132.921 175.02 132.921C175.268 133.052 175.555 133.087 175.826 133.019C176.098 132.951 176.334 132.785 176.491 132.553C175.682 132.369 174.97 131.889 174.494 131.208C174.019 130.526 173.813 129.692 173.917 128.867C174.448 129.251 175.069 129.492 175.719 129.567C175.388 129.162 172.593 125.807 174.285 124.075C174.285 124.075 176.344 127.761 181.75 128.093L182.118 128.019C182.055 127.753 182.031 127.48 182.044 127.208C182.044 126.181 182.451 125.197 183.175 124.471C183.9 123.745 184.882 123.337 185.906 123.337C188.48 123.337 189.032 124.812 189.032 124.812L190.87 123.706C190.834 123.706 190.65 125.549 189.73 125.918Z" fill="#3F3D56"/>
<path d="M235.064 150.498H227.299C225.859 150.502 224.479 151.078 223.46 152.099C222.442 153.119 221.867 154.503 221.863 155.947V163.73C221.867 165.174 222.442 166.557 223.46 167.578C224.479 168.599 225.859 169.174 227.299 169.178H235.064C236.504 169.174 237.885 168.599 238.903 167.578C239.922 166.557 240.496 165.174 240.5 163.73V155.947C240.496 154.503 239.922 153.119 238.903 152.099C237.885 151.078 236.504 150.502 235.064 150.498Z" fill="#3F3D56"/>
<path d="M236.228 155.947C235.92 155.946 235.625 155.823 235.407 155.604C235.19 155.386 235.068 155.089 235.068 154.78C235.069 154.472 235.191 154.176 235.409 153.957C235.627 153.739 235.923 153.617 236.231 153.617C236.539 153.617 236.834 153.739 237.052 153.957C237.27 154.176 237.393 154.472 237.393 154.78C237.393 155.089 237.271 155.386 237.054 155.604C236.836 155.823 236.541 155.946 236.233 155.947H236.228Z" fill="white"/>
<path d="M231.181 156.725C231.795 156.725 232.396 156.908 232.906 157.25C233.417 157.592 233.815 158.078 234.05 158.647C234.286 159.216 234.347 159.842 234.227 160.446C234.107 161.05 233.811 161.605 233.377 162.04C232.943 162.476 232.389 162.772 231.787 162.892C231.184 163.012 230.56 162.951 229.992 162.715C229.424 162.479 228.939 162.08 228.598 161.568C228.257 161.056 228.074 160.454 228.074 159.839C228.074 159.43 228.155 159.025 228.311 158.647C228.467 158.269 228.696 157.926 228.984 157.637C229.273 157.348 229.615 157.118 229.992 156.962C230.369 156.806 230.773 156.725 231.181 156.725ZM231.181 155.168C230.259 155.168 229.358 155.442 228.592 155.956C227.826 156.469 227.229 157.198 226.876 158.051C226.524 158.905 226.431 159.844 226.611 160.75C226.791 161.656 227.235 162.488 227.886 163.141C228.538 163.794 229.368 164.239 230.272 164.419C231.175 164.599 232.112 164.507 232.964 164.153C233.815 163.8 234.543 163.201 235.055 162.433C235.567 161.665 235.84 160.762 235.84 159.839C235.84 158.6 235.349 157.412 234.475 156.536C233.601 155.661 232.416 155.168 231.181 155.168V155.168Z" fill="white"/>
<path d="M205.191 196.597C202.865 196.597 200.61 197.4 198.805 198.87C197 200.339 195.754 202.387 195.278 204.669C194.801 206.95 195.122 209.327 196.187 211.4C197.252 213.472 198.996 215.114 201.126 216.05C201.084 215.269 201.143 214.486 201.302 213.72C201.497 212.895 202.605 208.186 202.605 208.186C202.383 207.681 202.272 207.134 202.279 206.582C202.279 205.077 203.147 203.953 204.232 203.953C204.426 203.95 204.618 203.989 204.795 204.066C204.973 204.144 205.131 204.259 205.261 204.403C205.39 204.547 205.487 204.718 205.545 204.903C205.604 205.088 205.622 205.283 205.598 205.476C205.598 206.405 205.006 207.792 204.703 209.079C204.642 209.317 204.639 209.567 204.692 209.807C204.746 210.047 204.855 210.271 205.01 210.461C205.166 210.651 205.364 210.802 205.589 210.901C205.814 211.001 206.058 211.045 206.303 211.032C208.221 211.032 209.514 208.562 209.514 205.635C209.514 203.409 208.017 201.746 205.3 201.746C204.649 201.72 204 201.827 203.393 202.061C202.785 202.295 202.231 202.65 201.765 203.105C201.298 203.559 200.929 204.105 200.679 204.707C200.429 205.31 200.305 205.957 200.312 206.609C200.282 207.332 200.52 208.041 200.981 208.599C201.062 208.666 201.12 208.756 201.146 208.858C201.172 208.96 201.165 209.068 201.126 209.165C201.076 209.351 200.968 209.8 200.918 209.981C200.909 210.036 200.888 210.088 200.855 210.133C200.822 210.177 200.779 210.214 200.73 210.238C200.68 210.263 200.626 210.276 200.57 210.275C200.515 210.275 200.461 210.261 200.412 210.235C198.996 209.655 198.336 208.105 198.336 206.355C198.336 203.473 200.764 200.015 205.575 200.015C209.441 200.015 211.987 202.82 211.987 205.829C211.987 209.813 209.776 212.786 206.52 212.786C206.036 212.799 205.555 212.69 205.123 212.469C204.691 212.248 204.321 211.923 204.047 211.522C204.047 211.522 203.459 213.861 203.333 214.314C203.099 215.084 202.756 215.816 202.315 216.489C203.708 216.902 205.174 217.009 206.612 216.804C208.05 216.599 209.427 216.086 210.65 215.301C211.873 214.515 212.913 213.475 213.7 212.251C214.487 211.027 215.002 209.648 215.21 208.207C215.419 206.766 215.315 205.297 214.907 203.9C214.5 202.503 213.797 201.21 212.846 200.108C211.896 199.007 210.721 198.124 209.4 197.518C208.079 196.912 206.644 196.598 205.191 196.597L205.191 196.597Z" fill="#3F3D56"/>
<path d="M226.326 114.012C222.731 114.012 219.216 112.943 216.227 110.941C213.238 108.939 210.908 106.094 209.532 102.764C208.156 99.4349 207.796 95.7714 208.498 92.237C209.199 88.7026 210.93 85.4561 213.473 82.9079C216.015 80.3598 219.254 78.6244 222.78 77.9214C226.306 77.2184 229.961 77.5792 233.282 78.9582C236.604 80.3373 239.443 82.6726 241.44 85.6689C243.437 88.6652 244.504 92.1879 244.504 95.7916C244.498 100.622 242.581 105.253 239.173 108.669C235.766 112.085 231.145 114.006 226.326 114.012ZM226.326 78.6756C222.949 78.6755 219.647 79.6794 216.839 81.5601C214.031 83.4408 211.842 86.114 210.55 89.2415C209.258 92.369 208.919 95.8105 209.578 99.1307C210.237 102.451 211.863 105.501 214.251 107.894C216.64 110.288 219.682 111.918 222.995 112.579C226.307 113.239 229.74 112.9 232.861 111.605C235.981 110.309 238.648 108.115 240.524 105.301C242.4 102.486 243.402 99.1768 243.402 95.7916C243.397 91.2537 241.596 86.9032 238.395 83.6944C235.194 80.4857 230.853 78.6807 226.326 78.6756Z" fill="#3F3D56"/>
<path d="M182.375 149.115C178.78 149.115 175.265 148.046 172.276 146.044C169.287 144.042 166.957 141.196 165.581 137.867C164.205 134.538 163.845 130.874 164.547 127.34C165.248 123.806 166.979 120.559 169.521 118.011C172.064 115.463 175.302 113.727 178.829 113.024C182.355 112.321 186.01 112.682 189.331 114.061C192.653 115.44 195.492 117.776 197.489 120.772C199.486 123.768 200.552 127.291 200.552 130.895C200.547 135.725 198.63 140.356 195.222 143.772C191.815 147.188 187.194 149.109 182.375 149.115ZM182.375 113.779C178.998 113.779 175.696 114.782 172.888 116.663C170.08 118.544 167.891 121.217 166.599 124.345C165.306 127.472 164.968 130.914 165.627 134.234C166.286 137.554 167.912 140.604 170.3 142.997C172.688 145.391 175.731 147.021 179.043 147.682C182.356 148.342 185.789 148.003 188.909 146.708C192.03 145.412 194.697 143.218 196.573 140.404C198.449 137.589 199.451 134.28 199.451 130.895C199.446 126.357 197.645 122.006 194.444 118.797C191.242 115.589 186.902 113.784 182.375 113.779Z" fill="#3F3D56"/>
<path d="M231.181 178.059C227.586 178.059 224.072 176.99 221.083 174.988C218.093 172.986 215.763 170.14 214.388 166.811C213.012 163.482 212.652 159.818 213.353 156.284C214.055 152.749 215.786 149.503 218.328 146.955C220.87 144.407 224.109 142.671 227.635 141.968C231.161 141.265 234.816 141.626 238.138 143.005C241.459 144.384 244.298 146.719 246.296 149.716C248.293 152.712 249.359 156.235 249.359 159.838C249.354 164.669 247.437 169.3 244.029 172.716C240.621 176.132 236.001 178.053 231.181 178.059ZM231.181 142.722C227.804 142.722 224.503 143.726 221.695 145.607C218.887 147.488 216.698 150.161 215.405 153.288C214.113 156.416 213.775 159.857 214.434 163.178C215.093 166.498 216.719 169.548 219.107 171.941C221.495 174.335 224.538 175.965 227.85 176.626C231.163 177.286 234.596 176.947 237.716 175.652C240.836 174.356 243.503 172.162 245.38 169.348C247.256 166.533 248.257 163.224 248.257 159.838C248.252 155.301 246.452 150.95 243.25 147.741C240.049 144.533 235.709 142.728 231.181 142.722Z" fill="#3F3D56"/>
<path d="M205.189 224.973C201.594 224.973 198.08 223.904 195.09 221.902C192.101 219.9 189.771 217.054 188.395 213.725C187.02 210.396 186.66 206.732 187.361 203.198C188.062 199.664 189.794 196.417 192.336 193.869C194.878 191.321 198.117 189.585 201.643 188.882C205.169 188.179 208.824 188.54 212.146 189.919C215.467 191.298 218.306 193.634 220.303 196.63C222.301 199.626 223.367 203.149 223.367 206.752C223.361 211.583 221.444 216.214 218.037 219.63C214.629 223.046 210.009 224.967 205.189 224.973ZM205.189 189.636C201.812 189.636 198.511 190.64 195.702 192.521C192.894 194.402 190.706 197.075 189.413 200.202C188.121 203.33 187.783 206.771 188.442 210.092C189.1 213.412 190.727 216.462 193.115 218.855C195.503 221.249 198.546 222.879 201.858 223.54C205.17 224.2 208.604 223.861 211.724 222.566C214.844 221.27 217.511 219.076 219.387 216.262C221.264 213.447 222.265 210.138 222.265 206.752C222.26 202.215 220.459 197.864 217.258 194.655C214.057 191.447 209.716 189.642 205.189 189.636Z" fill="#3F3D56"/>
</svg>
