<svg width="48" height="48" viewBox="0 0 48 48" fill="none" xmlns="http://www.w3.org/2000/svg">
<path d="M4.36364 0C1.97673 0 0 1.97673 0 4.36364V43.6364C0 46.0233 1.97673 48 4.36364 48H43.6364C46.0233 48 48 46.0233 48 43.6364V4.36364C48 1.97673 46.0233 0 43.6364 0H4.36364ZM4.36364 4.36364H43.6364V43.6364H32.3171V28.9091H37.9767L38.7949 22.3636H32.3193V18.1353C32.3193 16.2284 32.7862 14.9324 35.5222 14.9324H39.0676V9C38.4633 8.92364 36.3665 8.79491 33.9556 8.79491C28.9265 8.79491 25.5011 11.8211 25.5011 17.4545V22.3636H19.7738V28.9091H25.4989V43.6364H4.36364V4.36364Z" fill="#4923B5"/>
</svg>
