<svg width="48" height="48" viewBox="0 0 48 48" fill="none" xmlns="http://www.w3.org/2000/svg">
<path d="M33 0H15C6.717 0 0 6.717 0 15V33C0 41.283 6.717 48 15 48H33C41.283 48 48 41.283 48 33V15C48 6.717 41.283 0 33 0ZM43.5 33C43.5 38.79 38.79 43.5 33 43.5H15C9.21 43.5 4.5 38.79 4.5 33V15C4.5 9.21 9.21 4.5 15 4.5H33C38.79 4.5 43.5 9.21 43.5 15V33Z" fill="#4923B5"/>
<path d="M23.999 12.0002C17.372 12.0002 11.999 17.3732 11.999 24.0002C11.999 30.6272 17.372 36.0002 23.999 36.0002C30.626 36.0002 35.999 30.6272 35.999 24.0002C35.999 17.3732 30.626 12.0002 23.999 12.0002ZM23.999 31.5002C19.865 31.5002 16.499 28.1342 16.499 24.0002C16.499 19.8632 19.865 16.5002 23.999 16.5002C28.133 16.5002 31.499 19.8632 31.499 24.0002C31.499 28.1342 28.133 31.5002 23.999 31.5002Z" fill="#4923B5"/>
<path d="M36.9008 12.6996C37.7839 12.6996 38.4998 11.9837 38.4998 11.1007C38.4998 10.2176 37.7839 9.50171 36.9008 9.50171C36.0177 9.50171 35.3018 10.2176 35.3018 11.1007C35.3018 11.9837 36.0177 12.6996 36.9008 12.6996Z" fill="#4923B5"/>
</svg>
