<svg width="150" height="79" viewBox="0 0 150 79" fill="none" xmlns="http://www.w3.org/2000/svg">
<path d="M18.3208 2.60035C3.72395 18.2273 1.96496 41.8012 18.874 56.3014C24.2837 61.1297 30.7988 64.4092 37.7832 65.8199C48.3975 67.8083 59.3431 66.0451 68.8919 60.8086C76.0461 56.4344 81.2569 49.2829 83.3895 40.9117C85.771 31.0014 84.3882 20.5122 79.531 11.6444C77.6414 8.14225 74.9573 5.17906 71.7148 3.01549C71.5273 2.93472 71.3586 2.81286 71.22 2.65815C71.0814 2.50344 70.9761 2.31946 70.9113 2.11862C70.8465 1.91778 70.8236 1.70475 70.8442 1.49389C70.8649 1.28304 70.9285 1.07925 71.0309 0.896287C71.1333 0.71332 71.272 0.555419 71.4377 0.433235C71.6034 0.311051 71.7923 0.227422 71.9915 0.187988C72.1908 0.148554 72.3958 0.154231 72.5928 0.204636C72.7897 0.255041 72.9741 0.349002 73.1334 0.480184C80.368 5.44701 84.7371 13.6312 87.0351 22.097C94.9364 52.5355 75.8854 78.7782 45.6278 78.8819C16.1079 79.5343 -8.81599 48.3248 3.00049 18.5683C5.91039 11.301 10.6148 4.97185 16.6327 0.228136C16.935 0.0291329 17.298 -0.0433399 17.6491 0.0251941C18.0003 0.0937282 18.3138 0.298224 18.527 0.597825C18.7402 0.897425 18.8374 1.27007 18.7992 1.64131C18.7609 2.01254 18.5901 2.35503 18.3208 2.60035Z" fill="#514C9A"/>
<path d="M87.0918 77.2806C89.5884 69.6005 99.1636 43.0614 121.96 35.4554C124.577 34.5832 127.272 33.9871 130.003 33.6763" stroke="#514C9A" stroke-width="2" stroke-linecap="round" stroke-linejoin="round"/>
<path d="M73.6156 2.41413C73.9874 1.69339 73.7298 0.794073 73.0402 0.405448C72.3506 0.0168231 71.4902 0.286054 71.1184 1.00679C70.1507 2.8825 69.8588 5.22506 70.0546 7.78599C70.2513 10.3598 70.9482 13.2652 72.0752 16.3677C74.3299 22.5739 78.3659 29.7325 83.8901 36.8833C94.9372 51.1833 112.085 65.6435 133.303 72.4558C137.912 73.9314 142.648 74.9436 147.442 75.478C148.221 75.5649 148.92 74.9752 149.003 74.161C149.086 73.3468 148.522 72.6163 147.743 72.5295C143.128 72.0151 138.572 71.0412 134.134 69.6208C113.562 63.0151 96.8638 48.957 86.0975 35.0205C80.7149 28.053 76.8522 21.1636 74.7276 15.3151C73.665 12.3901 73.052 9.76644 72.8826 7.54988C72.7122 5.32038 72.998 3.61119 73.6156 2.41413Z" fill="#514C9A"/>
</svg>
