<svg width="88" height="184" viewBox="0 0 88 184" fill="none" xmlns="http://www.w3.org/2000/svg">
<path d="M52.4362 12.7905C52.1603 13.4225 43.6523 13.3548 43.2627 13.9175C40.2584 18.2621 51.0884 36.747 48.084 41.0972L47.6655 41.5875C48.6456 41.1435 49.5871 40.6215 50.4806 40.0266C50.5609 38.246 50.6412 36.4597 50.7272 34.679C51.627 35.8104 52.3533 37.0653 52.8829 38.4037C53.5824 37.9191 54.1562 37.0208 57.1544 35.2538C58.3681 33.9434 59.7674 32.8113 61.3091 31.8925L52.4362 12.7905Z" fill="#2F2E41"/>
<path d="M35 99.7144L39.007 118.034L68.3072 120.714L71 104.763L35 99.7144Z" fill="#FFB6B6"/>
<path d="M58.184 48.2923C57.267 47.6866 56.2208 47.3114 55.1321 47.1978C54.0435 47.0842 52.9439 47.2355 51.9244 47.639C50.905 48.0426 49.9952 48.6868 49.2705 49.5183C48.5458 50.3498 48.0271 51.3445 47.7575 52.4199L35.1299 85.7803L13.4246 73.286C13.3293 71.8499 12.7878 70.4813 11.8779 69.3764C10.968 68.2716 9.73643 67.4873 8.35973 67.136C6.98304 66.7848 5.532 66.8846 4.21472 67.4212C2.89744 67.9578 1.78161 68.9036 1.02725 70.1229C0.272897 71.3423 -0.0812249 72.7725 0.0156784 74.2085C0.112582 75.6445 0.655533 77.0126 1.56666 78.1164C2.47778 79.2202 3.71026 80.003 5.08735 80.3527C6.46443 80.7024 7.91536 80.6009 9.23204 80.0628C13.803 85.0093 33.6198 105.29 41.8238 97.3657C48.7196 90.7051 58.6712 64.8912 61.0667 55.9772C61.4505 54.5518 61.3781 53.0396 60.86 51.6586C60.342 50.2775 59.405 49.0989 58.184 48.2923Z" fill="#FFB6B6"/>
<path d="M79.8358 145.303C79.8223 145.561 79.806 145.816 79.7871 146.074C79.5028 149.802 79.1779 154.102 78.826 158.814C78.271 166.291 78.6254 164.806 78 173.714L45 180.214L14.8633 183.714L26.919 148.122C26.919 148.122 31.7868 145.49 29.3086 141.068C26.8303 136.646 31.7066 140.17 31.752 133.854C31.7974 127.539 36.167 120.82 36.167 120.82L36.8845 111.257L37.2933 111.265L69.6428 111.794L70.233 111.805L71.2266 120.014C77.2594 127.065 80.337 136.105 79.8358 145.303Z" fill="#2F2E41"/>
<path d="M53.2125 39.5585L67.759 38.8008L74.5155 49.5956C74.5155 49.5956 87.228 51.7446 86.3469 66.8913C85.4657 82.038 70.8795 95.3293 70.8795 95.3293L71.503 93.1679L70.4202 96.2965L70.559 98.0532L72.0363 99.9136L72.1884 101.838L70.8795 104.882C71.0497 105.158 71.14 105.476 71.1403 105.801C71.1405 106.126 71.0505 106.445 70.8807 106.721C70.7109 106.997 70.4679 107.22 70.1794 107.363C69.8909 107.507 69.5683 107.566 69.2484 107.533L48.2297 105.403C47.7512 104.072 47.3672 102.48 45.449 105.131L43.4691 104.937L35.2382 104.131L34.7537 102.346C34.4785 101.332 34.4356 100.268 34.6283 99.2351C34.821 98.2018 35.2443 97.2267 35.866 96.3838C35.1511 94.1202 35.3383 91.6638 36.3879 89.5377L36.4273 89.458L37.3013 88.7213C37.3013 88.7213 27.7386 74.195 38.7163 63.2539L43.1222 55.6806L48.0521 49.599L53.2125 39.5585Z" fill="#6C63FF"/>
<path d="M56.6645 33.2272C64.36 33.2272 70.5985 27.1967 70.5985 19.7576C70.5985 12.3186 64.36 6.28809 56.6645 6.28809C48.9689 6.28809 42.7305 12.3186 42.7305 19.7576C42.7305 27.1967 48.9689 33.2272 56.6645 33.2272Z" fill="#FFB6B6"/>
<path d="M66.9616 39.865C65.8372 38.9183 65.0545 37.6239 64.7353 36.1829C64.4799 37.9325 64.5466 39.7145 64.9321 41.4398C64.1843 42.0062 63.4591 42.5444 62.7732 43.0316C62.2539 41.6861 61.5417 40.4246 60.6593 39.2872C60.575 41.0772 60.4963 42.873 60.4175 44.663C59.5414 45.261 58.6182 45.7858 57.6571 46.2321L58.0675 45.7393C61.0135 41.3661 53.39 33.3166 56.3359 28.9491C57.1624 27.7255 53.4293 18.0559 50.5846 17.6197C48.0546 17.2345 48.1615 17.9709 45.7103 18.509C45.4557 17.4394 45.0605 16.4087 44.5352 15.4444C44.6751 16.5189 44.6428 17.6091 44.4397 18.6733C43.5683 18.7073 42.8827 18.1478 41.9547 18.0049C36.0347 17.0929 36.6363 10.6408 38.2835 8.5958C39.9364 6.55651 45.4235 5.94472 47.9535 5.28192C48.1839 5.05536 48.7068 5.19697 48.9373 4.98171C53.7858 0.510819 60.2703 -0.229594 66.1057 1.752C72.3288 3.86523 76.2088 7.95526 78.2001 14.2605L78.7712 19.3063C79.2836 20.9287 78.6391 28.4776 78.2001 30.1217C76.4938 36.5126 72.8599 33.3223 66.9616 39.865Z" fill="#2F2E41"/>
<path d="M87.3192 105.407L86.7789 63.1617C86.7507 61.372 86.0228 59.6652 84.7521 58.4096C83.4813 57.1539 81.7698 56.4502 79.9868 56.4502H79.9868C79.0644 56.4502 78.1517 56.6388 77.3042 57.0044C76.4568 57.3701 75.6924 57.9052 75.0577 58.5771C74.423 59.249 73.9313 60.0436 73.6125 60.9125C73.2937 61.7814 73.1545 62.7064 73.2034 63.6311L75.1047 107.496L75.1408 134.199C74.0202 134.676 73.0731 135.487 72.428 136.524C71.783 137.56 71.4714 138.77 71.5356 139.991C71.5997 141.211 72.0365 142.382 72.7866 143.344C73.5367 144.306 74.5637 145.014 75.7281 145.37C76.8926 145.726 78.1379 145.713 79.295 145.334C80.4521 144.955 81.4649 144.227 82.1957 143.25C82.9265 142.273 83.3399 141.093 83.3798 139.872C83.4197 138.651 83.0841 137.447 82.4186 136.424L87.3192 105.407Z" fill="#FFB6B6"/>
</svg>
