<svg width="365" height="264" viewBox="0 0 365 264" fill="none" xmlns="http://www.w3.org/2000/svg">
<path d="M221.222 83.6292C221.676 83.6501 222.125 83.5311 222.509 83.2884C222.893 83.0457 223.193 82.691 223.369 82.2724C223.544 81.8538 223.586 81.3916 223.489 80.9482C223.393 80.5049 223.162 80.1019 222.828 79.7939C222.772 79.5722 222.732 79.4129 222.676 79.1911C222.696 79.1429 222.717 79.0946 222.737 79.0464C224.777 74.1888 231.691 74.2223 233.714 79.0872C235.51 83.405 237.796 87.7302 238.358 92.2955C238.606 94.3135 238.502 96.3592 238.049 98.3415C242.266 89.1563 244.456 79.1732 244.47 69.0689C244.471 66.5333 244.33 63.9997 244.048 61.4799C243.814 59.4141 243.49 57.3631 243.076 55.3268C240.816 44.2779 235.963 33.922 228.917 25.1094C225.506 23.2513 222.748 20.3938 221.014 16.9221C220.385 15.6742 219.941 14.342 219.695 12.967C220.08 13.0174 221.146 7.16663 220.856 6.80765C221.392 5.99525 222.352 5.59141 222.937 4.79866C225.85 0.856017 229.862 1.54443 231.957 6.90216C236.431 9.1572 236.475 12.897 233.729 16.4939C231.982 18.7822 231.742 21.8786 230.209 24.3284C230.367 24.53 230.531 24.7252 230.689 24.9268C233.571 28.6277 236.084 32.6018 238.19 36.7921C237.594 32.1447 238.473 26.5458 239.973 22.9366C241.68 18.8244 244.88 15.3611 247.698 11.8061C251.083 7.53598 258.023 9.39954 258.619 14.8126C258.625 14.865 258.631 14.9174 258.636 14.9698C258.218 15.2055 257.808 15.4558 257.407 15.7205C256.904 16.0565 256.513 16.5365 256.288 17.0977C256.062 17.6588 256.011 18.275 256.142 18.8654C256.273 19.4559 256.58 19.993 257.022 20.4065C257.464 20.82 258.021 21.0905 258.619 21.1826L258.68 21.1921C258.531 22.6983 258.268 24.191 257.892 25.6573C261.507 39.6164 253.703 44.7005 242.559 44.9289C242.313 45.0549 242.073 45.1808 241.827 45.3005C243.943 51.288 245.271 57.5249 245.776 63.8541C246.062 67.5882 246.045 71.3393 245.725 75.0707L245.744 74.9385C246.552 70.7892 248.768 67.0454 252.02 64.3391C256.849 60.3777 263.673 58.9189 268.883 55.7347C271.391 54.2019 274.605 56.1827 274.167 59.0861C274.16 59.1325 274.153 59.1788 274.146 59.2252C273.369 59.5411 272.613 59.9049 271.881 60.3147C271.463 60.5505 271.053 60.8008 270.652 61.0654C270.149 61.4014 269.759 61.8814 269.533 62.4426C269.307 63.0038 269.257 63.62 269.388 64.2104C269.519 64.8008 269.825 65.338 270.267 65.7515C270.709 66.165 271.266 66.4355 271.864 66.5276L271.926 66.537C271.97 66.5433 272.008 66.5497 272.052 66.556C270.725 69.7199 268.862 72.6322 266.546 75.1652C264.285 87.3509 254.577 88.507 244.193 84.9584H244.186C243.047 89.9023 241.396 94.7146 239.26 99.3177H221.663C221.6 99.1224 221.543 98.9209 221.487 98.7256C223.115 98.8279 224.751 98.7306 226.356 98.436C225.05 96.8363 223.745 95.224 222.439 93.6244C222.41 93.5945 222.382 93.5629 222.357 93.5299C221.695 92.7112 221.026 91.8987 220.364 91.08L220.364 91.079C220.328 88.5694 220.617 86.0657 221.222 83.6296L221.222 83.6292Z" fill="#F2F2F2"/>
<path d="M277.721 38.6608C274.449 26.7491 300.839 16.5345 307.769 26.1271C308.733 24.7633 312.294 23.9349 313.928 24.3533C315.562 24.7716 316.936 25.8175 318.277 26.8299C320.12 28.2439 322.031 29.7081 323.162 31.7413C324.301 33.7661 324.477 36.5272 322.944 38.2843C321.729 39.6815 318.143 40.5852 316.316 40.9533C315.042 41.2127 313.97 41.4219 313.048 41.5725C312.211 40.368 311.825 38.9076 311.959 37.4476C311.338 37.8655 310.818 38.4153 310.436 39.0575C310.053 39.6998 309.818 40.4187 309.747 41.1625C309.721 41.4721 320.045 79.3995 320.045 79.3995C318.804 80.1044 317.5 80.6899 316.148 81.1482C313.475 77.0685 311.427 72.6126 310.073 67.9284C309.762 71.0606 309.801 74.2177 310.191 77.3413C310.398 79.0928 310.694 80.8326 311.079 82.5539C298.811 85.1978 280.36 84.3277 272.333 73.0825C272.331 73.036 272.33 72.9894 272.329 72.9428C272.322 72.499 272.162 72.0711 271.874 71.7325C271.587 71.3938 271.19 71.1655 270.753 71.0867C270.315 71.0078 269.864 71.0833 269.476 71.3002C269.088 71.5171 268.788 71.8619 268.627 72.2755C268.432 72.7717 268.253 73.2011 268.093 73.5427C265.755 65.1924 268.78 55.5286 277.721 38.6608Z" fill="#2F2E41"/>
<path d="M256.846 238.365V238.756C256.83 238.626 256.83 238.495 256.846 238.365Z" fill="#2F2E41"/>
<path d="M268.859 170.953C269.171 170.869 269.489 170.807 269.81 170.769C269.442 170.829 269.125 170.89 268.859 170.953Z" fill="#2F2E41"/>
<path d="M268.58 171.024C268.664 171 268.758 170.977 268.858 170.953C268.765 170.977 268.676 170.995 268.58 171.024Z" fill="#2F2E41"/>
<path d="M357.338 277.398H312.372C311.73 276.887 311.284 276.171 311.109 275.37C310.934 274.57 311.039 273.733 311.409 273.001C312.637 270.188 310.23 267.618 310.23 267.618C309.413 266.662 308.845 265.519 308.576 264.291C308.307 263.063 308.346 261.788 308.689 260.579C309.88 256.424 305.212 244.697 305.212 244.697C305.212 244.697 302.695 259.84 299.611 277.398H256.846C256.13 276.18 255.752 274.792 255.752 273.38C255.752 271.967 256.13 270.579 256.846 269.361C259.338 265.141 256.846 264.332 256.846 264.332C256.846 264.332 254.354 259.611 256.846 256.182C259.338 252.754 256.846 238.756 256.846 238.756C256.94 239.374 257.65 238.249 258.743 235.89C260.407 232.3 262.95 225.845 265.52 218.35C267.357 213.001 269.209 207.116 270.756 201.362H270.76C271.166 199.85 271.55 198.352 271.913 196.868C272.623 193.957 273.232 191.129 273.694 188.473C274.697 182.753 275.028 177.839 274.258 174.644C273.619 171.984 272.221 170.517 269.81 170.769C271.102 170.555 272.995 170.352 275.328 170.161C275.749 170.127 276.185 170.094 276.635 170.056C294.036 168.743 331.368 167.989 331.368 167.989L342.803 188.436L357.285 214.337C357.285 214.337 356.89 249.082 357.338 277.398Z" fill="#2F2E41"/>
<path d="M309.343 79.6153L282.998 74.0352L277.767 84.5487L260.151 94.7319C260.151 94.7319 271.506 141.09 271.441 147.61C271.277 164.163 244.752 201.271 264.787 198.416C284.822 195.561 288.892 183.604 295.324 185.495C301.125 187.2 308.208 194.785 312.95 189.36C317.691 183.935 319.362 190.2 322.36 190.416C323.785 190.519 322.927 183.566 326.512 190.632C330.097 197.699 349.109 188.186 342.665 181.752C331.934 171.037 329.753 92.0453 329.753 92.0453L317.806 88.3749L309.343 79.6153Z" fill="#E6E6E6"/>
<path d="M259.653 247.967C260.711 246.707 261.236 245.084 261.114 243.443C260.992 241.803 260.234 240.275 259.002 239.184C258.747 238.966 258.476 238.769 258.189 238.596L262.594 217.01L252.411 210.925L249.579 241.146C248.952 242.388 248.755 243.803 249.018 245.168C249.281 246.534 249.989 247.775 251.032 248.696C251.631 249.215 252.326 249.61 253.078 249.861C253.83 250.111 254.623 250.211 255.414 250.156C256.205 250.1 256.976 249.889 257.685 249.535C258.394 249.181 259.027 248.691 259.546 248.094C259.582 248.052 259.618 248.01 259.653 247.967Z" fill="#A0616A"/>
<path d="M291.271 134.185C291.208 133.491 290.321 133.176 289.093 132.741C287.859 132.361 286.686 131.807 285.61 131.094C282.891 129.132 283.961 127.081 285.441 124.245C285.73 123.694 286.031 123.12 286.313 122.523C287.15 120.756 285.817 113.468 282.342 100.857C281.271 96.9752 281.275 94.2332 280.535 92.414C279.799 90.5947 278.323 89.6982 274.299 89.5107C269.436 89.2656 264.674 90.9557 261.057 94.2107C260.96 94.297 260.858 94.3907 260.761 94.4808C260.577 94.6533 260.396 94.8296 260.22 95.0097C256.875 98.3697 254.961 102.891 254.878 107.628L254.859 108.434L254.029 146.965L251.696 180.776L248.48 227.352L250.862 227.469L260.366 227.941L261.519 227.997L264.254 216.542L267.545 202.757L268.755 197.693L272.507 181.984L274.258 174.643L275.329 170.161L275.764 168.33L277.891 159.433C277.939 159.245 282.83 139.977 288.469 136.754C290.573 135.554 291.332 134.856 291.271 134.185Z" fill="#E6E6E6"/>
<path d="M354.537 247.738C353.349 246.598 352.653 245.041 352.598 243.397C352.542 241.753 353.131 240.152 354.24 238.935C354.469 238.691 354.718 238.467 354.984 238.264L348.283 217.275L357.753 210.133L363.819 239.876C364.576 241.044 364.924 242.428 364.81 243.815C364.695 245.201 364.124 246.51 363.186 247.538C362.647 248.118 361.998 248.586 361.278 248.915C360.557 249.245 359.779 249.429 358.987 249.459C358.195 249.488 357.405 249.361 356.662 249.085C355.919 248.81 355.238 248.39 354.657 247.852C354.616 247.814 354.577 247.776 354.537 247.738Z" fill="#A0616A"/>
<path d="M359.168 202.194C359.168 202.194 351.783 176.247 354.035 173.438C356.287 170.629 349.635 170.081 352.502 164.849C355.368 159.618 351.412 158.743 351.412 158.743L349.265 146.715L345.426 117.172L345.31 116.293L344.193 107.698C343.882 105.243 343.077 102.876 341.828 100.739C340.579 98.6015 338.912 96.7374 336.925 95.2583C336.823 95.1807 336.72 95.1062 336.616 95.0317C336.143 94.692 335.661 94.3773 335.168 94.0875C331.483 91.917 327.156 91.0964 322.931 91.7667C314.971 93.0047 317.448 95.969 316.157 103.91C314.059 116.823 313.514 124.21 314.538 125.879C314.882 126.441 315.244 126.979 315.59 127.495C317.367 130.159 318.652 132.081 316.158 134.328C315.164 135.149 314.058 135.824 312.873 136.334C311.701 136.901 310.852 137.308 310.863 138.005C310.877 138.68 311.705 139.289 313.925 140.256C316.614 141.431 319.502 145.874 321.868 150.412C323.745 154.071 325.419 157.829 326.882 161.671L347.215 218.773L350.532 228.085L351.676 227.904L361.071 226.417L363.427 226.045L359.168 202.194Z" fill="#E6E6E6"/>
<path d="M298.228 73.6406C310.098 73.6406 319.721 64.0319 319.721 52.179C319.721 40.326 310.098 30.7173 298.228 30.7173C286.357 30.7173 276.734 40.326 276.734 52.179C276.734 64.0319 286.357 73.6406 298.228 73.6406Z" fill="#A0616A"/>
<path d="M265.99 40.3346C262.718 28.4229 289.108 18.2083 296.039 27.8009C297.002 26.4371 300.563 25.6087 302.197 26.0271C303.831 26.4454 305.206 27.4913 306.546 28.5037C308.39 29.9178 310.3 31.382 311.431 33.4151C312.571 35.4399 312.747 38.2011 311.214 39.9581C309.999 41.3554 306.412 42.259 304.585 42.6272C303.312 42.8865 302.239 43.0957 301.318 43.2463C300.48 42.0419 300.095 40.5815 300.228 39.1214C299.608 39.5393 299.088 40.0891 298.705 40.7314C298.323 41.3737 298.087 42.0925 298.016 42.8363C297.991 43.1459 308.314 81.0734 308.314 81.0734C307.074 81.7782 305.769 82.3638 304.418 82.822C301.745 78.7423 299.697 74.2865 298.343 69.6022C298.032 72.7345 298.071 75.8916 298.46 79.0151C298.667 80.7666 298.964 82.5064 299.348 84.2277C287.081 86.8717 268.63 86.0015 260.602 74.7563C260.601 74.7098 260.599 74.6633 260.598 74.6167C260.592 74.1728 260.431 73.7449 260.144 73.4063C259.856 73.0677 259.46 72.8394 259.022 72.7605C258.585 72.6817 258.134 72.7571 257.746 72.974C257.358 73.1909 257.057 73.5357 256.896 73.9494C256.701 74.4455 256.522 74.8749 256.362 75.2165C254.024 66.8662 257.049 57.2024 265.99 40.3346Z" fill="#2F2E41"/>
<path d="M159.395 114.494C158.941 114.515 158.492 114.396 158.108 114.153C157.724 113.91 157.424 113.556 157.249 113.137C157.074 112.719 157.032 112.256 157.128 111.813C157.225 111.37 157.456 110.967 157.789 110.659C157.845 110.437 157.885 110.278 157.941 110.056C157.921 110.008 157.901 109.959 157.881 109.911C155.841 105.054 148.926 105.087 146.903 109.952C145.108 114.27 142.822 118.595 142.259 123.16C142.011 125.178 142.116 127.224 142.568 129.206C138.351 120.021 136.161 110.038 136.147 99.9336C136.146 97.398 136.288 94.8644 136.57 92.3446C136.803 90.2789 137.127 88.2278 137.541 86.1915C139.802 75.1426 144.654 64.7867 151.701 55.9742C155.112 54.116 157.87 51.2586 159.604 47.7869C160.232 46.5389 160.676 45.2068 160.922 43.8318C160.537 43.8822 159.472 38.0314 159.762 37.6724C159.226 36.86 158.266 36.4562 157.68 35.6634C154.768 31.7208 150.756 32.4092 148.661 37.7669C144.186 40.0219 144.143 43.7618 146.889 47.3586C148.635 49.6469 148.875 52.7433 150.408 55.1932C150.25 55.3947 150.086 55.59 149.929 55.7915C147.046 59.4925 144.534 63.4666 142.428 67.6569C143.024 63.0094 142.144 57.4105 140.644 53.8014C138.937 49.6892 135.737 46.2258 132.92 42.6708C129.535 38.4007 122.595 40.2643 121.998 45.6773C121.992 45.7297 121.987 45.7821 121.981 45.8345C122.4 46.0703 122.81 46.3205 123.21 46.5853C123.714 46.9212 124.104 47.4012 124.33 47.9624C124.556 48.5236 124.606 49.1398 124.475 49.7302C124.344 50.3206 124.038 50.8578 123.596 51.2712C123.154 51.6847 122.597 51.9553 121.998 52.0474L121.937 52.0568C122.086 53.563 122.35 55.0558 122.726 56.5221C119.111 70.4811 126.915 75.5653 138.058 75.7937C138.304 75.9196 138.544 76.0456 138.79 76.1653C136.674 82.1528 135.347 88.3896 134.842 94.7189C134.556 98.453 134.573 102.204 134.892 105.935L134.873 105.803C134.066 101.654 131.849 97.9101 128.598 95.2038C123.768 91.2424 116.945 89.7837 111.735 86.5995C109.227 85.0667 106.013 87.0475 106.45 89.9509C106.457 89.9972 106.465 90.0436 106.472 90.09C107.248 90.4058 108.005 90.7697 108.736 91.1794C109.155 91.4152 109.564 91.6655 109.965 91.9302C110.469 92.2661 110.859 92.7462 111.085 93.3074C111.31 93.8685 111.361 94.4847 111.23 95.0751C111.099 95.6656 110.792 96.2027 110.351 96.6162C109.909 97.0297 109.352 97.3002 108.753 97.3924L108.692 97.4018C108.648 97.4081 108.61 97.4144 108.566 97.4207C109.893 100.585 111.755 103.497 114.072 106.03C116.332 118.216 126.04 119.372 136.425 115.823H136.431C137.571 120.767 139.221 125.579 141.357 130.182H158.954C159.017 129.987 159.074 129.786 159.131 129.59C157.502 129.693 155.867 129.595 154.262 129.301C155.567 127.701 156.873 126.089 158.179 124.489C158.208 124.459 158.235 124.428 158.261 124.395C158.923 123.576 159.591 122.763 160.254 121.945L160.254 121.944C160.289 119.434 160.001 116.93 159.396 114.494L159.395 114.494Z" fill="#F2F2F2"/>
<path d="M77.2868 26.1279C76.8874 27.0573 64.5726 26.9577 64.0086 27.7852C59.66 34.1742 75.3359 61.3576 70.9873 67.7549L70.3815 68.4758C71.8002 67.823 73.1629 67.0553 74.4562 66.1804C74.5724 63.5619 74.6886 60.935 74.813 58.3165C76.1156 59.9803 77.1669 61.8257 77.9334 63.7939C78.9459 63.0812 79.7764 61.7602 84.1161 59.1617C85.8729 57.2346 87.8983 55.5699 90.1299 54.2186L77.2868 26.1279Z" fill="#2F2E41"/>
<path d="M86.2285 78.4888C84.8696 77.6048 83.3191 77.0572 81.7057 76.8914C80.0924 76.7256 78.4627 76.9464 76.9519 77.5354C75.4411 78.1244 74.0928 79.0646 73.0188 80.2781C71.9448 81.4917 71.1761 82.9434 70.7765 84.513L52.0625 133.202L19.8952 114.967C19.7539 112.871 18.9515 110.873 17.6031 109.261C16.2546 107.648 14.4294 106.504 12.3891 105.991C10.3489 105.478 8.19841 105.624 6.24621 106.407C4.294 107.19 2.64034 108.571 1.52239 110.35C0.404432 112.13 -0.120375 114.217 0.0232354 116.313C0.166846 118.409 0.971498 120.406 2.32178 122.017C3.67206 123.628 5.4986 124.77 7.53944 125.281C9.58027 125.791 11.7305 125.643 13.6819 124.857C20.456 132.077 49.8244 161.676 61.9828 150.111C72.2024 140.39 86.9506 102.715 90.5008 89.7048C91.0695 87.6244 90.9622 85.4175 90.1945 83.4019C89.4267 81.3862 88.0381 79.666 86.2285 78.4888Z" fill="#FFB6B6"/>
<path d="M51.0879 152.151L56.9935 178.804L100.177 182.704L104.146 159.497L51.0879 152.151Z" fill="#FFB6B6"/>
<path d="M117.052 220.499C117.032 220.881 117.008 221.259 116.981 221.641C116.566 227.163 116.093 233.533 115.58 240.513C114.771 251.589 113.868 264.202 112.957 277.398H22.3789L39.9455 224.676C39.9455 224.676 47.0385 220.776 43.4274 214.226C39.8163 207.675 46.9217 212.895 46.9878 203.54C47.0539 194.185 53.421 184.232 53.421 184.232L54.4664 170.067L55.0621 170.079L102.199 170.863L103.059 170.879L104.507 183.039C113.297 193.483 117.782 206.875 117.052 220.499Z" fill="#2F2E41"/>
<path d="M78.0406 65.5724L99.5351 64.4668L109.519 80.2188C109.519 80.2188 128.303 83.3547 127.001 105.457C125.699 127.559 104.146 146.954 104.146 146.954L105.067 143.8L103.467 148.366L103.672 150.929L105.855 153.644L106.08 156.451L104.146 160.894C104.398 161.296 104.531 161.761 104.531 162.235C104.532 162.71 104.399 163.175 104.148 163.578C103.897 163.981 103.538 164.305 103.111 164.515C102.685 164.724 102.209 164.81 101.736 164.763L70.6779 161.655C69.9708 159.712 69.4034 157.389 66.5691 161.257L63.6434 160.974L51.4812 159.798L50.7653 157.194C50.3586 155.714 50.2952 154.161 50.58 152.654C50.8648 151.146 51.4903 149.723 52.4088 148.493C51.3524 145.19 51.6291 141.606 53.18 138.503L53.2382 138.387L54.5297 137.312C54.5297 137.312 40.3996 116.115 56.6206 100.149L63.1309 89.0981L70.4154 80.2238L78.0406 65.5724Z" fill="#6C63FF"/>
<path d="M83.3906 56.274C94.6476 56.274 103.773 47.1618 103.773 35.9214C103.773 24.681 94.6476 15.5688 83.3906 15.5688C72.1335 15.5688 63.0078 24.681 63.0078 35.9214C63.0078 47.1618 72.1335 56.274 83.3906 56.274Z" fill="#FFB6B6"/>
<path d="M98.8705 65.2404C97.2107 63.8555 96.0554 61.9621 95.5841 59.8541C95.2071 62.4135 95.3056 65.0203 95.8746 67.544C94.7709 68.3727 93.7003 69.1599 92.6878 69.8726C91.9213 67.9044 90.87 66.0589 89.5675 64.3952C89.443 67.0137 89.3268 69.6406 89.2106 72.2591C87.9174 73.134 86.5546 73.9016 85.1359 74.5545L85.7417 73.8336C90.0903 67.4363 78.8371 55.6611 83.1856 49.2722C84.4056 47.4822 78.8952 33.3371 74.6959 32.699C70.9615 32.1355 71.1191 33.2128 67.5008 34C67.1251 32.4353 66.5418 30.9276 65.7664 29.517C65.9728 31.0888 65.9252 32.6835 65.6253 34.2403C64.339 34.29 63.327 33.4716 61.9572 33.2625C53.2185 31.9284 54.1065 22.49 56.5381 19.4985C58.9779 16.5154 67.0776 15.6204 70.8121 14.6509C71.1523 14.3194 71.9241 14.5266 72.2644 14.2117C79.4213 7.6715 88.9932 6.58839 97.6071 9.48715C106.793 12.5785 112.52 18.5615 115.46 27.7851L116.303 35.1663C117.059 37.5396 116.108 48.5824 115.46 50.9875C112.941 60.3364 107.577 55.6694 98.8705 65.2404Z" fill="#2F2E41"/>
<path d="M128.591 161.666L127.789 99.2619C127.747 96.6181 126.666 94.0968 124.779 92.242C122.892 90.3872 120.35 89.3476 117.702 89.3477H117.702C116.332 89.3477 114.977 89.6262 113.718 90.1664C112.459 90.7066 111.324 91.497 110.382 92.4895C109.439 93.482 108.709 94.6558 108.235 95.9394C107.762 97.2229 107.555 98.5893 107.628 99.9552L110.452 164.752L110.505 204.197C108.841 204.902 107.434 206.101 106.476 207.632C105.518 209.162 105.056 210.951 105.151 212.753C105.246 214.556 105.895 216.285 107.009 217.707C108.123 219.128 109.648 220.173 111.377 220.699C113.107 221.225 114.956 221.206 116.675 220.646C118.393 220.086 119.897 219.011 120.982 217.568C122.068 216.124 122.682 214.382 122.741 212.578C122.8 210.774 122.302 208.995 121.313 207.484L128.591 161.666Z" fill="#FFB6B6"/>
<path d="M233.787 242.401C233.787 242.401 232.547 264.689 231.976 277.4H189.251C188.371 265.832 188.075 257.334 188.075 257.334L185.738 277.4H142.55L139.873 240.237L152.812 208.212C152.812 208.212 222.93 203.356 229.434 209.516C235.934 215.671 233.787 242.401 233.787 242.401Z" fill="#2F2E41"/>
<path d="M196.006 54.9164C208.895 54.9164 219.344 44.4831 219.344 31.613C219.344 18.7429 208.895 8.30957 196.006 8.30957C183.117 8.30957 172.668 18.7429 172.668 31.613C172.668 44.4831 183.117 54.9164 196.006 54.9164Z" fill="#FFB6B6"/>
<path d="M223.209 24.0408C220.812 25.1322 219.259 33.0369 217.374 31.1992C215.49 29.3616 215.616 26.9701 213.076 26.2919C211.025 25.7419 208.817 26.3705 206.946 27.3619C206.612 27.5368 206.288 27.727 205.972 27.9162C205.764 27.7772 205.557 27.6463 205.334 27.5257C203.66 26.6313 201.707 26.4119 199.876 26.9127C201.323 27.3965 202.58 28.3222 203.471 29.5588C202.845 29.9779 202.211 30.398 201.562 30.7702C196.142 33.8935 188.429 27.102 182.724 24.5507C186.297 31.2469 184.538 34.0201 181.435 40.9455L181.328 41.3398C181.504 39.6042 176.125 38.3106 176.437 40.754C176.658 42.4888 178.162 46.3447 179.004 47.8764C173.006 40.9507 168.906 32.4756 169.771 23.7328C169.96 21.8962 169.903 19.9584 170.852 18.3643C171.801 16.7785 173.781 15.6657 175.533 16.2704C175.384 13.4822 175.996 10.706 177.301 8.2369C178.607 5.76779 180.558 3.69807 182.947 2.24778C185.337 0.797493 188.075 0.0208495 190.871 0.000413957C193.667 -0.0200216 196.417 0.716519 198.827 2.13173C201.067 3.44405 202.937 5.3001 204.99 6.90109C207.043 8.50207 209.409 9.89758 212.012 10.0298C213.663 10.1093 215.461 9.70671 216.879 10.5607C218.523 11.5517 218.804 13.6265 219.051 15.6229C217.585 15.7672 216.195 16.3446 215.06 17.2813C216.577 17.1268 218.103 17.4538 219.423 18.2158C219.448 18.2271 219.472 18.2407 219.495 18.2563C220.363 21.5558 220.274 22.2872 223.209 24.0408Z" fill="#2F2E41"/>
<path d="M142.656 219.486C162.53 196.257 155.818 166.712 147.93 136.888L149.431 92.8285C149.504 90.6673 150.098 88.5554 151.161 86.6713C152.224 84.7872 153.725 83.1862 155.538 82.0035L175.827 68.7683L183.724 57.3677L205.492 59.5412L217.563 72.2878L230.924 82.4729C234.279 85.0303 236.831 88.492 238.281 92.4501C239.73 96.4082 240.016 100.698 239.105 104.813L226.319 162.551C226.319 162.551 231.667 192.483 228.403 195.789C225.14 199.094 216.732 195.79 223.4 199.501C231.402 203.955 238.677 203.133 234.628 207.176C230.579 211.219 235.703 216.841 235.703 216.841L142.656 219.486Z" fill="#6C63FF"/>
<path d="M151.152 253.245L154.465 229.675L141.245 225.906L138.63 250.951C137.536 251.952 136.743 253.239 136.341 254.666C135.939 256.093 135.944 257.603 136.354 259.028C136.765 260.452 137.565 261.734 138.666 262.729C139.766 263.724 141.122 264.393 142.582 264.66C144.042 264.928 145.548 264.783 146.931 264.243C148.313 263.703 149.517 262.788 150.407 261.602C151.298 260.416 151.839 259.006 151.971 257.529C152.102 256.053 151.819 254.569 151.152 253.245Z" fill="#FFB6B6"/>
<path d="M176.321 73.0171C176.321 73.0171 138.689 85.2467 137.792 94.1949C136.895 103.143 137.192 108.621 133.221 144.428L133.43 240.883C133.43 240.883 158.659 246.276 156.072 240.51C153.485 234.743 154.387 232.029 154.387 232.029C154.387 232.029 159.797 229.898 158.443 223.127C157.089 216.356 163.879 182.8 163.879 182.8L168.165 122.619L176.321 73.0171Z" fill="#6C63FF"/>
<path d="M222.722 251.997L220.959 228.261L234.398 225.363L235.368 250.525C236.394 251.596 237.101 252.931 237.408 254.381C237.716 255.831 237.613 257.338 237.11 258.733C236.607 260.127 235.724 261.354 234.561 262.275C233.398 263.196 232.001 263.775 230.526 263.947C229.052 264.119 227.559 263.876 226.215 263.247C224.871 262.618 223.729 261.627 222.918 260.385C222.107 259.143 221.66 257.701 221.625 256.219C221.59 254.737 221.97 253.275 222.722 251.997H222.722Z" fill="#FFB6B6"/>
<path d="M209.404 70.5112C209.404 70.5112 246.154 85.1708 246.464 94.1585C246.774 103.146 246.118 108.593 247.737 144.583L241.214 240.817C241.214 240.817 215.686 244.553 218.645 238.967C221.605 233.381 220.881 230.615 220.881 230.615C220.881 230.615 215.623 228.135 217.418 221.467C219.212 214.799 214.633 180.871 214.633 180.871L214.296 120.54L209.404 70.5112Z" fill="#6C63FF"/>
</svg>
