<svg width="26" height="36" viewBox="0 0 26 36" fill="none" xmlns="http://www.w3.org/2000/svg">
<path d="M16.1918 5.57064C16.3943 5.57064 16.5967 5.67272 16.7565 5.89147C17.0655 6.31438 17.0655 7.01439 16.7565 7.4373L9.80951 16.9456C9.29807 17.6456 9.29807 18.7831 9.80951 19.4831L16.7565 28.9915C17.0655 29.4144 17.0655 30.1144 16.7565 30.5373C16.4475 30.9602 15.9361 30.9602 15.6271 30.5373L8.68008 21.029C8.13668 20.2852 7.82768 19.279 7.82768 18.2144C7.82768 17.1498 8.12602 16.1436 8.68008 15.3998L15.6271 5.89147C15.7869 5.6873 15.9894 5.57064 16.1918 5.57064Z" fill="white"/>
</svg>
