<svg width="26" height="36" viewBox="0 0 26 36" fill="none" xmlns="http://www.w3.org/2000/svg">
<path d="M9.8531 30.8583C9.65065 30.8583 9.44821 30.7562 9.28839 30.5375C8.97939 30.1146 8.97939 29.4146 9.28839 28.9917L16.2354 19.4833C16.7469 18.7833 16.7469 17.6458 16.2354 16.9458L9.28839 7.43748C8.97939 7.01457 8.97939 6.31457 9.28839 5.89165C9.59738 5.46873 10.1088 5.46873 10.4178 5.89165L17.3648 15.4C17.9082 16.1437 18.2172 17.15 18.2172 18.2146C18.2172 19.2792 17.9189 20.2854 17.3648 21.0292L10.4178 30.5375C10.258 30.7417 10.0555 30.8583 9.8531 30.8583Z" fill="white"/>
</svg>
