<svg width="276" height="191" viewBox="0 0 276 191" fill="none" xmlns="http://www.w3.org/2000/svg">
<g clip-path="url(#clip0_1117_2105)">
<path d="M236.695 0.624023H17.0938V140.883H236.695V0.624023Z" fill="#E6E6E6"/>
<path d="M230.418 18.2161H23.375V132.586H230.418V18.2161Z" fill="white"/>
<path d="M236.602 0.5H17V9.80405H236.602V0.5Z" fill="#7EB256"/>
<path d="M23.9323 6.98109C24.8873 6.98109 25.6614 6.20904 25.6614 5.25666C25.6614 4.30428 24.8873 3.53223 23.9323 3.53223C22.9773 3.53223 22.2031 4.30428 22.2031 5.25666C22.2031 6.20904 22.9773 6.98109 23.9323 6.98109Z" fill="white"/>
<path d="M30.4967 6.98109C31.4517 6.98109 32.2259 6.20904 32.2259 5.25666C32.2259 4.30428 31.4517 3.53223 30.4967 3.53223C29.5417 3.53223 28.7676 4.30428 28.7676 5.25666C28.7676 6.20904 29.5417 6.98109 30.4967 6.98109Z" fill="white"/>
<path d="M37.0592 6.98109C38.0142 6.98109 38.7884 6.20904 38.7884 5.25666C38.7884 4.30428 38.0142 3.53223 37.0592 3.53223C36.1042 3.53223 35.3301 4.30428 35.3301 5.25666C35.3301 6.20904 36.1042 6.98109 37.0592 6.98109Z" fill="white"/>
<path d="M95.3858 30.0828H42.1855V120.719H95.3858V30.0828Z" fill="#E6E6E6"/>
<path d="M148.906 30.0828H104.572V55.0313H148.906V30.0828Z" fill="#7EB256"/>
<path d="M148.906 61.979H104.572V88.8224H148.906V61.979Z" fill="#E6E6E6"/>
<path d="M148.906 95.77H104.572V120.719H148.906V95.77Z" fill="#E6E6E6"/>
<path d="M211.605 30.0828H158.404V69.5814H211.605V30.0828Z" fill="#E6E6E6"/>
<path d="M211.605 81.22H158.404V120.719H211.605V81.22Z" fill="#E6E6E6"/>
<path d="M191.109 72.4189V63.9154C191.109 60.8934 192.313 57.9951 194.456 55.8582C196.599 53.7213 199.505 52.5208 202.535 52.5208C205.566 52.5208 208.472 53.7213 210.614 55.8582C212.757 57.9951 213.961 60.8934 213.961 63.9154V72.4189C213.961 72.8247 213.799 73.2138 213.511 73.5007C213.223 73.7877 212.833 73.9491 212.426 73.9496H192.644C192.237 73.9491 191.847 73.7877 191.559 73.5007C191.272 73.2138 191.11 72.8247 191.109 72.4189Z" fill="#2F2E41"/>
<path d="M219.43 183.082L215.399 184.195L209.18 169.222L215.128 167.581L219.43 183.082Z" fill="#FFB8B8"/>
<path d="M212.202 183.841L219.974 181.696L221.328 186.576L208.663 190.072C208.485 189.431 208.436 188.761 208.517 188.101C208.599 187.441 208.81 186.804 209.139 186.225C209.467 185.647 209.907 185.138 210.433 184.729C210.958 184.32 211.559 184.018 212.202 183.841Z" fill="#2F2E41"/>
<path d="M177.417 186.174H173.236L171.246 170.089H177.418L177.417 186.174Z" fill="#FFB8B8"/>
<path d="M170.245 184.982H178.31V190.046H165.168C165.168 189.381 165.299 188.722 165.554 188.108C165.81 187.494 166.184 186.935 166.655 186.465C167.127 185.995 167.686 185.622 168.302 185.368C168.918 185.113 169.579 184.982 170.245 184.982Z" fill="#2F2E41"/>
<path d="M172.372 96.2824C172.671 96.6842 173.054 97.0158 173.495 97.2539C173.936 97.4921 174.424 97.6309 174.924 97.6607C175.425 97.6904 175.926 97.6103 176.392 97.4261C176.858 97.2419 177.278 96.958 177.622 96.5944L188.738 101.58L187.727 95.3449L177.326 91.5662C176.675 91.0301 175.85 90.7506 175.006 90.7808C174.163 90.811 173.359 91.1487 172.749 91.73C172.138 92.3114 171.763 93.0959 171.693 93.9349C171.624 94.7739 171.866 95.6092 172.372 96.2824H172.372Z" fill="#FFB8B8"/>
<path d="M195.469 133.779C191.977 133.779 188.362 133.26 185.323 131.717C183.71 130.914 182.28 129.788 181.123 128.409C179.967 127.029 179.108 125.427 178.601 123.701C177.017 118.702 179.014 113.79 180.944 109.04C182.141 106.096 183.271 103.316 183.564 100.576L183.666 99.6029C184.123 95.2329 184.517 91.4588 186.701 90.0432C187.833 89.3095 189.354 89.2676 191.353 89.915L210.127 95.9972L209.437 131.538L209.323 131.576C209.225 131.609 202.606 133.779 195.469 133.779Z" fill="#2F2E41"/>
<path d="M191.026 78.8506C191.026 78.8506 200.235 76.1294 207.397 77.1499C207.397 77.1499 203.304 99.5991 204.669 107.082C206.033 114.565 180.964 109.973 186.08 102.83L187.786 94.3269C187.786 94.3269 184.375 90.9255 187.445 86.8438L191.026 78.8506Z" fill="#7EB256"/>
<path d="M186.494 133.105L175.145 130.983L179.107 100.572C179.373 99.7231 185.512 80.4552 188.299 79.4127C190.324 78.7018 192.394 78.1283 194.495 77.696L194.899 77.6155L192.623 81.0199L183.563 102.671L186.494 133.105Z" fill="#2F2E41"/>
<path d="M180.582 182.447L165.918 180.01L174.147 146.498L186.393 100.668L186.514 101.482C186.523 101.543 187.667 107.53 204.642 104.873L204.791 104.85L204.832 104.995L225.348 177.287L208.639 180.065L193.399 127.32L180.582 182.447Z" fill="#2F2E41"/>
<path d="M200.906 138.796L200.915 138.539C200.926 138.253 201.935 109.84 201.598 98.4136C201.259 86.9478 204.982 77.0185 205.019 76.9195L205.05 76.8398L205.132 76.8162C209.948 75.4442 214.125 79.5392 214.167 79.5807L214.226 79.6391L212.854 90.9237L218.726 131.959L200.906 138.796Z" fill="#2F2E41"/>
<path d="M200.188 73.7516C204.814 73.7516 208.565 70.0113 208.565 65.3974C208.565 60.7835 204.814 57.0432 200.188 57.0432C195.561 57.0432 191.811 60.7835 191.811 65.3974C191.811 70.0113 195.561 73.7516 200.188 73.7516Z" fill="#FFB8B8"/>
<path d="M188.404 64.5955C188.407 62.2057 189.36 59.9146 191.055 58.2248C192.749 56.535 195.046 55.5845 197.443 55.5818H199.148C201.544 55.5845 203.842 56.535 205.536 58.2248C207.23 59.9146 208.184 62.2057 208.186 64.5955V64.7656H204.582L203.353 61.3329L203.107 64.7656H201.245L200.625 63.0336L200.5 64.7656H188.404V64.5955Z" fill="#2F2E41"/>
<path d="M199.362 74.9058C199.193 74.6773 199.092 74.4058 199.071 74.1226C199.049 73.8393 199.109 73.5558 199.242 73.3048C201.049 69.8768 203.579 63.5427 200.221 59.6364L199.979 59.3557H209.73V73.9545L200.872 75.513C200.783 75.5288 200.692 75.5368 200.601 75.5369C200.359 75.5369 200.121 75.4797 199.905 75.37C199.69 75.2603 199.504 75.1012 199.362 74.9058Z" fill="#2F2E41"/>
<path d="M160.109 14.6314C153.286 8.88993 144.937 5.24993 136.078 4.1543C127.218 3.05868 118.231 4.55467 110.208 8.46024C102.186 12.3658 95.475 18.5126 90.8918 26.1525C86.3086 33.7925 84.0508 42.5963 84.3933 51.4926C84.7357 60.3889 87.6637 68.9941 92.8207 76.2612C97.9778 83.5282 105.142 89.1438 113.441 92.4245C121.74 95.7052 130.816 96.5096 139.565 94.7398C148.314 92.9701 156.358 88.7024 162.72 82.4562L219.207 129.99C220.067 130.715 221.179 131.069 222.301 130.975C223.423 130.882 224.461 130.348 225.188 129.491C225.914 128.633 226.27 127.523 226.176 126.405C226.082 125.286 225.546 124.251 224.687 123.526L224.68 123.521L168.193 75.9873C174.755 66.595 177.564 55.0974 176.068 43.7477C174.573 32.3979 168.881 22.0142 160.109 14.6314ZM156.467 71.4101C152.067 76.6112 146.218 80.3941 139.662 82.2804C133.106 84.1667 126.136 84.0718 119.633 82.0076C113.131 79.9434 107.388 76.0026 103.132 70.6837C98.8753 65.3647 96.2959 58.9064 95.7198 52.1255C95.1438 45.3446 96.597 38.5456 99.8956 32.5883C103.194 26.631 108.19 21.783 114.252 18.6573C120.313 15.5316 127.168 14.2686 133.949 15.0281C140.73 15.7875 147.133 18.5353 152.348 22.9239H152.348C155.811 25.8379 158.665 29.4034 160.746 33.4171C162.827 37.4308 164.095 41.8139 164.477 46.3163C164.86 50.8186 164.349 55.3521 162.975 59.6577C161.6 63.9633 159.389 67.9568 156.467 71.4101Z" fill="#3F3D56"/>
<path opacity="0.3" d="M107.846 75.5179C101.227 69.9477 96.951 62.0989 95.8664 53.5299C94.7818 44.9609 96.9682 36.2985 101.991 29.2627C101.332 29.9252 100.694 30.6191 100.078 31.3443C97.1564 34.7977 94.9451 38.7912 93.5708 43.0968C92.1965 47.4024 91.686 51.9358 92.0685 56.4382C92.4509 60.9405 93.7189 65.3237 95.8 69.3373C97.881 73.351 100.734 76.9166 104.197 79.8305C107.66 82.7445 111.664 84.9497 115.982 86.3202C120.299 87.6908 124.845 88.1999 129.36 87.8185C133.874 87.4371 138.269 86.1725 142.294 84.0972C146.319 82.0218 149.894 79.1762 152.816 75.7228C153.43 74.9967 154.009 74.253 154.552 73.4918C148.442 79.6136 140.248 83.2203 131.595 83.5956C122.943 83.9709 114.465 81.0876 107.846 75.5179Z" fill="black"/>
<path d="M202.878 110.887C203.365 111.006 203.872 111.017 204.364 110.919C204.855 110.821 205.32 110.617 205.724 110.321C206.128 110.024 206.462 109.644 206.702 109.205C206.942 108.766 207.083 108.28 207.115 107.781L218.859 104.53L214.085 100.379L203.665 104.103C202.821 104.105 202.007 104.416 201.377 104.977C200.748 105.538 200.346 106.31 200.249 107.146C200.152 107.983 200.366 108.825 200.851 109.515C201.335 110.204 202.056 110.693 202.878 110.887Z" fill="#FFB8B8"/>
<path d="M207.758 109.167L207.043 102.396L216.853 96.9981L210.457 89.2769L211.501 80.6034L214.1 79.4927L214.18 79.5963C215.406 81.1678 226.154 94.9981 226.154 96.7078C226.154 98.4638 224.098 103.621 221.285 105.023C218.571 106.376 208.382 109.006 207.949 109.118L207.758 109.167Z" fill="#2F2E41"/>
</g>
<defs>
<clipPath id="clip0_1117_2105">
<rect width="242" height="190" fill="white" transform="translate(17 0.5)"/>
</clipPath>
</defs>
</svg>
