<svg width="206" height="250" viewBox="0 0 206 250" fill="none" xmlns="http://www.w3.org/2000/svg">
<g clip-path="url(#clip0_976_1302)">
<path d="M196.342 235.64C195.063 236.131 193.689 236.254 192.353 235.997C191.017 235.74 189.764 235.112 188.715 234.174C186.044 231.728 185.206 227.698 184.525 223.966L182.51 212.928L186.73 216.098C189.764 218.378 192.867 220.731 194.968 224.034C197.07 227.336 197.987 231.844 196.299 235.417" fill="#E6E6E6"/>
<path d="M195.982 249.004C196.409 245.609 196.848 242.171 196.549 238.74C196.283 235.693 195.431 232.717 193.696 230.277C192.775 228.984 191.655 227.877 190.385 227.004C190.054 226.776 189.75 227.349 190.079 227.575C192.276 229.09 193.975 231.327 194.931 233.963C195.988 236.894 196.157 240.09 195.974 243.204C195.864 245.088 195.631 246.958 195.395 248.827C195.376 248.912 195.388 249.001 195.427 249.077C195.467 249.152 195.531 249.209 195.607 249.234C195.685 249.257 195.768 249.246 195.837 249.203C195.907 249.159 195.959 249.088 195.981 249.003L195.982 249.004Z" fill="#F2F2F2"/>
<path d="M180.688 192.623H4.14453V0H180.688V192.623Z" fill="white"/>
<path d="M180.688 192.623H4.14453V0H180.688V192.623ZM6.75293 189.777H178.08V2.846H6.75293V189.777Z" fill="#E5E5E5"/>
<path d="M149.412 30.136H72.9609V32.7344H149.412V30.136Z" fill="#E5E5E5"/>
<path d="M149.412 36.8918H72.9609V39.4902H149.412V36.8918Z" fill="#E5E5E5"/>
<path d="M149.412 43.6477H72.9609V46.2461H149.412V43.6477Z" fill="#E5E5E5"/>
<path d="M149.412 88.1467H72.9609V90.7451H149.412V88.1467Z" fill="#E5E5E5"/>
<path d="M149.412 94.9026H72.9609V97.501H149.412V94.9026Z" fill="#E5E5E5"/>
<path d="M149.412 101.658H72.9609V104.257H149.412V101.658Z" fill="#E5E5E5"/>
<path d="M149.412 146.157H72.9609V148.756H149.412V146.157Z" fill="#E5E5E5"/>
<path d="M149.412 152.913H72.9609V155.512H149.412V152.913Z" fill="#E5E5E5"/>
<path d="M149.412 159.669H72.9609V162.268H149.412V159.669Z" fill="#E5E5E5"/>
<path d="M42.356 50.8385C41.0499 50.0876 39.6867 49.4616 38.2815 48.9677L38.1024 46.8051L30.8358 45.9509L29.9123 48.7151L27.3045 49.7828C27.2111 49.8214 27.1223 49.8719 27.0398 49.9332H27.037C26.8915 50.0405 26.7675 50.1791 26.6727 50.3404C26.5779 50.5018 26.5143 50.6825 26.4857 50.8716C26.4578 51.0596 26.4644 51.2518 26.505 51.4371L26.6429 52.0537C26.8413 52.183 27.0453 52.3063 27.2493 52.4236L27.3789 52.4958C27.6766 52.6642 27.9799 52.8237 28.2914 52.971C28.3548 53.0011 28.4237 53.0312 28.4871 53.0613C28.4926 53.0643 28.4953 53.0643 28.5008 53.0673C28.647 53.1335 28.793 53.1966 28.9419 53.2568C29.4309 53.4605 29.9297 53.6352 30.436 53.7801C31.7283 54.1559 33.06 54.346 34.3974 54.3456C34.8853 54.3456 35.3677 54.3215 35.8446 54.2704C36.9343 54.1606 38.0101 53.9237 39.0535 53.5636C39.0562 53.5636 39.059 53.5606 39.0617 53.5606C39.7208 53.3315 40.3646 53.0531 40.9887 52.7274C40.9913 52.7244 40.9969 52.7244 40.9997 52.7214C41.1402 52.6492 41.2754 52.571 41.4132 52.4958L41.4793 52.4597C41.5895 52.3965 41.6999 52.3334 41.8101 52.2672C42.0858 52.1018 42.356 51.9273 42.6233 51.7409C42.6977 51.6927 42.7695 51.6416 42.8439 51.5875C42.9486 51.5123 43.0533 51.4341 43.1554 51.3528C42.899 51.1724 42.6316 51.001 42.356 50.8385Z" fill="#3F3D56"/>
<path d="M28.7186 52.171L28.2638 49.9302H27.0756C27.0637 49.9304 27.0517 49.9314 27.0398 49.9332H27.037C26.61 49.9726 26.1988 50.1277 25.8407 50.3843C25.5977 50.5536 25.3817 50.7649 25.2012 51.01C25.554 51.3017 25.9206 51.5724 26.2983 51.8311L26.3149 51.8401C26.4223 51.9123 26.5327 51.9845 26.6429 52.0536C26.8413 52.183 27.0454 52.3063 27.2493 52.4236L27.3789 52.4958C27.6767 52.6642 27.9799 52.8236 28.2914 52.971C28.3548 53.0011 28.4237 53.0312 28.4871 53.0612C28.4926 53.0642 28.4953 53.0643 28.5008 53.0673C28.647 53.1334 28.7931 53.1966 28.9419 53.2567L28.7186 52.171Z" fill="#3F3D56"/>
<path d="M34.1846 44.5838C37.075 44.5838 39.4181 42.0273 39.4181 38.8737C39.4181 35.7201 37.075 33.1636 34.1846 33.1636C31.2943 33.1636 28.9512 35.7201 28.9512 38.8737C28.9512 42.0273 31.2943 44.5838 34.1846 44.5838Z" fill="#FFB8B8"/>
<path d="M30.6707 36.0923C31.2125 36.7918 32.1293 36.9892 32.9751 37.0702C34.9524 37.1893 36.9354 37.0127 38.8688 36.5451C38.9886 37.812 38.662 39.178 39.3459 40.2202C39.6665 38.9585 39.8529 37.6607 39.9015 36.3525C39.9526 35.7912 39.8854 35.2246 39.7051 34.696C39.6087 34.431 39.4462 34.2009 39.2359 34.0318C39.0256 33.8626 38.7761 33.7612 38.5156 33.7391C38.9055 33.4164 39.3622 33.2034 39.8454 33.1188L38.1837 32.2077L38.6104 31.7297L35.602 31.5288L36.4733 30.9248C35.1619 30.7282 33.8351 30.6825 32.5148 30.7885C31.8979 30.7888 31.2927 30.9723 30.7641 31.3195C30.2673 31.707 29.9803 32.4773 30.2887 33.0463C29.9026 33.1155 29.5391 33.2911 29.2326 33.5564C28.9262 33.8217 28.6868 34.168 28.5373 34.5625C28.3483 35.1895 28.3027 35.8575 28.4044 36.5082C28.5177 37.5521 28.7401 38.5786 29.0672 39.5674L30.6707 36.0923Z" fill="#2F2E41"/>
<path d="M48.9 32.6838C48.1657 30.3822 46.9801 28.2831 45.4259 26.5328C43.8717 24.7826 41.9862 23.4233 39.9011 22.5497C37.8159 21.6762 35.5812 21.3094 33.3527 21.475C31.1243 21.6406 28.9558 22.3346 26.9984 23.5086C25.0411 24.6825 23.342 26.3082 22.0196 28.2723C20.6973 30.2363 19.7835 32.4915 19.342 34.8804C18.9005 37.2694 18.942 39.7347 19.4635 42.1044C19.985 44.4741 20.9739 46.6911 22.3614 48.6009C22.4993 48.7904 22.6426 48.9799 22.7888 49.1634C22.7998 49.1754 22.808 49.1874 22.8191 49.1995C23.1784 49.6512 23.5603 50.081 23.9631 50.4868C24.0679 50.592 24.1782 50.7003 24.2884 50.8026C24.4978 51.0071 24.7129 51.2026 24.9362 51.3891C25.0244 51.4643 25.1099 51.5395 25.2009 51.6117C25.5537 51.9034 25.9203 52.1741 26.298 52.4328L26.3146 52.4418C26.422 52.514 26.5324 52.5862 26.6426 52.6554C26.8411 52.7847 27.0451 52.908 27.249 53.0253L27.3786 53.0975C27.6764 53.266 27.9796 53.4254 28.2911 53.5727C28.3545 53.6028 28.4234 53.6329 28.4868 53.663C28.4923 53.666 28.495 53.666 28.5006 53.669C28.6467 53.7352 28.7928 53.7983 28.9417 53.8585C29.4307 54.0623 29.9294 54.237 30.4357 54.3818C31.728 54.7576 33.0597 54.9477 34.3971 54.9473C34.8851 54.9473 35.3675 54.9232 35.8444 54.8721C36.9341 54.7624 38.0098 54.5254 39.0532 54.1653C39.0559 54.1653 39.0587 54.1623 39.0614 54.1623C39.7205 53.9332 40.3644 53.6548 40.9884 53.3291C40.9911 53.3261 40.9966 53.3261 40.9994 53.3231C41.14 53.2509 41.2751 53.1727 41.4129 53.0975L41.479 53.0614C41.5893 52.9983 41.6996 52.9351 41.8099 52.8689C42.0855 52.7035 42.3557 52.529 42.623 52.3426C42.6975 52.2944 42.7692 52.2433 42.8436 52.1892C42.9484 52.114 43.0531 52.0358 43.1551 51.9546C43.2901 51.8523 43.4253 51.747 43.5576 51.6387C43.5989 51.6057 43.6431 51.5726 43.6844 51.5365C46.267 49.3976 48.1627 46.4215 49.0996 43.0348C50.0366 39.648 49.9667 36.0246 48.9 32.6838V32.6838ZM43.1772 50.8056C43.0862 50.8838 42.9925 50.959 42.8987 51.0282C42.8077 51.1034 42.7168 51.1756 42.623 51.2417C42.5431 51.3049 42.4631 51.365 42.3805 51.4222L42.3557 51.4402C42.295 51.4854 42.2344 51.5274 42.1737 51.5696C41.9449 51.726 41.7133 51.8764 41.479 52.0207L41.4046 52.0659C41.2999 52.129 41.1952 52.1892 41.0904 52.2493C41.0766 52.2584 41.06 52.2644 41.0463 52.2734L41.0297 52.2824C40.8974 52.3576 40.7623 52.4298 40.6273 52.499C40.106 52.7729 39.5692 53.01 39.0201 53.2088C38.9484 53.2359 38.8767 53.263 38.8051 53.287C37.8176 53.6297 36.7991 53.8556 35.7673 53.9608C35.3151 54.0059 34.8575 54.0299 34.3971 54.0299C33.1322 54.0328 31.8725 53.8527 30.6509 53.4945C30.0239 53.316 29.4095 53.0888 28.8122 52.8148C28.7817 52.7997 28.7486 52.7877 28.7183 52.7727C28.6854 52.7577 28.655 52.7456 28.6247 52.7306C28.5916 52.7155 28.5613 52.7005 28.5281 52.6825C28.269 52.5591 28.0126 52.4238 27.7619 52.2824L27.6406 52.2133C27.3345 52.0388 27.0341 51.8523 26.7418 51.6538C26.6563 51.5966 26.5682 51.5365 26.4854 51.4733C26.4635 51.4583 26.4441 51.4433 26.422 51.4282C26.2263 51.2868 26.0306 51.1395 25.8404 50.9861C25.7109 50.8808 25.5813 50.7755 25.4545 50.6672C25.2422 50.4928 25.0381 50.3063 24.8397 50.1138C24.735 50.0176 24.633 49.9123 24.5338 49.813C24.1429 49.4193 23.7729 49.0015 23.4256 48.5618C23.3098 48.4174 23.1968 48.2731 23.0892 48.1227C23.0648 48.0929 23.0418 48.0618 23.0203 48.0294C21.2292 45.5634 20.1519 42.5712 19.9257 39.4345C19.6996 36.2977 20.3348 33.1585 21.7505 30.4172C23.1661 27.676 25.298 25.4569 27.8742 24.0429C30.4505 22.629 33.3543 22.0844 36.2154 22.4784C39.0765 22.8725 41.7652 24.1874 43.9386 26.2555C46.112 28.3235 47.6716 31.0511 48.4185 34.0902C49.1654 37.1293 49.0658 40.3422 48.1323 43.3193C47.1988 46.2963 45.4737 48.9026 43.1772 50.8056L43.1772 50.8056Z" fill="#3F3D56"/>
<path d="M48.8999 90.6946C48.1657 88.393 46.9801 86.2939 45.4259 84.5436C43.8716 82.7933 41.9862 81.434 39.901 80.5604C37.8159 79.6869 35.5811 79.3201 33.3527 79.4858C31.1243 79.6514 28.9558 80.3453 26.9984 81.5193C25.0411 82.6933 23.342 84.319 22.0196 86.283C20.6973 88.2471 19.7835 90.5022 19.342 92.8912C18.9006 95.2801 18.942 97.7454 19.4635 100.115C19.985 102.485 20.9739 104.702 22.3614 106.612C22.4992 106.801 22.6426 106.991 22.7886 107.174C22.7997 107.186 22.8079 107.198 22.8189 107.21C23.1783 107.662 23.5603 108.092 23.9631 108.497C24.0678 108.603 24.178 108.711 24.2883 108.813C24.4978 109.018 24.7128 109.213 24.9361 109.4C25.3721 109.775 25.8267 110.123 26.2979 110.443L26.3144 110.453C26.6204 110.66 26.9319 110.853 27.249 111.036L27.3785 111.108C27.6762 111.277 27.9795 111.436 28.291 111.583C28.3544 111.614 28.4233 111.644 28.4867 111.674C28.4922 111.677 28.495 111.677 28.5005 111.68C29.1299 111.965 29.7765 112.203 30.4357 112.393C31.728 112.768 33.0596 112.958 34.397 112.958C34.8849 112.958 35.3673 112.934 35.8442 112.883C36.9339 112.773 38.0097 112.536 39.053 112.176C39.0559 112.176 39.0586 112.173 39.0613 112.173C39.7204 111.944 40.3642 111.666 40.9882 111.34C40.9909 111.337 40.9966 111.337 40.9993 111.334C41.1398 111.262 41.2749 111.183 41.4128 111.108L41.479 111.072C41.5892 111.009 41.6995 110.946 41.8097 110.88C42.0854 110.714 42.3555 110.54 42.623 110.353C42.6974 110.305 42.769 110.254 42.8435 110.2C43.086 110.025 43.3259 109.839 43.5574 109.649C43.5989 109.616 43.6429 109.583 43.6843 109.547C46.2669 107.408 48.1625 104.432 49.0994 101.045C50.0364 97.6587 49.9665 94.0353 48.8999 90.6946V90.6946Z" fill="white"/>
<path d="M39.4656 103.109C40.7367 103.109 41.7672 101.985 41.7672 100.598C41.7672 99.2107 40.7367 98.0864 39.4656 98.0864C38.1945 98.0864 37.1641 99.2107 37.1641 100.598C37.1641 101.985 38.1945 103.109 39.4656 103.109Z" fill="#2F2E41"/>
<path d="M40.1074 98.1556C40.5057 98.1556 40.8972 98.2684 41.2437 98.483C41.5901 98.6975 41.8795 99.0065 42.0837 99.3797C42.2879 99.7529 42.3998 100.178 42.4086 100.612C42.4173 101.047 42.3225 101.476 42.1335 101.859C42.333 101.586 42.4783 101.272 42.5601 100.935C42.642 100.597 42.6586 100.246 42.6089 99.9011C42.5592 99.5567 42.4442 99.2273 42.2714 98.934C42.0986 98.6407 41.8717 98.3899 41.6052 98.1976C41.3386 98.0052 41.0383 97.8756 40.7233 97.8169C40.4083 97.7581 40.0855 97.7717 39.7756 97.8566C39.4656 97.9415 39.1753 98.0959 38.9231 98.31C38.6708 98.524 38.4622 98.7931 38.3105 99.1C38.5257 98.8053 38.799 98.5673 39.1102 98.4037C39.4213 98.2402 39.7623 98.1554 40.1076 98.1556L40.1074 98.1556Z" fill="#2F2E41"/>
<path d="M35.1653 100.592C38.8993 100.592 41.9264 97.2896 41.9264 93.2155C41.9264 89.1413 38.8993 85.8386 35.1653 85.8386C31.4313 85.8386 28.4043 89.1413 28.4043 93.2155C28.4043 97.2896 31.4313 100.592 35.1653 100.592Z" fill="#2F2E41"/>
<path d="M29.8588 88.6386C31.0238 87.2091 32.6522 86.3293 34.4004 86.185C36.1487 86.0406 37.8799 86.643 39.2288 87.865C39.1736 87.8075 39.1185 87.7498 39.0614 87.6941C37.7259 86.3887 35.9697 85.7156 34.1792 85.8229C32.3888 85.9302 30.7108 86.8092 29.5143 88.2664C28.3178 89.7236 27.7009 91.6398 27.7993 93.5933C27.8976 95.5468 28.7032 97.3776 30.0388 98.6831C30.0516 98.6956 30.0645 98.7081 30.0774 98.7206C30.1347 98.7762 30.1937 98.8288 30.2525 98.8821C28.9822 97.5636 28.2312 95.7583 28.1578 93.8471C28.0844 91.9359 28.6944 90.0683 29.8591 88.6386L29.8588 88.6386Z" fill="#2F2E41"/>
<path d="M35.1084 100.53C37.5132 100.53 39.4628 98.4026 39.4628 95.7787C39.4628 93.1547 37.5132 91.0276 35.1084 91.0276C32.7035 91.0276 30.7539 93.1547 30.7539 95.7787C30.7539 98.4026 32.7035 100.53 35.1084 100.53Z" fill="#A0616A"/>
<path d="M42.8998 108.157V109.752C42.6323 109.938 42.3622 110.113 42.0865 110.278C41.9763 110.344 41.866 110.407 41.7558 110.47L41.6896 110.507C41.5517 110.582 41.4166 110.66 41.2761 110.732C41.2734 110.735 41.2677 110.735 41.265 110.738C40.641 111.064 39.9971 111.342 39.338 111.571C39.3353 111.571 39.3326 111.574 39.3298 111.574C38.2865 111.934 37.2107 112.171 36.121 112.281C35.6441 112.332 35.1617 112.356 34.6738 112.356C33.3364 112.357 32.0047 112.167 30.7125 111.791C30.0533 111.602 29.4067 111.364 28.7773 111.078C28.7718 111.075 28.769 111.075 28.7635 111.072C28.7001 111.042 28.6311 111.012 28.5677 110.982C28.2563 110.834 27.953 110.675 27.6553 110.507L27.5258 110.434C27.2087 110.251 26.8972 110.058 26.5912 109.851L26.5747 109.842C26.1035 109.522 25.6489 109.173 25.2129 108.798C24.9896 108.612 24.7746 108.416 24.565 108.212C24.4548 108.109 24.3446 108.001 24.2398 107.896C23.8371 107.49 23.4551 107.06 23.0957 106.608C23.1434 106.295 23.2135 105.986 23.3053 105.685L23.308 105.682C23.3245 105.631 23.3438 105.581 23.3659 105.532C23.3811 105.489 23.3986 105.446 23.4182 105.405C23.9117 104.398 24.8049 104.148 25.9131 104.094C26.5389 104.064 27.2307 104.097 27.9614 104.088C28.3473 104.085 28.7469 104.07 29.1467 104.031C31.669 103.781 31.2115 102.157 31.3244 101.282C31.4375 100.434 32.1377 101.167 32.1845 101.216L32.1872 101.219C33.6146 101.947 35.1939 102.249 36.7634 102.094C37.0335 102.058 37.3036 102.037 37.5738 102.028C38.285 102.019 38.1307 102.241 37.8854 102.425C37.7663 102.51 37.642 102.587 37.5132 102.653C37.5132 102.653 37.4002 103.405 37.2844 104.53C37.1742 105.607 39.0652 106.112 39.2223 106.151C39.2255 106.154 39.2294 106.155 39.2333 106.154C39.9239 105.959 40.651 105.98 41.3313 106.214H41.334C41.7226 106.37 42.0694 106.63 42.3429 106.969C42.6163 107.308 42.8077 107.717 42.8998 108.157Z" fill="#7EB256"/>
<path d="M28.8041 110.092C28.8041 110.314 28.7987 110.528 28.7904 110.729C28.7877 110.85 28.7821 110.967 28.7766 111.078C28.7711 111.075 28.7683 111.075 28.7628 111.072C28.6994 111.042 28.6304 111.012 28.567 110.982C28.2556 110.835 27.9523 110.675 27.6546 110.507L27.5251 110.435C27.208 110.251 26.8965 110.059 26.5905 109.851C26.5987 109.746 26.6126 109.64 26.6263 109.535C26.6566 109.304 26.6815 109.069 26.6981 108.837C26.8064 107.21 26.5362 105.58 25.9124 104.097V104.094C25.8572 103.974 25.8242 103.908 25.8242 103.908C25.8242 103.908 26.6263 103.156 27.7703 103.908C27.8434 103.955 27.9079 104.016 27.9606 104.088C28.6498 104.975 28.8372 107.959 28.8041 110.092Z" fill="#2F2E41"/>
<path d="M41.3233 109.683C41.3123 110.019 41.2957 110.371 41.2765 110.729V110.732C41.2738 110.735 41.2681 110.735 41.2654 110.738C40.6414 111.064 39.9975 111.342 39.3384 111.571C39.3357 111.571 39.333 111.574 39.3302 111.574L39.2999 110.729L39.2971 110.618L39.1511 106.503C39.1471 106.41 39.1606 106.317 39.1905 106.23C39.2205 106.143 39.2663 106.063 39.3253 105.995C39.3843 105.928 39.4553 105.874 39.5338 105.837C39.6123 105.801 39.6969 105.782 39.7823 105.781H41.1799C41.2489 105.781 41.2985 105.935 41.3316 106.212V106.215C41.3994 107.37 41.3966 108.528 41.3233 109.683Z" fill="#2F2E41"/>
<path d="M31.3828 89.8398V94.5921H32.3912L33.6745 93.0918L33.5027 94.5921H37.9603L37.6846 93.0918L38.2359 94.5921H38.9466V89.8398H31.3828Z" fill="#2F2E41"/>
<path d="M30.6953 95.4662C30.8852 95.4662 31.0391 95.1584 31.0391 94.7786C31.0391 94.3989 30.8852 94.0911 30.6953 94.0911C30.5055 94.0911 30.3516 94.3989 30.3516 94.7786C30.3516 95.1584 30.5055 95.4662 30.6953 95.4662Z" fill="#A0616A"/>
<path d="M39.5195 95.4662C39.7094 95.4662 39.8633 95.1584 39.8633 94.7786C39.8633 94.3989 39.7094 94.0911 39.5195 94.0911C39.3297 94.0911 39.1758 94.3989 39.1758 94.7786C39.1758 95.1584 39.3297 95.4662 39.5195 95.4662Z" fill="#A0616A"/>
<path d="M43.8343 109.048C43.6027 109.237 43.3629 109.424 43.1203 109.598C43.0459 109.652 42.9743 109.704 42.8998 109.752C42.6324 109.938 42.3622 110.113 42.0866 110.278C41.9763 110.344 41.8661 110.407 41.7559 110.471V107.156C41.7559 107.156 42.1968 107.541 42.8998 108.182C42.988 108.263 43.079 108.347 43.1755 108.437C43.3794 108.624 43.6001 108.828 43.8343 109.048Z" fill="#7EB256"/>
<path d="M48.8999 90.6946C48.1657 88.393 46.9801 86.2939 45.4259 84.5436C43.8716 82.7933 41.9862 81.434 39.901 80.5604C37.8159 79.6869 35.5811 79.3201 33.3527 79.4858C31.1243 79.6514 28.9558 80.3453 26.9984 81.5193C25.0411 82.6933 23.342 84.319 22.0196 86.283C20.6973 88.2471 19.7835 90.5022 19.342 92.8912C18.9006 95.2801 18.942 97.7454 19.4635 100.115C19.985 102.485 20.9739 104.702 22.3614 106.612C22.4992 106.801 22.6426 106.991 22.7886 107.174C22.7997 107.186 22.8079 107.198 22.8189 107.21C23.1783 107.662 23.5603 108.092 23.9631 108.497C24.0678 108.603 24.178 108.711 24.2883 108.813C24.4978 109.018 24.7128 109.213 24.9361 109.4C25.3721 109.775 25.8267 110.123 26.2979 110.443L26.3144 110.453C26.6204 110.66 26.9319 110.853 27.249 111.036L27.3785 111.108C27.6762 111.277 27.9795 111.436 28.291 111.583C28.3544 111.614 28.4233 111.644 28.4867 111.674C28.4922 111.677 28.495 111.677 28.5005 111.68C29.1299 111.965 29.7765 112.203 30.4357 112.393C31.728 112.768 33.0596 112.958 34.397 112.958C34.8849 112.958 35.3673 112.934 35.8442 112.883C36.9339 112.773 38.0097 112.536 39.053 112.176C39.0559 112.176 39.0586 112.173 39.0613 112.173C39.7204 111.944 40.3642 111.666 40.9882 111.34C40.9909 111.337 40.9966 111.337 40.9993 111.334C41.1398 111.262 41.2749 111.183 41.4128 111.108L41.479 111.072C41.5892 111.009 41.6995 110.946 41.8097 110.88C42.0854 110.714 42.3555 110.54 42.623 110.353C42.6974 110.305 42.769 110.254 42.8435 110.2C43.086 110.025 43.3259 109.839 43.5574 109.649C43.5989 109.616 43.6429 109.583 43.6843 109.547C46.2669 107.408 48.1625 104.432 49.0994 101.045C50.0364 97.6587 49.9665 94.0353 48.8999 90.6946V90.6946ZM43.177 108.816C43.086 108.895 42.9923 108.97 42.8987 109.039C42.8077 109.114 42.7167 109.186 42.623 109.252C42.543 109.316 42.4631 109.376 42.3803 109.433C42.3114 109.484 42.2425 109.532 42.1735 109.58C41.9449 109.737 41.7133 109.887 41.479 110.031L41.4044 110.077C41.2997 110.14 41.195 110.2 41.0903 110.26C41.0764 110.269 41.0598 110.275 41.0461 110.284L41.0296 110.293C40.8973 110.368 40.7622 110.44 40.6271 110.51C40.1059 110.784 39.569 111.021 39.0199 111.219C38.9483 111.247 38.8766 111.274 38.805 111.298C37.8174 111.64 36.7989 111.866 35.7671 111.971C35.315 112.017 34.8573 112.041 34.397 112.041C33.132 112.043 31.8723 111.863 30.6507 111.505C30.0238 111.327 29.4093 111.1 28.812 110.825C28.7486 110.798 28.6852 110.768 28.6245 110.741C28.5915 110.726 28.5611 110.711 28.528 110.693C28.2689 110.57 28.0126 110.434 27.7617 110.293L27.6404 110.224C27.3345 110.049 27.0339 109.863 26.7417 109.664C26.6343 109.592 26.5267 109.517 26.422 109.439C26.0911 109.201 25.7686 108.946 25.4543 108.678C25.2421 108.503 25.0381 108.317 24.8396 108.124C24.7349 108.028 24.6328 107.923 24.5336 107.824C24.1428 107.43 23.7728 107.012 23.4255 106.573C23.3097 106.428 23.1966 106.284 23.0891 106.133C23.0646 106.104 23.0416 106.073 23.0202 106.04C21.2291 103.574 20.1517 100.582 19.9256 97.4451C19.6994 94.3084 20.3347 91.1692 21.7503 88.4279C23.166 85.6867 25.2978 83.4676 27.8741 82.0537C30.4503 80.6397 33.3542 80.0951 36.2153 80.4891C39.0764 80.8832 41.7651 82.1981 43.9384 84.2662C46.1118 86.3342 47.6714 89.0618 48.4183 92.1009C49.1652 95.14 49.0656 98.3529 48.1321 101.33C47.1986 104.307 45.4736 106.913 43.177 108.816V108.816Z" fill="#3F3D56"/>
<path d="M34.4856 161.744C37.8086 161.744 40.5025 158.805 40.5025 155.179C40.5025 151.553 37.8086 148.614 34.4856 148.614C31.1626 148.614 28.4688 151.553 28.4688 155.179C28.4688 158.805 31.1626 161.744 34.4856 161.744Z" fill="#2F2E41"/>
<path d="M29.788 151.639C30.7603 150.579 30.9573 149.074 30.2281 148.278C29.4989 147.482 28.1195 147.697 27.1472 148.758C26.1749 149.819 25.9779 151.324 26.7071 152.12C27.4363 152.915 28.8157 152.7 29.788 151.639Z" fill="#2F2E41"/>
<path d="M40.7561 149.555C41.1612 148.52 40.4645 147.203 39.2 146.614C37.9355 146.025 36.582 146.386 36.1769 147.42C35.7718 148.455 36.4684 149.772 37.733 150.361C38.9975 150.95 40.351 150.589 40.7561 149.555Z" fill="#2F2E41"/>
<path d="M41.6815 167.913L40.9726 166.696C40.6718 165.963 40.1169 165.39 39.4295 165.102C38.7422 164.814 37.9783 164.835 37.3052 165.161C36.6322 165.486 36.1048 166.09 35.8386 166.839C35.5724 167.588 35.5891 168.421 35.8851 169.157L36.0866 169.945L36.3161 170.84C37.2448 170.712 38.1612 170.494 39.0543 170.188C39.057 170.188 39.0594 170.186 39.0613 170.184C39.7215 169.956 40.366 169.677 40.99 169.35C40.9934 169.346 40.9968 169.346 41.0004 169.342C41.1394 169.27 41.2749 169.195 41.4139 169.119C41.4366 169.108 41.4586 169.095 41.4799 169.081C41.591 169.02 41.7024 168.956 41.8101 168.891C41.9212 168.827 42.0289 168.759 42.1332 168.686L41.6815 167.913Z" fill="#CACACA"/>
<path d="M34.6748 162.318C37.495 162.318 39.7813 159.823 39.7813 156.746C39.7813 153.669 37.495 151.175 34.6748 151.175C31.8546 151.175 29.5684 153.669 29.5684 156.746C29.5684 159.823 31.8546 162.318 34.6748 162.318Z" fill="#FFB6B6"/>
<path d="M42.0499 167.674C41.4867 166.652 40.7875 165.727 39.9753 164.929C39.4189 164.387 38.6989 164.087 37.9529 164.087H30.7595C30.345 164.087 29.9348 164.18 29.5544 164.359C29.174 164.539 28.8314 164.802 28.5477 165.132C28.2641 165.461 28.0454 165.851 27.9052 166.277C27.765 166.702 27.7063 167.155 27.7327 167.606C27.7484 167.861 27.7904 168.112 27.8579 168.357C27.9092 168.534 27.9731 168.706 28.049 168.872L28.4034 169.646C28.4313 169.657 28.4591 169.672 28.4868 169.684C28.4937 169.688 28.4973 169.687 28.5007 169.691C28.6466 169.756 28.7927 169.82 28.942 169.881C29.431 170.085 29.9299 170.26 30.4364 170.404C31.2517 170.643 32.0839 170.807 32.9244 170.893C33.4144 170.943 33.9044 170.969 34.3979 170.969C34.8879 170.969 35.3674 170.943 35.8469 170.893C36.0034 170.878 36.1596 170.859 36.3161 170.84C37.2448 170.712 38.1612 170.494 39.0544 170.188C39.057 170.188 39.0595 170.186 39.0613 170.184C39.7215 169.956 40.366 169.678 40.9901 169.35C40.9935 169.346 40.9969 169.346 41.0004 169.342C41.1394 169.27 41.275 169.195 41.4139 169.119C41.4366 169.108 41.4587 169.095 41.4799 169.081C41.5911 169.02 41.7024 168.956 41.8101 168.891C41.9213 168.827 42.029 168.759 42.1332 168.687C42.2445 168.622 42.3487 168.55 42.4564 168.478C42.3245 168.194 42.1889 167.928 42.0499 167.674Z" fill="#CACACA"/>
<path d="M32.0622 165.104C31.3965 164.764 30.6346 164.726 29.9431 164.997C29.2515 165.268 28.6866 165.827 28.3718 166.552L27.7323 167.606L27.4265 168.11L26.9609 168.876C27.0582 168.933 27.152 168.99 27.2494 169.047L27.3778 169.119C27.6768 169.286 27.979 169.445 28.2919 169.593C28.3265 169.612 28.3649 169.627 28.403 169.646C28.4309 169.657 28.4587 169.672 28.4864 169.684C28.4933 169.688 28.4969 169.688 28.5003 169.691C28.6462 169.756 28.7923 169.82 28.9416 169.881C29.4306 170.085 29.9295 170.26 30.4359 170.404C31.2513 170.643 32.0835 170.807 32.924 170.893L33.1673 169.995L33.4036 169.138C33.7152 168.409 33.7489 167.574 33.4974 166.818C33.2459 166.062 32.7298 165.445 32.0622 165.104Z" fill="#CACACA"/>
<path d="M29.3105 153.242C30.4774 154.119 31.8625 154.586 33.2797 154.58C32.7741 154.962 32.1986 155.221 31.5928 155.337C33.4771 155.778 35.4245 155.79 37.3132 155.372C37.733 155.299 38.1381 155.147 38.5107 154.923C38.6963 154.81 38.8581 154.656 38.9854 154.47C39.1128 154.284 39.2029 154.071 39.2498 153.845C39.3753 153.063 38.8166 152.352 38.236 151.873C37.3471 151.151 36.3222 150.653 35.2354 150.416C34.1486 150.179 33.0271 150.209 31.9521 150.503C31.2358 150.66 30.584 151.062 30.091 151.65C29.8525 151.95 29.7085 152.325 29.6803 152.72C29.6521 153.116 29.7412 153.511 29.9344 153.847L29.3105 153.242Z" fill="#2F2E41"/>
<path d="M48.9029 148.705C48.1688 146.403 46.9833 144.304 45.4291 142.553C43.8749 140.803 41.9894 139.443 39.9041 138.57C37.8188 137.696 35.584 137.329 33.3554 137.495C31.1268 137.66 28.9581 138.354 27.0006 139.528C25.0431 140.702 23.3439 142.328 22.0215 144.292C20.6991 146.256 19.7853 148.512 19.3439 150.901C18.9024 153.29 18.944 155.755 19.4657 158.125C19.9873 160.495 20.9765 162.712 22.3642 164.622C22.4997 164.812 22.6457 165.001 22.7917 165.183C22.8 165.197 22.8093 165.209 22.8195 165.221C23.1794 165.673 23.5622 166.102 23.9662 166.506C24.0704 166.613 24.1781 166.723 24.2894 166.825C24.4978 167.03 24.7133 167.223 24.9391 167.409C25.026 167.485 25.1129 167.561 25.2033 167.633C25.5542 167.924 25.9226 168.194 26.2979 168.455C26.3044 168.455 26.3105 168.458 26.3152 168.463C26.423 168.535 26.5343 168.607 26.6454 168.675C26.7496 168.743 26.8574 168.812 26.9617 168.876C27.0589 168.933 27.1528 168.99 27.2502 169.047L27.3786 169.119C27.6776 169.286 27.9798 169.445 28.2927 169.593C28.3273 169.612 28.3657 169.627 28.4038 169.646C28.4316 169.657 28.4595 169.672 28.4871 169.684C28.4941 169.688 28.4977 169.688 28.501 169.691C28.647 169.756 28.7931 169.82 28.9424 169.881C29.4314 170.085 29.9302 170.26 30.4367 170.404C31.252 170.643 32.0843 170.807 32.9247 170.893C33.4148 170.943 33.9048 170.969 34.3982 170.969C34.8883 170.969 35.3678 170.943 35.8473 170.893C36.0037 170.878 36.16 170.859 36.3165 170.84C37.2452 170.712 38.1616 170.494 39.0547 170.188C39.0574 170.188 39.0598 170.186 39.0617 170.184C39.7219 169.956 40.3664 169.678 40.9904 169.35C40.9938 169.346 40.9972 169.346 41.0008 169.343C41.1398 169.27 41.2753 169.195 41.4143 169.119C41.437 169.108 41.459 169.095 41.4803 169.081C41.5914 169.02 41.7028 168.956 41.8105 168.891C41.9216 168.827 42.0293 168.759 42.1336 168.687C42.2449 168.622 42.3491 168.55 42.4568 168.478C42.5125 168.44 42.5681 168.402 42.6236 168.364C42.7001 168.315 42.7695 168.266 42.8461 168.209C42.9502 168.137 43.0546 168.057 43.1552 167.978C43.2908 167.875 43.4264 167.769 43.5584 167.659C43.6029 167.627 43.6458 167.593 43.687 167.557C46.2676 165.416 48.1618 162.44 49.0986 159.054C50.0355 155.668 49.967 152.046 48.9029 148.705L48.9029 148.705ZM43.1797 166.825C43.0892 166.905 42.9954 166.98 42.9017 167.049C42.8077 167.124 42.7175 167.197 42.6236 167.265C42.5437 167.325 42.4638 167.386 42.3805 167.443C42.3729 167.45 42.3647 167.457 42.356 167.462C42.297 167.507 42.2344 167.549 42.1753 167.591C42.1336 167.617 42.092 167.648 42.0503 167.674C41.9286 167.758 41.807 167.837 41.6819 167.913C41.6159 167.959 41.5463 168 41.4803 168.042C41.4561 168.057 41.4316 168.072 41.4073 168.088C41.2996 168.152 41.1954 168.209 41.0911 168.27C41.0773 168.281 41.0598 168.285 41.0495 168.296C41.043 168.296 41.0368 168.299 41.032 168.304C40.9 168.379 40.7644 168.452 40.629 168.52C40.1073 168.794 39.5698 169.031 39.02 169.229C38.9506 169.255 38.8776 169.286 38.808 169.308C37.9218 169.615 37.0106 169.828 36.0871 169.945C35.9829 169.961 35.8751 169.972 35.7674 169.983C35.3157 170.029 34.8604 170.052 34.3982 170.052C33.9881 170.052 33.5746 170.033 33.1681 169.995C32.3181 169.917 31.4762 169.758 30.6522 169.517C30.0251 169.339 29.4107 169.111 28.8139 168.834C28.7826 168.819 28.7513 168.808 28.7201 168.793C28.6853 168.778 28.6575 168.766 28.6263 168.751C28.5915 168.736 28.5637 168.721 28.5289 168.702C28.3031 168.596 28.0772 168.478 27.8583 168.357C27.8269 168.338 27.7957 168.323 27.7645 168.304L27.6428 168.235C27.5699 168.194 27.4969 168.152 27.4274 168.11C27.1946 167.974 26.9651 167.826 26.7429 167.674C26.6594 167.617 26.5691 167.557 26.4856 167.496L26.423 167.451C26.2284 167.306 26.0339 167.162 25.8427 167.007C25.7141 166.901 25.5821 166.798 25.457 166.688C25.2451 166.514 25.04 166.328 24.842 166.135C24.7376 166.04 24.6334 165.934 24.5362 165.835C24.1449 165.442 23.7747 165.024 23.4277 164.584C23.313 164.44 23.1983 164.296 23.0905 164.144C23.0663 164.114 23.0454 164.084 23.021 164.05C21.2294 161.583 20.1518 158.591 19.9254 155.454C19.699 152.316 20.3341 149.177 21.7498 146.435C23.1655 143.693 25.2976 141.474 27.8741 140.06C30.4506 138.645 33.3548 138.1 36.2163 138.494C39.0778 138.888 41.7669 140.203 43.9407 142.272C46.1144 144.34 47.6743 147.068 48.4214 150.107C49.1685 153.147 49.0689 156.36 48.1353 159.338C47.2018 162.315 45.4766 164.922 43.1797 166.825H43.1797Z" fill="#3F3D56"/>
<path d="M60.0895 66.8408C54.7421 61.9177 48.1986 58.7965 41.2551 57.857C34.3116 56.9175 27.2675 58.2003 20.98 61.5492C14.6924 64.8981 9.43262 70.1688 5.8405 76.7199C2.24839 83.271 0.478872 90.82 0.747278 98.4483C1.01568 106.077 3.31044 113.455 7.3523 119.687C11.3942 125.918 17.0089 130.733 23.5132 133.546C30.0175 136.359 37.131 137.049 43.9881 135.532C50.8452 134.014 57.1501 130.355 62.1358 124.999L106.408 165.758C107.082 166.376 107.953 166.677 108.83 166.596C109.707 166.514 110.519 166.056 111.088 165.323C111.656 164.589 111.935 163.64 111.863 162.682C111.79 161.725 111.373 160.838 110.702 160.215L110.698 160.211L66.4255 119.452C71.5686 111.398 73.7697 101.539 72.5977 91.8073C71.4256 82.0751 66.9648 73.1714 60.0895 66.8408ZM57.2354 115.527C53.7865 119.987 49.2029 123.231 44.0642 124.848C38.9256 126.466 33.4628 126.384 28.3666 124.614C23.2704 122.844 18.7697 119.465 15.4336 114.904C12.0976 110.343 10.076 104.805 9.62449 98.991C9.17301 93.1766 10.3119 87.3466 12.8972 82.2384C15.4825 77.1302 19.3981 72.9731 24.1487 70.2929C28.8994 67.6127 34.2718 66.5297 39.5865 67.181C44.9013 67.8322 49.9197 70.1883 54.0072 73.9514C59.4883 78.9976 62.9077 86.2128 63.5131 94.0098C64.1186 101.807 61.8604 109.547 57.2354 115.527Z" fill="#3F3D56"/>
<path opacity="0.3" d="M19.1303 119.049C13.9428 114.273 10.5912 107.543 9.74117 100.195C8.89111 92.8475 10.6047 85.4197 14.5417 79.3867C14.0246 79.9548 13.5248 80.5498 13.0422 81.1717C10.7521 84.1328 9.01908 87.5572 7.94195 91.2491C6.86482 94.9411 6.46472 98.8283 6.76449 102.689C7.06426 106.55 8.05804 110.308 9.68907 113.75C11.3201 117.191 13.5564 120.249 16.2704 122.747C18.9844 125.246 22.1229 127.137 25.5066 128.312C28.8904 129.487 32.4532 129.924 35.9915 129.597C39.5299 129.27 42.9746 128.185 46.1289 126.406C49.2833 124.626 52.0854 122.186 54.3755 119.225C54.857 118.602 55.3105 117.965 55.7358 117.312C50.9476 122.561 44.5252 125.654 37.7438 125.976C30.9625 126.298 24.3182 123.825 19.1303 119.049Z" fill="black"/>
<path d="M149.343 167.282C149.689 166.821 149.938 166.283 150.073 165.706C150.208 165.129 150.225 164.527 150.123 163.942C150.021 163.357 149.803 162.803 149.484 162.32C149.165 161.837 148.753 161.436 148.277 161.145L140.207 125.107L134.32 127.157L143.034 162.95C142.64 163.855 142.564 164.887 142.82 165.85C143.076 166.813 143.648 167.639 144.425 168.173C145.203 168.707 146.133 168.911 147.04 168.747C147.946 168.583 148.766 168.061 149.343 167.282H149.343Z" fill="#FFB6B6"/>
<path d="M145.171 144.23L140.869 148.279L134.851 153.94L132.192 139.1L131.914 137.557L131.695 136.332L137.794 124.742L142.878 125.06L143.225 125.083L143.232 125.166L143.312 125.944L144.355 136.173L144.379 136.42L145.171 144.23Z" fill="#3F3D56"/>
<path d="M117.053 244.962L112.793 244.961L110.766 227.032L117.054 227.032L117.053 244.962Z" fill="#FFB6B6"/>
<path d="M118.139 249.468L104.402 249.467V249.278C104.402 247.73 104.966 246.247 105.969 245.153C106.971 244.059 108.331 243.444 109.749 243.444H109.75L118.14 243.444L118.139 249.468Z" fill="#2F2E41"/>
<path d="M161.533 245.341L157.273 245.341L155.246 227.411L161.534 227.412L161.533 245.341Z" fill="#FFB6B6"/>
<path d="M162.62 249.847L148.883 249.846V249.657C148.883 248.109 149.446 246.626 150.449 245.531C151.452 244.437 152.812 243.823 154.23 243.823H154.23L162.62 243.823L162.62 249.847Z" fill="#2F2E41"/>
<path d="M164.937 238.204L153.469 240.099L136.786 178.494L119.067 240.478L106.209 238.583L122.889 166.543V160.856L125.148 152.325L124.912 150.016L123.268 133.868L122.556 126.865L122.509 126.412C122.471 126.033 122.563 125.651 122.768 125.341C122.973 125.032 123.276 124.817 123.619 124.738L128.97 123.509H137.717L142.878 125.06L143.232 125.166L143.392 125.215L143.312 125.943L142.103 137.007L142.037 137.614L140.869 148.279L140.612 150.619C150.689 158.581 151.037 166.543 151.037 166.543L164.937 238.204Z" fill="#7EB256"/>
<path d="M132.287 118.712C137.001 118.712 140.822 114.543 140.822 109.4C140.822 104.257 137.001 100.088 132.287 100.088C127.573 100.088 123.752 104.257 123.752 109.4C123.752 114.543 127.573 118.712 132.287 118.712Z" fill="#FFB6B6"/>
<path d="M141.251 148.479L124.367 150.888L124.683 153.52L141.567 151.111L141.251 148.479Z" fill="#3F3D56"/>
<path d="M101.72 151.681C101.881 151.795 102.034 151.923 102.177 152.063L118.877 147.418L120.016 143.023L126.321 144.032L124.998 152.027C124.891 152.673 124.595 153.264 124.154 153.71C123.713 154.157 123.151 154.436 122.553 154.504L103.054 156.745C102.736 157.475 102.222 158.082 101.581 158.486C100.939 158.889 100.2 159.07 99.4613 159.004C98.723 158.938 98.0206 158.628 97.4476 158.116C96.8745 157.604 96.458 156.914 96.2533 156.137C96.0487 155.36 96.0656 154.534 96.3019 153.768C96.5381 153.002 96.9826 152.333 97.576 151.849C98.1695 151.365 98.8839 151.09 99.6241 151.06C100.364 151.03 101.095 151.247 101.72 151.681Z" fill="#FFB6B6"/>
<path d="M127.408 127.111L124.454 124.647C123.656 124.316 122.561 125.255 122.369 126.163L118.199 144.742L126.887 151.567L128.103 149.481L127.408 127.111Z" fill="#3F3D56"/>
<g opacity="0.2">
<path opacity="0.2" d="M144.356 136.173C143.618 136.492 142.867 136.771 142.104 137.007C141.861 137.087 141.61 137.163 141.364 137.235C139.737 137.727 138.066 138.022 136.38 138.114C135.655 138.148 134.928 138.126 134.205 138.05C133.429 137.965 132.662 137.8 131.915 137.557C131.891 137.549 131.863 137.542 131.839 137.534C130.285 137.053 128.86 136.17 127.686 134.96C127.423 134.681 127.178 134.383 126.953 134.069C126.304 133.202 125.828 132.196 125.555 131.117C125.282 130.038 125.218 128.909 125.368 127.801C125.397 127.601 125.437 127.402 125.486 127.206C125.617 126.672 125.79 126.152 126.004 125.651C126.098 125.416 126.202 125.185 126.313 124.958L130.24 123.509H137.718L142.879 125.06L143.226 125.083L143.233 125.166L143.393 125.215L143.313 125.943L144.356 136.173Z" fill="black"/>
</g>
<path d="M125.747 101.69C124.151 101.477 122.399 101.628 121.155 102.74C119.911 103.851 119.51 106.163 120.688 107.357C121.73 108.415 123.361 108.166 124.758 108.467C125.961 108.761 127.039 109.487 127.819 110.529C128.599 111.571 129.037 112.868 129.061 114.213C129.04 118.071 125.647 120.992 125.038 124.792C124.622 127.385 125.624 130.115 127.357 131.947C129.09 133.778 131.473 134.768 133.873 135.037C136.274 135.305 138.701 134.895 141.034 134.222C143.376 133.547 145.683 132.588 147.648 131.042C149.614 129.496 151.225 127.317 151.856 124.764C152.487 122.212 152.034 119.285 150.408 117.325C148.546 115.081 145.448 114.309 143.837 111.844C142.031 109.081 142.699 105.146 141.238 102.15C140.262 100.15 138.414 98.7859 136.445 98.0672C134.476 97.3486 132.373 97.2067 130.297 97.1371C129.206 97.1006 128.081 97.0884 127.065 97.5224C126.048 97.9564 125.155 98.9454 125.102 100.135C125.05 101.325 125.747 101.69 125.747 101.69Z" fill="#2F2E41"/>
<path d="M205.653 250H73.2538C73.1616 250 73.0732 249.96 73.008 249.889C72.9429 249.818 72.9062 249.721 72.9062 249.621C72.9062 249.52 72.9429 249.424 73.008 249.353C73.0732 249.282 73.1616 249.242 73.2538 249.242H205.653C205.745 249.242 205.833 249.282 205.898 249.353C205.963 249.424 206 249.52 206 249.621C206 249.721 205.963 249.818 205.898 249.889C205.833 249.96 205.745 250 205.653 250Z" fill="#CACACA"/>
</g>
<defs>
<clipPath id="clip0_976_1302">
<rect width="205.279" height="250" fill="white" transform="translate(0.720703)"/>
</clipPath>
</defs>
</svg>
